<?xml version="1.0" encoding="UTF-8"?>
<svg id="Layer_2" xmlns="http://www.w3.org/2000/svg" viewBox="0 0 26.4 120">
  <defs>
    <style>
      .cls-1 {
        fill: #231f20;
      }
    </style>
  </defs>
  <g id="Layer_2-2" data-name="Layer_2">
    <g id="Layer_2-2">
      <g id="Layer_1-2">
        <g>
          <path class="cls-1" d="M6.01,115.21l-.11.06c0,.12.1.29.28.52.18.22.42.46.67.73s.56.54.89.82.61.52.89.77c.28.23.49.44.66.61.17.17.26.28.26.32,0,.06-.2.16-.59.26s-.83.22-1.32.31-.97.18-1.43.26c-.46.07-.77.12-.94.12-.04,0-.06-.01-.1-.04-.04,0-.06,0-.1-.04-.06-.01-.12-.1-.18-.22-.07-.12-.14-.26-.22-.42-.07-.16-.14-.31-.2-.44-.06-.14-.11-.24-.12-.29-.48-.89-.95-1.76-1.44-2.63s-1.06-1.72-1.72-2.56c-.06-.06-.14-.16-.23-.28s-.22-.24-.32-.38c-.12-.14-.22-.26-.31-.38-.1-.12-.16-.2-.17-.24l.11-.05c.14.04.37.12.67.28s.61.31.94.46c.32.16.6.31.86.43.26.12.4.18.43.18h.12c.04-.06.05-.14.05-.24s-.04-.22-.06-.34-.06-.23-.07-.35c-.04-.11-.05-.22-.05-.29v-6.85c0-.11.1-.16.28-.16.14,0,.4,0,.77.04s.73.06,1.12.11.72.11,1.01.18c.29.07.44.17.44.29v8.81s.05.12.16.17c.1.04.16.1.16.18,0,.05-.05.07-.12.12-.07.04-.18.06-.31.1s-.24.05-.37.07-.2.04-.26.05h0l-.05-.06h.02ZM8.42,115.64l-.18-.05s-.06-.05-.06-.06c0-.07.07-.12.22-.12h1.31c.48,0,1.01,0,1.64.01.62,0,1.28.01,1.98.04.7.01,1.33.04,1.92.05.59,0,1.09.01,1.49.04.4,0,.61.01.66.04l-.06.05s-.05,0-.1.01c-.05,0-.07.01-.1.01h-8.72ZM9.89,113.65c.23-.37.46-.72.67-1.09s.46-.72.73-1.07c.1-.14.22-.29.35-.48.14-.18.32-.35.54-.5.22-.16.43-.29.67-.42.24-.11.54-.17.86-.17.56,0,.98.11,1.26.31.28.2.42.44.42.77s-.17.65-.5.97-.76.62-1.26.89-1.07.48-1.69.65-1.2.24-1.73.24h-.11c-.06,0-.1,0-.14-.01-.04,0-.06-.01-.07-.04-.01-.01,0-.04.04-.06h-.04ZM17.96,119.57v-11.63s-.1-.12-.18-.23-.18-.16-.29-.16h-2.93s-.12,0-.24-.04c-.12-.01-.18-.05-.18-.1s.04-.07.1-.11.12-.06.18-.07c.48-.2.88-.42,1.22-.61.34-.2.6-.48.77-.82.01-.05.05-.1.06-.18s.06-.16.1-.23.07-.14.14-.18c.06-.05.12-.07.22-.07.48,0,.98.04,1.55.11.56.06,1.09.17,1.6.32s.92.34,1.26.56c.34.23.5.5.5.83v8.32c0,.11.1.17.28.17h4.12c.11,0,.17.04.17.1l-.11.11c-.1.05-.28.16-.54.32-.28.17-.56.34-.88.5s-.6.32-.86.46c-.26.14-.42.22-.44.22-.14,0-.26-.07-.35-.18s-.18-.23-.29-.37-.22-.26-.34-.37-.28-.17-.48-.17c-.06,0-.1.01-.12.06-.04.05-.05.07-.05.1v2.7s.07.14.24.2.24.12.24.2c0,.05-.04.07-.11.1-.07,0-.12,0-.17.04-.62.07-1.28.14-1.94.18-.66.05-1.31.07-1.94.07-.17,0-.24-.05-.24-.16h-.06Z"/>
          <path class="cls-1" d="M.98,101.66s.12-.17.29-.31c.18-.14.38-.29.61-.48.23-.18.43-.38.6-.6.17-.22.26-.44.26-.67v-4.52c0-.37.11-.73.34-1.1.23-.38.52-.73.89-1.09s.79-.66,1.28-.94c.49-.29,1.01-.5,1.55-.7.37-.14.76-.23,1.16-.31s.84-.11,1.27-.11c.62,0,1.06.1,1.28.26s.35.38.38.62,0,.5-.1.78-.14.52-.14.76.04.48.11.71c.07.23.17.48.28.72.11.24.2.49.28.72.07.24.11.48.11.72v.11s-.05.07-.12.07c-.18,0-.34-.06-.48-.2s-.28-.29-.43-.49-.32-.42-.52-.62c-.18-.23-.4-.44-.62-.62-.23-.2-.49-.37-.78-.49s-.62-.2-1.04-.2-.77.07-1.06.23c-.29.16-.52.34-.71.56-.18.22-.31.46-.4.7-.07.24-.12.46-.12.66,0,.31.07.61.24.9s.34.6.52.88c.18.29.35.59.52.88s.24.6.24.92c0,.37-.17.7-.49.97-.32.29-.76.54-1.26.73s-1.07.35-1.69.46c-.61.11-1.2.17-1.78.17h-.26c-.07,0-.16-.04-.23-.07h-.01l.04.02ZM22.64,93.8c.46,0,.82.05,1.07.16s.46.24.61.42.24.35.29.56c.05.2.06.42.06.6,0,.52-.14,1.01-.43,1.49s-.7.9-1.2,1.28-1.12.72-1.84,1.01-1.5.52-2.35.7c-.31.06-.62.11-.98.16-.34.05-.7.06-1.06.06h-.2c-.07,0-.12-.04-.12-.1,0,0,.07-.07.23-.18.16-.11.35-.26.6-.43.24-.17.5-.37.79-.56.29-.2.56-.4.82-.6.26-.2.48-.37.67-.52.2-.16.32-.26.38-.34.2-.24.32-.52.37-.82s.1-.59.14-.88.11-.59.18-.84c.07-.28.23-.52.49-.73.2-.16.42-.26.65-.32s.5-.1.83-.1h-.01v-.02Z"/>
          <path class="cls-1" d="M14.68,84.72c.29,0,1.27,0,2.94-.06s2.7-.07,3.05-.07h1.98c.38,0,.7.06.9.2.23.12.34.31.34.52,0,.26-.12.46-.38.62s-.56.28-.95.37c-.38.07-.78.14-1.21.18s-.82.06-1.18.06c-1.45,0-2.87-.11-4.24-.31-1.38-.2-2.76-.42-4.14-.66-1.38-.24-2.77-.46-4.14-.66-1.38-.2-2.8-.31-4.24-.31-.23,0-.44.04-.65.07-.18.05-.38.11-.56.18-.18.06-.38.14-.59.2s-.42.1-.62.11l-.11-.07c-.11-.11-.17-.23-.18-.34v-.35c0-.23.1-.48.28-.71.18-.23.42-.44.72-.65s.65-.35,1.04-.48c.4-.12.82-.18,1.22-.18.7,0,1.44.12,2.28.37.83.24,1.72.5,2.64.79.92.29,1.87.56,2.86.79.98.24,1.97.37,2.93.37h.01ZM15.82,83.89c.14.07.14.18,0,.32-.16.14-.73.05-1.73-.28-1.01-.32-1.97-.94-2.9-1.87s-1.38-1.94-1.38-3.05c0-.82.26-1.5.77-2.09s1.18-1.04,2.04-1.42c.86-.37,1.86-.62,3.01-.79s2.36-.26,3.65-.26c.28,0,.54.01.79.06.26.04.5.1.72.18.22.07.4.18.54.31s.2.28.2.46c0,.37-.22.62-.66.78s-1,.28-1.64.35-1.37.16-2.14.23c-.77.06-1.49.2-2.15.4-.66.2-1.21.49-1.66.89-.44.4-.66.97-.66,1.69,0,.62.11,1.2.31,1.72.22.52.55.98,1.03,1.38s1.1.73,1.88,1c0,0-.04,0-.04,0Z"/>
          <path class="cls-1" d="M.05,68.26l-.05-.1s.1-.06.18-.1c.1-.04.16-.05.18-.05h5.84c.1,0,.18-.04.31-.1s.23-.1.34-.1c.1,0,.16.05.22.12.05.07.12.12.22.12h6.02s.07,0,.16.04.1.06.1.11c0,.06-.12.2-.37.43-.24.22-.52.44-.83.67-.31.23-.6.44-.89.65-.28.2-.48.31-.59.34l-.16-.07c-.12-.18-.24-.37-.38-.59s-.28-.4-.44-.59c-.17-.18-.35-.32-.56-.44s-.46-.18-.73-.18c-.07,0-.14,0-.22.04s-.11.1-.11.18v1.72l.07.17s.11.07.18.16c.07.06.11.12.11.2-.05.05-.24.1-.56.16-.32.05-.71.1-1.12.14s-.83.07-1.21.11-.62.05-.72.05c-.12,0-.18-.06-.18-.17v-2.58c0-.18-.1-.26-.26-.26H.24l-.18-.07h-.01ZM4.26,52.82l.14-.07c.28,0,.56.1.86.26.29.18.56.37.83.56s.52.4.76.56.48.26.71.26h.37c.17,0,.26-.06.26-.16,0-.16,0-.34-.04-.59-.01-.24.05-.4.18-.49.07-.04.18-.06.35-.07s.34-.05.52-.07c.17-.04.34-.07.48-.14s.22-.14.22-.23v-.6c0-.28,0-.44-.06-.55-.11-.17-.24-.26-.4-.31-.16-.05-.31-.06-.46-.06h-.42c-.12,0-.18-.05-.18-.16,0-.07.01-.14.05-.18s.07-.1.11-.14c.22-.23.37-.48.49-.76.11-.28.22-.55.31-.83.04-.1.07-.23.12-.42.05-.18.14-.26.28-.26.31,0,.62.05.97.14.34.1.66.22.95.4s.54.4.72.65c.2.24.29.52.29.82v6.84c0,.14.1.26.28.32.18.07.28.17.28.31,0,.04-.11.14-.34.32-.22.18-.48.38-.73.56-.28.2-.52.38-.77.55s-.38.26-.43.26c-.14,0-.31-.11-.5-.31s-.34-.34-.43-.43c-.14-.17-.24-.28-.31-.35s-.22-.12-.46-.16c-.1-.01-.22-.04-.4-.04s-.35-.04-.54-.05-.35-.06-.49-.11-.22-.11-.24-.17c.04-.04.16-.05.35-.06h1.87c.17,0,.26-.07.26-.24v-1.82c0-.07-.05-.12-.14-.16-.1-.01-.17-.04-.26-.04-.2,0-.37.05-.54.16s-.32.22-.48.35c-.16.12-.32.24-.48.35s-.32.16-.5.16c-.11,0-.16-.05-.16-.12,0-.18.06-.35.18-.52s.18-.38.18-.65c0-.1-.1-.17-.28-.23s-.38-.1-.61-.12c-.22-.04-.44-.04-.67-.04h-.44c-.1,0-.14.05-.16.14s-.04.17-.04.23c0,.04.06.18.17.46.12.28.26.61.43,1,.17.38.37.79.56,1.25.2.43.4.84.59,1.22s.34.71.48.97.22.42.24.44c.11.1.31.14.62.12.31-.01.54-.04.71-.04.12,0,.23-.05.32-.16s.17-.22.24-.35c.07-.12.16-.24.24-.35s.24-.16.43-.16c.23,0,.43.05.62.16s.35.24.52.42.28.35.37.55c.1.2.14.38.14.59v5.2c0,.07-.1.16-.28.2-.18.06-.4.11-.62.14s-.46.05-.67.06h-.43c-.14,0-.22-.04-.22-.11v-.23c0-.07-.04-.17-.11-.24s-.24-.12-.54-.12c-.24,0-.48.05-.67.16-.2.1-.4.2-.61.32-.2.11-.42.22-.62.31s-.46.14-.72.14c-.1-.05-.16-.14-.18-.26-.04-.12-.07-.24-.11-.38-.04-.12-.07-.26-.11-.4s-.1-.24-.16-.32c-.07-.1-.18-.16-.35-.16h-1.03c-.14,0-.22-.06-.22-.16,0-.05.04-.11.1-.18s.14-.16.22-.22c.07-.07.16-.14.24-.2.07-.06.14-.11.17-.16l.07-.17v-.22c-.24-.34-.49-.67-.73-1.01s-.43-.7-.54-1.06l.07-.07c.18.07.35.18.54.31.19.13.37.24.55.37s.37.23.56.32c.2.1.4.16.62.16.11,0,.18-.06.24-.17.05-.11.11-.23.18-.37.07-.12.17-.24.28-.35s.28-.16.49-.16c.28,0,.52.11.71.31s.28.43.28.7c0,.14-.04.28-.11.42-.07.12-.14.26-.22.4-.07.14-.14.26-.2.38s-.1.24-.1.38c0,.29.16.52.44.71.31.18.59.26.84.26.17,0,.28-.04.32-.1.04-.06.05-.16.05-.28v-4.3c0-.12-.1-.2-.28-.2h-.42c-.66,0-1.31,0-1.98.04-.66.01-1.31.05-1.94.07-.22.04-.49.05-.83.05s-.6.01-.78.05c-.2.04-.29.12-.29.26,0,.76,0,1.49.05,2.22s.05,1.48.05,2.22c0,.1,0,.2.04.32.01.11,0,.22-.04.32-.04.12-.18.24-.43.32-.26.1-.54.14-.83.17-.31.04-.56,0-.82-.04s-.35-.12-.35-.24c0-1.16.04-2.33.1-3.48s.1-2.32.1-3.48c0-.04.01-.07.05-.16.04-.06.07-.1.14-.1.22,0,.43.06.67.18.24.12.49.26.73.4.26.14.52.28.82.4.28.12.6.18.95.18.07,0,.16,0,.26-.04s.16-.07.16-.17v-2.04c0-.17-.11-.26-.34-.28-.22-.04-.38-.04-.49-.04-.34,0-.66.06-.97.2-.31.12-.6.28-.89.43-.28.16-.55.31-.83.43-.26.14-.5.2-.73.2-.2,0-.29-.07-.29-.22,0-1.82.04-3.64.1-5.45s.1-3.6.1-5.45c0-.12.06-.2.17-.22.12-.01.23-.04.34-.04s.28,0,.49.04c.22.04.43.06.65.11.22.05.4.11.56.2.17.07.24.2.24.34v4.98c0,.2.1.29.29.29.07,0,.16-.06.24-.18.1-.12.18-.26.26-.42.07-.16.16-.31.22-.48.06-.17.11-.28.12-.34h0l.1.06v-.02ZM3.13,55.34l-.07.17v2.14c0,.17.1.24.26.24h1.45c.17,0,.26-.07.26-.24,0-.4-.04-.82-.07-1.21-.05-.4-.1-.79-.14-1.2l-.07-.07-.18-.1h-1.06l-.18.1-.18.17h-.02ZM12.95,61.97l.07-.07c.17.07.34.2.49.38.16.17.32.26.52.26s.29-.07.29-.24v-13.82c0-.17.07-.24.24-.24h.42c.59,0,1.01.1,1.31.26.29.17.5.35.66.55s.26.38.34.55.2.26.35.26h7.48c.1,0,.14.05.14.14s-.01.16-.05.2c-.01.05-.12.17-.31.34-.18.18-.4.38-.62.6s-.43.42-.61.56c-.18.17-.28.24-.29.24-.16,0-.28-.06-.35-.2-.07-.14-.17-.29-.24-.44-.1-.17-.18-.32-.31-.46-.12-.16-.28-.22-.46-.22-.12.05-.18.12-.18.24v4.57c0,.18.16.28.48.28s.67,0,1.06-.04.73-.05,1.06-.06c.32,0,.48.06.48.2l-.07.17c-.26.26-.5.54-.73.82s-.49.54-.77.77l-.14.04-.11-.07c-.11-.17-.23-.37-.38-.61s-.34-.4-.56-.44l-.18.05-.07.16v3.84c0,.17.16.24.46.26s.65.01,1.01,0,.71-.04,1.01-.04.46.06.46.2c0,.04-.07.12-.24.28-.16.16-.34.32-.52.49-.18.18-.37.35-.55.5-.18.17-.31.26-.35.32l-.14.05-.14-.07s-.06-.11-.14-.22-.16-.22-.23-.32c-.07-.11-.17-.2-.24-.28-.1-.07-.14-.12-.16-.12-.07.01-.14.06-.2.16s-.1.17-.1.23v3.42c0,.12.07.22.24.26s.37.06.6.05c.23,0,.49-.04.78-.05.29-.04.55-.05.79-.05s.43,0,.6.04c.16.04.24.1.24.18l-.07.17c-.1.06-.23.18-.42.35-.18.17-.38.34-.59.49-.2.17-.4.31-.6.44s-.32.23-.4.28l-.16-.07c-.22-.22-.4-.44-.56-.71s-.37-.49-.6-.67h-4.19c-.11,0-.22.05-.34.16s-.18.2-.18.29c0,.04.06.2.2.5s.29.66.48,1.06c.18.4.35.77.49,1.09.14.34.23.5.26.55.1.12.24.24.44.37.22.11.34.22.37.29-.07.06-.28.16-.62.28s-.72.23-1.14.34-.82.2-1.18.26-.61.11-.73.11c-.14,0-.22-.05-.24-.16-.1-.23-.14-.48-.14-.73s-.01-.5-.05-.73c-.1-.52-.18-1.04-.29-1.55s-.23-1.01-.37-1.5c-.16-.54-.32-1.07-.49-1.61s-.34-1.07-.52-1.6c-.1-.24-.18-.49-.28-.73s-.17-.49-.2-.73h0v-.11ZM17.29,65.28c0,.18.1.26.26.26h1.31c.17,0,.26-.1.26-.26v-3.98c0-.17-.1-.24-.26-.24h-1.31c-.17,0-.26.07-.26.24v3.98ZM17.54,60.71h1.09l.22-.07.18-.17.07-.17v-4.01c0-.17-.1-.28-.29-.34s-.4-.1-.62-.1-.43.04-.62.1-.29.14-.29.26v4.28c0,.17.1.24.26.24h0v-.04ZM17.54,55.58h1.31c.17,0,.26-.07.26-.24v-4.91c0-.18-.11-.28-.31-.31s-.37-.04-.52-.04h-.24c-.11,0-.22,0-.34.04s-.23.05-.31.07-.12.1-.12.17v4.98c0,.17.1.24.26.24h.01-.01ZM20.46,71l-.14-.07c-.11-.24-.22-.55-.34-.95-.12-.38-.24-.79-.34-1.21-.11-.42-.2-.83-.26-1.21-.07-.38-.11-.71-.11-.95l.11-.07c.2,0,.35.06.48.17l3.24,2.96c.1.07.18.14.28.18s.17.11.2.2l-.05.1c-.22.05-.44.12-.72.2-.26.1-.54.18-.83.28s-.56.18-.83.24-.49.11-.66.12h0l-.04.04v-.02Z"/>
          <path class="cls-1" d="M4.7,28.9c-.28.16-.48.17-.59.06s-.12-.24-.05-.43.17-.54.29-1.06c.12-.52.28-1.03.46-1.52s.42-.92.71-1.31c.28-.37.62-.55,1.1-.55s.86.1,1.12.29.48.44.61.77.22.66.24,1.01c.04.37.05.72.05,1.06,0,.48-.04.94-.07,1.43-.05.48-.11.95-.16,1.43-.1.83-.14,1.64-.16,2.44s-.04,1.61-.04,2.42c0,.54.05.97.14,1.31s.31.72.66,1.14c.31.4.7.82,1.2,1.21.44.35.72.6.86.71s.17.22.11.32c-.06.1-.14.14-.24.11s-.18-.04-.24-.04c-.38,0-.66.11-.83.32-.16.22-.24.49-.24.84,0,.2.05.38.14.59s.18.38.28.55c.1.18.18.37.26.56.07.2.12.42.12.61,0,.37-.11.72-.32,1.03s-.49.6-.83.84-.72.43-1.1.56-.78.2-1.18.2c-.11,0-.28,0-.49-.04s-.43-.06-.65-.1c-.22-.05-.4-.11-.59-.18-.18-.07-.28-.18-.29-.29l.07-.1c.23-.07.46-.17.7-.26s.44-.22.62-.35c.2-.14.35-.31.46-.49s.17-.42.17-.67c0-1.58-.37-2.74-1.1-3.46-.73-.71-1.98-1.07-3.73-1.07-.26,0-.49.04-.67.1s-.35.14-.49.22-.26.16-.37.22-.18.1-.22.1c-.1,0-.14-.06-.16-.17-.01-.11-.04-.2-.04-.24,0-.37.1-.76.26-1.14.17-.38.4-.73.67-1.04.28-.32.6-.56.98-.77s.78-.29,1.21-.29c.16,0,.31.04.43.1.07.05.14.11.18.16.05.06.11.12.18.18.11.1.23.22.38.35s.31.26.49.38c.18.11.35.22.54.29.17.07.34.12.5.12s.26-.07.26-.22c0-.55-.16-1.06-.43-1.55s-.66-.95-1.12-1.39c-.46-.46-.95-.9-1.48-1.37-.52-.46-1.01-.92-1.45-1.39s-.83-.95-1.12-1.45c-.31-.5-.44-1.04-.44-1.62,0-.18.01-.35.05-.52s.1-.32.17-.48.2-.28.34-.38c.16-.11.34-.16.54-.16.34,0,.59.1.76.29.17.2.32.42.46.65.14.23.49.78,1.04,1.62.55.84.92,1.43,1.1,1.75s.38.6.6.84.4.37.55.37c.11,0,.16-.07.16-.22v-2.92c0-.12-.05-.28-.14-.43-.1-.17-.2-.24-.34-.24-.1,0-.22.04-.4.1s-.34.16-.5.24h.01,0ZM11.94,40.22c-.14-.1-.17-.18-.1-.28s.24-.06.48.07c.24.14.66.31,1.27.52s1.18.32,1.7.32c.44,0,.79-.07,1.06-.24s.46-.37.61-.61c.14-.24.23-.52.28-.84s.06-.62.06-.97c0-.66-.05-1.32-.14-1.98s-.18-1.32-.31-1.98-.22-1.32-.32-1.97c-.1-.65-.16-1.31-.16-1.97,0-.54.05-1.04.16-1.55s.28-.92.52-1.31c.24-.37.56-.67,1.01-.89.43-.22,1-.32,1.69-.32.5,0,1.09.1,1.75.28s1.27.44,1.86.78,1.07.76,1.48,1.21c.4.48.6.97.6,1.49v.12l-.11.04c-.62-.32-1.26-.6-1.87-.82s-1.28-.32-2.03-.32c-.44,0-.78.05-1.01.16s-.42.24-.54.43c-.14.18-.22.42-.24.67s-.05.56-.05.89c0,.56.05,1.12.12,1.67s.17,1.1.26,1.66.18,1.1.26,1.66.12,1.09.12,1.67-.05,1.12-.16,1.6c-.11.49-.29.9-.56,1.26s-.65.62-1.1.84-1.04.31-1.78.31c-.5,0-1.01-.06-1.5-.17s-.97-.26-1.44-.43c-.2-.07-.4-.17-.6-.26s-.42-.2-.65-.34-.44-.28-.66-.43h.04v.05Z"/>
          <path class="cls-1" d="M14.27,16.12c.28.01,1.25,0,2.87-.1,1.62-.07,2.63-.11,2.98-.11h1.93c.37,0,.66.11.89.31s.34.48.34.82c0,.4-.12.73-.37.98-.24.24-.55.44-.92.56-.37.12-.77.22-1.18.28-.42.06-.79.1-1.15.1-1.42,0-2.8-.16-4.13-.48-1.33-.32-2.69-.66-4.03-1.03s-2.7-.72-4.03-1.03c-1.33-.32-2.71-.48-4.13-.48-.23,0-.43.05-.62.12-.18.07-.37.17-.55.28s-.37.2-.56.31-.4.16-.61.17l-.11-.12c-.11-.18-.17-.35-.17-.54v-.55c0-.37.1-.76.26-1.12.17-.37.42-.71.71-1.01s.62-.55,1.01-.73c.38-.2.78-.29,1.2-.29.67,0,1.42.18,2.22.56.82.38,1.67.79,2.56,1.26.9.46,1.82.89,2.77,1.26.95.38,1.91.56,2.86.56h-.01ZM15.37,14.82c.14.12.14.31,0,.5-.16.22-.72.06-1.69-.43-.98-.5-1.92-1.49-2.82-2.94s-1.34-3.05-1.34-4.79c0-1.27.24-2.38.73-3.29.49-.9,1.15-1.64,1.98-2.22.83-.59,1.81-1,2.93-1.26,1.12-.26,2.3-.4,3.56-.4.26,0,.52.04.78.1.26.06.49.16.71.28.22.12.38.29.52.48s.2.43.2.72c0,.59-.22,1-.65,1.25s-.97.43-1.6.55-1.33.24-2.08.35-1.44.31-2.09.61-1.18.78-1.61,1.42c-.43.62-.65,1.52-.65,2.65,0,.98.11,1.88.31,2.71.2.82.54,1.54,1.01,2.16.48.62,1.07,1.15,1.84,1.56h-.06.01Z"/>
        </g>
      </g>
    </g>
  </g>
</svg>