<?xml version="1.0" encoding="UTF-8"?>
<svg id="Layer_2" xmlns="http://www.w3.org/2000/svg" viewBox="0 0 75 22.69">
  <defs>
    <style>
      .cls-1 {
        fill: #f9f6f7;
      }
    </style>
  </defs>
  <g id="Layer_2-2" data-name="Layer_2">
    <g id="Layer_2-2">
      <g id="Layer_2-2-2" data-name="Layer_2-2">
        <g id="Layer_1-2">
          <path class="cls-1" d="M7.06,19.99c0,.85-.23,1.5-.68,1.94-.45.44-1.13.67-2.04.67-.15,0-.44,0-.88-.03h-.82c-.39,0-.71,0-.94.03l-.03-.24c.24,0,.41-.05.5-.11.09-.06.15-.17.15-.33,0-.09-.03-.27-.09-.57l-1.26-5.82c-.06-.29-.14-.51-.2-.65-.08-.14-.15-.23-.27-.27-.11-.05-.27-.08-.48-.09l-.03-.24c.24.03.64.05,1.15.05.17,0,.44,0,.79-.03h.56c.86,0,1.63.26,2.33.79.71.54,1.26,1.26,1.65,2.13.39.89.59,1.81.59,2.8h0ZM2.37,14.47c-.23,0-.38.05-.47.11-.08.08-.12.18-.12.33,0,.11.03.3.09.57l1.26,5.87c.06.27.12.5.2.64s.17.24.27.29c.12.06.27.08.47.08.73,0,1.24-.17,1.57-.51.32-.33.48-.86.48-1.57,0-1.04-.14-2.01-.44-2.89-.29-.88-.71-1.59-1.29-2.13-.56-.53-1.24-.79-2.04-.79h0s.02.02.02.02ZM12.79,17.68l.51,2.36c.09.42.23.71.36.86.15.15.36.24.65.26l.05.24c-.21-.03-.51-.05-.91-.05s-.74,0-.97.05l-.05-.24c.24,0,.44-.06.54-.15.12-.08.17-.24.17-.44,0-.15-.03-.33-.08-.53l-.56-2.48c-.2-.97-.5-1.71-.89-2.25-.39-.53-.92-.8-1.59-.8-.41,0-.71.12-.88.35-.17.24-.26.56-.26,1,0,.39.08.92.21,1.59l.59,2.72c.06.3.12.51.2.65s.17.23.27.27c.12.05.3.08.53.09l.06.24c-.32-.03-.71-.05-1.21-.05-.57,0-.98,0-1.24.05l-.06-.24c.24-.02.41-.05.5-.11s.15-.17.15-.35c0-.11-.03-.3-.08-.56l-.56-2.51c-.17-.76-.24-1.32-.24-1.71,0-.24.03-.45.09-.65s.15-.38.26-.56c.27-.42.77-.64,1.48-.64.39,0,.76.09,1.1.29.35.2.64.47.88.8.39.57.71,1.41.95,2.48h0s0,.02,0,.02ZM19.31,15.7l-.05-.17c-.09-.33-.2-.59-.27-.76-.09-.15-.2-.24-.32-.24-.11,0-.18.06-.23.18s-.08.29-.08.51v.27l.03.62c.03.48-.05.85-.23,1.06-.17.23-.45.39-.86.48l-.2.05c.76.14,1.36.39,1.8.79.44.39.65.89.65,1.48,0,.44-.15.79-.48,1.03-.32.26-.8.39-1.42.39h-.71c-.15-.03-.38-.03-.7-.03-.53,0-.92,0-1.18.05l-.05-.24c.24,0,.39-.06.48-.14.09-.08.15-.2.15-.35,0-.09-.03-.27-.08-.51l-1.03-4.66c-.06-.3-.14-.51-.2-.65s-.15-.23-.27-.27c-.12-.05-.29-.08-.51-.09l-.05-.24c.27.03.68.05,1.26.05.5,0,.89,0,1.19-.05l.05.24c-.24.02-.42.06-.51.12-.09.08-.14.18-.14.33,0,.12.03.32.08.56l.47,2.12h.18c.39-.02.68-.08.89-.18.21-.09.35-.24.42-.42s.12-.44.12-.74v-.32l-.05-.74c0-.32.05-.59.17-.82.14-.21.35-.32.65-.32s.54.12.73.35c.2.24.35.59.47,1.07l.05.15h-.23s-.02.03-.02.03ZM15.97,17.85l.5,2.3c.06.27.12.48.18.62.08.14.17.24.27.29.11.06.26.09.45.09.42,0,.74-.09.94-.27s.29-.47.29-.85c0-.53-.08-.95-.24-1.27-.15-.32-.41-.54-.77-.7-.35-.15-.83-.23-1.45-.23h-.17v.02ZM24.35,21.49h-.15l-3.87-5.9c-.42-.64-.77-1-1.06-1.09v-.24c.17.03.44.05.83.05s.68,0,.88-.05v.24c-.39.05-.57.21-.57.51,0,.24.12.56.38.94l.65,1h2.45l.15-1.47v-.24c0-.29-.06-.47-.2-.57s-.35-.17-.65-.18l-.05-.24c.24.03.64.05,1.15.05.44,0,.79,0,1.06-.05l.05.24c-.11,0-.21.08-.3.2-.09.12-.15.3-.17.56l-.59,6.23s.02.02.02.02ZM23.88,17.18h-2.28l1.97,2.98.3-2.98h.02ZM31.91,22.69c-.15,0-.27-.06-.35-.2-.08-.12-.12-.27-.12-.44,0-.24.08-.47.24-.67-.15-.09-.32-.15-.47-.2s-.36-.06-.59-.06c-.21,0-.45,0-.71.05-.24.05-.5.08-.73.12-.67.11-1.16.17-1.54.17-.45,0-.82-.09-1.09-.27-.33-.21-.5-.51-.5-.91,0-.18.05-.32.11-.44.08-.11.18-.15.32-.15.15,0,.27.06.35.2s.12.3.12.48c0,.12-.02.24-.05.36s-.08.23-.12.32c.2.14.5.2.91.2.24,0,.65-.05,1.21-.14l-1.3-5.47c-.08-.32-.15-.54-.24-.7-.08-.15-.2-.26-.35-.32s-.35-.11-.64-.12l-.05-.24c.32.03.79.05,1.41.05s1.1,0,1.44-.05l.05.24c-.3,0-.51.05-.64.12s-.18.21-.18.41c0,.15.03.35.09.59l1.26,5.32c.3-.05.57-.06.82-.06.29,0,.54.03.74.08.21.06.41.15.59.29.3.27.44.56.44.86,0,.15-.05.29-.12.39-.08.11-.18.17-.32.17h0s.02.02.02.02ZM32.8,15.5l1.01,4.66c.06.3.12.51.2.65s.17.23.27.27c.12.05.3.08.53.09l.05.24c-.3-.03-.71-.05-1.23-.05-.56,0-.95,0-1.23.05l-.05-.24c.24-.02.41-.05.5-.11s.15-.17.15-.35c0-.11-.03-.3-.08-.56l-1.01-4.66c-.06-.29-.14-.51-.2-.65-.08-.14-.15-.23-.27-.27-.11-.05-.27-.08-.5-.09l-.05-.24c.29.03.71.05,1.23.05s.92,0,1.23-.05l.05.24c-.24.02-.42.05-.51.11s-.14.17-.14.33c0,.09.03.27.09.57,0,0-.05,0-.05,0ZM39.23,14.81c.59.47,1.04,1.06,1.38,1.78.32.73.48,1.44.48,2.15,0,.94-.21,1.63-.65,2.12s-1,.71-1.72.71-1.39-.24-1.97-.71-1.04-1.06-1.38-1.78c-.32-.73-.48-1.44-.48-2.15,0-.94.21-1.63.65-2.12s1.01-.71,1.72-.71,1.39.24,1.97.71ZM38.63,21.36c.44,0,.79-.2,1.04-.59s.39-1.01.39-1.86c0-.76-.12-1.48-.35-2.19s-.56-1.29-.97-1.72c-.42-.45-.88-.67-1.39-.67-.44,0-.79.2-1.06.59-.24.39-.38,1.03-.38,1.86,0,.76.12,1.48.35,2.18.24.71.56,1.3.98,1.74.42.45.88.67,1.39.67h-.02ZM48.84,21.93c-.39,0-.73-.24-1.04-.76-.45-.73-1-2.5-1.62-5.32l-1.83,5.54c-.23-.03-.48-.05-.79-.05-.36,0-.65,0-.86.05l-.05-.24c.32,0,.51-.06.6-.12.11-.08.15-.21.14-.44-.64-3.39-1.18-5.52-1.63-6.35-.24-.39-.5-.6-.82-.6h-.02c.09.11.17.23.23.35s.09.26.09.39-.03.23-.09.32c-.06.09-.15.14-.27.14-.17,0-.32-.09-.41-.26-.11-.17-.15-.36-.15-.57,0-.41.2-.6.57-.6.24,0,.42.06.57.2.15.12.32.3.47.54.44.67,1.01,2.84,1.69,6.5l2.19-6.43h.21c.38,1.86.71,3.36,1.03,4.48.32,1.12.62,1.92.91,2.42.12.18.23.33.35.44s.27.15.44.17h.03c-.09-.09-.17-.21-.23-.35-.06-.14-.09-.26-.09-.39s.03-.24.09-.33c.06-.08.15-.12.27-.12.17,0,.32.09.41.26.11.18.15.38.15.59,0,.18-.05.32-.14.44s-.24.17-.44.17h0l.02-.03h0ZM18.38,7.82l-.79-3.68c-.2-.97-.5-1.71-.89-2.25-.39-.53-.92-.8-1.59-.8-.41,0-.7.12-.88.35-.17.24-.26.56-.26,1,0,.39.08.92.21,1.59l.85,3.89c.06.3.12.51.2.65.08.14.17.23.27.27.12.05.3.08.53.09l.06.24c-.32-.03-.71-.05-1.21-.05-.57,0-.98,0-1.24.05l-.06-.24c.24-.02.41-.05.5-.11.09-.06.15-.17.15-.35,0-.11-.03-.3-.08-.56l-.8-3.69c-.15-.71-.24-1.29-.24-1.71,0-.26.03-.47.08-.67.06-.18.15-.36.26-.53.3-.42.8-.64,1.48-.64.39,0,.76.09,1.1.29s.64.47.88.8c.39.57.71,1.41.95,2.48l.76,3.54c.06.3.12.53.2.67.08.15.18.27.3.33.14.08.32.12.53.12l.05.24c-.23-.03-.53-.05-.91-.05-.42,0-.76,0-.97.05l-.05-.24c.26,0,.44-.06.56-.15.11-.08.17-.24.17-.45,0-.15-.03-.32-.08-.51h0s-.05.03-.05.03ZM25.5,7.79c-.45-.73-1-2.51-1.62-5.32l-1.83,5.54c-.23-.03-.48-.05-.79-.05-.36,0-.65,0-.86.05l-.05-.24c.32,0,.51-.06.6-.12.11-.08.15-.21.14-.44-.64-3.39-1.18-5.52-1.63-6.35-.24-.39-.5-.6-.82-.6h-.02c.09.11.17.23.23.35s.09.26.09.39-.03.23-.09.32c-.06.09-.15.14-.27.14-.17,0-.32-.09-.41-.26s-.15-.36-.15-.57c0-.41.2-.6.57-.6.24,0,.42.06.57.2.15.12.32.3.47.54.44.67,1.01,2.84,1.69,6.5l2.19-6.43h.21c.38,1.86.71,3.36,1.03,4.48.32,1.12.62,1.92.91,2.42.12.18.23.33.35.44s.27.15.44.17h.03c-.09-.09-.17-.21-.23-.35-.06-.14-.09-.26-.09-.39s.03-.24.09-.33c.06-.08.15-.12.27-.12.17,0,.32.09.41.26.11.18.15.38.15.59,0,.18-.05.32-.14.44s-.24.17-.44.17c-.39,0-.73-.24-1.04-.76,0,0,.02-.03.02-.03ZM32.97,5.41c0,.85-.23,1.5-.68,1.94-.45.44-1.13.67-2.04.67-.15,0-.44,0-.88-.03h-.82c-.39,0-.71,0-.94.03l-.03-.24c.24,0,.41-.05.5-.11s.15-.17.15-.33c0-.14-.03-.33-.09-.57l-1.01-4.66c-.06-.29-.14-.51-.2-.65-.08-.14-.15-.23-.27-.27-.11-.05-.27-.08-.48-.09l-.03-.24c.24.03.64.05,1.15.05.17,0,.44,0,.79-.03h.56c.86,0,1.63.18,2.28.57s1.15.94,1.51,1.63c.35.68.53,1.47.53,2.33h0v.02ZM28.52,1.06c-.23,0-.38.03-.47.09-.08.08-.12.18-.12.33,0,.09.03.29.09.59l1.01,4.69c.06.27.12.5.2.64s.17.24.27.29c.12.06.27.08.47.08.73,0,1.24-.17,1.57-.51.32-.33.48-.86.48-1.57,0-1.42-.29-2.56-.86-3.39-.57-.83-1.45-1.24-2.65-1.24h0v.02ZM38.91,4.26l.51,2.36c.09.42.23.71.36.86s.36.24.65.26l.05.24c-.21-.03-.51-.05-.91-.05s-.74,0-.97.05l-.05-.24c.24,0,.44-.06.54-.15.12-.08.17-.24.17-.44,0-.15-.03-.33-.08-.53l-.56-2.48c-.2-.97-.5-1.71-.89-2.25-.39-.53-.92-.8-1.59-.8-.41,0-.71.12-.88.35-.17.24-.26.56-.26,1,0,.39.08.92.21,1.59l.59,2.72c.06.3.12.51.2.65.08.14.17.23.27.27.12.05.3.08.53.09l.06.24c-.32-.03-.71-.05-1.21-.05-.57,0-.98,0-1.24.05l-.06-.24c.24-.02.41-.05.5-.11s.15-.17.15-.35c0-.11-.03-.3-.08-.56l-.56-2.51c-.17-.76-.24-1.32-.24-1.71,0-.24.03-.45.09-.65s.15-.38.26-.56c.27-.42.77-.64,1.48-.64.39,0,.76.09,1.1.29s.64.47.88.8c.39.57.71,1.41.95,2.48h0s0,.02,0,.02ZM45.15,3.34h-.23c-.24-.79-.53-1.35-.89-1.69-.36-.33-.79-.51-1.27-.51h-.6c-.24,0-.42.03-.51.08-.09.06-.14.17-.14.35,0,.08.03.27.09.56l1.03,4.66c.06.3.12.51.2.65.08.14.17.23.27.27.12.05.3.08.53.09l.05.24c-.3-.03-.71-.05-1.23-.05-.56,0-.95,0-1.23.05l-.05-.24c.24-.02.41-.05.5-.11s.15-.17.15-.33c0-.09-.03-.27-.09-.57l-1.03-4.66c-.06-.3-.14-.51-.2-.65s-.15-.23-.27-.27-.29-.08-.51-.09l-.05-.24c.6.03,1.51.05,2.69.05,1.09,0,1.85,0,2.3-.05.09.64.17,1.09.24,1.38.05.23.09.44.15.67s.11.35.12.41h0s-.03.03-.03.03ZM50.54,1.85l-.59,6.23h-.15l-3.87-5.9c-.42-.64-.77-1-1.06-1.09v-.24c.17.03.44.05.83.05s.68,0,.88-.05v.24c-.39.05-.57.21-.57.51,0,.24.12.56.38.94l.65,1h2.45l.15-1.47v-.24c0-.29-.06-.47-.2-.57s-.35-.17-.65-.18l-.05-.24c.24.03.64.05,1.15.05.44,0,.79,0,1.06-.05l.05.24c-.11,0-.21.08-.3.2s-.15.3-.17.56h0s.02.02.02.02ZM49.49,3.78h-2.28l1.97,2.98.3-2.98s.02,0,.02,0ZM57.52,9.27c-.15,0-.27-.06-.35-.2-.08-.12-.12-.27-.12-.44,0-.24.08-.47.24-.67-.15-.09-.32-.15-.47-.2s-.36-.06-.59-.06c-.21,0-.45,0-.71.05-.24.05-.5.08-.73.12-.67.11-1.16.17-1.54.17-.45,0-.82-.09-1.09-.27-.33-.21-.5-.51-.5-.91,0-.18.05-.32.11-.44.08-.11.18-.15.32-.15.15,0,.27.06.35.2s.12.3.12.48c0,.12-.02.24-.05.36s-.08.23-.12.32c.2.14.5.2.91.2.24,0,.65-.05,1.21-.14l-1.3-5.47c-.08-.32-.15-.54-.24-.7-.08-.15-.2-.26-.35-.32s-.35-.11-.64-.12l-.05-.24c.32.03.79.05,1.41.05s1.1,0,1.44-.05l.05.24c-.3,0-.51.05-.64.12-.12.08-.18.21-.18.41,0,.15.03.35.09.59l1.26,5.32c.3-.05.57-.06.82-.06.29,0,.54.03.74.08.21.06.41.15.59.29.3.27.44.56.44.86,0,.15-.05.29-.12.39-.08.11-.18.17-.32.17h0s.02.02.02.02ZM58.41,2.1l1.01,4.66c.06.3.12.51.2.65.08.14.17.23.27.27.12.05.3.08.53.09l.05.24c-.3-.03-.71-.05-1.23-.05-.56,0-.95,0-1.23.05l-.05-.24c.24-.02.41-.05.5-.11s.15-.17.15-.35c0-.11-.03-.3-.08-.56l-1.01-4.66c-.06-.29-.14-.51-.2-.65-.08-.14-.15-.23-.27-.27-.11-.05-.27-.08-.5-.09l-.05-.24c.29.03.71.05,1.23.05s.92,0,1.23-.05l.05.24c-.24.02-.42.05-.51.11s-.14.17-.14.33c0,.09.03.27.09.57,0,0-.05,0-.05,0ZM64.82,1.41c.59.47,1.04,1.06,1.38,1.78.32.73.48,1.44.48,2.15,0,.94-.21,1.63-.65,2.12s-1,.71-1.72.71-1.39-.24-1.97-.71c-.59-.47-1.04-1.06-1.38-1.78-.32-.73-.48-1.44-.48-2.15,0-.94.21-1.63.65-2.12s1.01-.71,1.72-.71,1.39.24,1.97.71ZM64.23,7.96c.44,0,.79-.2,1.04-.59s.39-1.01.39-1.86c0-.76-.12-1.48-.35-2.19-.23-.71-.56-1.29-.97-1.72-.42-.45-.88-.67-1.39-.67-.44,0-.79.2-1.06.59-.24.39-.38,1.03-.38,1.86,0,.76.12,1.48.35,2.18.24.71.56,1.3.98,1.74.42.45.88.67,1.39.67h-.02ZM73.4,7.79c-.45-.73-1-2.51-1.62-5.32l-1.83,5.54c-.23-.03-.48-.05-.79-.05-.36,0-.65,0-.86.05l-.05-.24c.32,0,.51-.06.6-.12.11-.08.15-.21.14-.44-.64-3.39-1.18-5.52-1.63-6.35-.24-.39-.5-.6-.82-.6h-.02c.09.11.17.23.23.35s.09.26.09.39-.03.23-.09.32c-.06.09-.15.14-.27.14-.17,0-.32-.09-.41-.26-.11-.17-.15-.36-.15-.57,0-.41.2-.6.57-.6.24,0,.42.06.57.2.15.12.32.3.47.54.44.67,1.01,2.84,1.69,6.5l2.19-6.43h.21c.38,1.86.71,3.36,1.03,4.48.32,1.12.62,1.92.91,2.42.12.18.23.33.35.44.12.11.27.15.44.17h.03c-.09-.09-.17-.21-.23-.35s-.09-.26-.09-.39.03-.24.09-.33c.06-.08.15-.12.27-.12.17,0,.32.09.41.26.11.18.15.38.15.59,0,.18-.05.32-.14.44s-.24.17-.44.17c-.39,0-.73-.24-1.04-.76,0,0,.02-.03.02-.03Z"/>
        </g>
      </g>
    </g>
  </g>
</svg>