<?xml version="1.0" encoding="UTF-8" standalone="no"?>
<svg
  id="Layer_2"
  viewBox="0 0 50 85.41"
  version="1.1"
  sodipodi:docname="DateAndVenue.svg"
  inkscape:version="1.3.2 (091e20e, 2023-11-25)"
  xmlns:inkscape="http://www.inkscape.org/namespaces/inkscape"
  xmlns:sodipodi="http://sodipodi.sourceforge.net/DTD/sodipodi-0.dtd"
  xmlns="http://www.w3.org/2000/svg"
  xmlns:svg="http://www.w3.org/2000/svg">
  <sodipodi:namedview
    id="namedview60"
    pagecolor="#ffffff"
    bordercolor="#000000"
    borderopacity="0.25"
    inkscape:showpageshadow="2"
    inkscape:pageopacity="0.0"
    inkscape:pagecheckerboard="0"
    inkscape:deskcolor="#d1d1d1"
    inkscape:zoom="8.9096435"
    inkscape:cx="28.676793"
    inkscape:cy="56.792396"
    inkscape:window-width="1392"
    inkscape:window-height="1257"
    inkscape:window-x="669"
    inkscape:window-y="44"
    inkscape:window-maximized="0"
    inkscape:current-layer="Layer_1-2" />
  <defs
    id="defs1">
    <style
      id="style1">
      .cls-1 {
      fill: none;
      stroke: #c9cac9;
      stroke-miterlimit: 10;
      stroke-width: .37px;
      }

      .cls-2 {
      fill: #f0efef;
      }
    </style>
  </defs>
  <g
    id="g60"
    data-name="Layer_2">
    <g
      id="Layer_2-2">
      <g
        id="Layer_2-2-2"
        data-name="Layer_2-2">
        <g
          id="Layer_1-2">
          <g
            id="_Layer_1-2-2">
            <g
              id="g59">
              <path
                class="cls-2"
                d="M49.02,78.13h-.9v.43h1.74s.06.01.06.04-.02.05-.11.11c-.2.16-.23.17-.26.17-.02,0-.06-.02-.24-.22h-1.19v.3c.11.04.13.07.13.1,0,.06-.04.07-.46.12.02-.11.03-.2.03-.49v-.04h-1.34c-.12,0-.22,0-.36.04l.04-.16c.11.01.21.02.31.02h1.34v-.43h-.81c-.14.07-.2.1-.35.16.03-.19.03-.37.03-.67,0-.59-.02-.76-.02-.86,0-.07.04-.1.13-.1.13,0,.18.04.18.13v.06h.66c-.39-.53-.96-.94-1.59-1.21-.02,0,0-.07.02-.06.76.22,1.29.51,1.77,1.06-.02-.47-.04-.98-.04-1.1,0-.08.04-.11.14-.11.13,0,.2.04.2.13,0,.13-.02.76-.04,1.25.22-.34.46-.58.69-.75.21-.16.46-.29.69-.39.09-.04.17-.06.21-.06.03,0,.06.02.09.1.04.1.1.16.21.19.02,0,.02.04,0,.04-.31.02-.64.11-.96.26-.34.16-.63.36-.86.66h.87v-.07c0-.09.03-.11.13-.11.13,0,.19.04.19.13,0,.08-.02.32-.02.84v.3c.09.06.1.07.1.1,0,.02,0,.06-.07.1-.12.1-.15.11-.19.11s-.05-.02-.17-.13h.01ZM47.82,78.02v-.47h-.86v.47h.86ZM47.82,77.44v-.5h-.86v.5h.86ZM48.12,78.02h.93v-.47h-.93v.47ZM48.12,77.45h.93v-.5h-.93v.5Z"
                id="path41" />
              <path
                class="cls-2"
                d="M46.14,71.74h0s.01-.07.04-.06c.51.22.79.45,1.09.81.14,0,.18.02.18.06s-.1.1-.39.23c-.04-.09-.07-.17-.13-.26-.18-.26-.47-.57-.79-.79h0ZM49.29,74.6h-1.14v.36c.11.05.14.08.14.1,0,.05-.06.09-.48.13.02-.15.02-.21.02-.29v-.31h-1.34c-.11,0-.21,0-.34.03l.04-.16c.11.01.19.02.3.02h3.36s.06.01.06.04-.02.05-.11.12c-.2.16-.23.18-.26.18-.02,0-.06-.02-.26-.24h0ZM48.16,72.58h0v.53h.74v-.09c0-.09.03-.13.13-.13.11,0,.18.04.18.13,0,.06-.01.24-.01.64v.19c.1.06.11.08.11.11,0,.02-.02.05-.09.1-.14.11-.16.13-.19.13-.02,0-.04-.01-.18-.15h-1.74c-.14.09-.21.11-.36.16.02-.16.02-.28.02-.5,0-.47-.02-.59-.02-.68s.04-.11.14-.11c.13,0,.18.04.18.15v.04h.75v-1.21s-.02-.06-.06-.06c-.14,0-.31,0-.56.04-.02,0-.02-.05,0-.06.33-.07.44-.13.46-.26,0-.08.02-.09.08-.09.07,0,.17.03.24.06.11.06.16.12.16.28,0,.1,0,.25,0,.76h.03ZM48.91,73.21h-1.8v.74h1.8v-.74ZM49.2,72.02h0c.13-.26.16-.29.25-.29s.16.08.16.19c0,.26-.37.59-.96.84-.02,0-.06-.04-.04-.06.28-.22.46-.44.59-.69h0Z"
                id="path42" />
              <path
                class="cls-2"
                d="M48.12,69.98h1.72s.06.01.06.04-.02.06-.11.13c-.21.16-.25.19-.28.19-.02,0-.06-.02-.26-.26h-1.19c.01.13.02.26.03.4s.01.29.01.45c.11.05.14.07.14.11,0,.06-.07.09-.49.14.01-.12.02-.19.02-.29,0-.3-.01-.57-.04-.81h-1.19c-.13,0-.24,0-.39.03l.04-.16c.14.01.22.02.35.02h1.19c-.06-.46-.16-.8-.31-1.09-.28-.51-.68-.92-1.32-1.25-.02,0,0-.07.03-.06.64.21,1.06.51,1.39.93.28.35.44.76.54,1.39.11-.62.31-1.1.59-1.46.19-.25.49-.54.79-.72.11-.07.18-.11.22-.11.02,0,.05.02.06.06.06.13.1.19.22.22.02,0,.03.04,0,.04-.38.14-.76.34-1.06.64-.38.36-.62.79-.76,1.39h-.01Z"
                id="path43" />
              <path
                class="cls-2"
                d="M48.61,65.92h-1.4c-.12,0-.19.01-.32.04l.04-.16c.1.02.18.03.29.03h1.39c-.14-.17-.27-.3-.48-.47-.07.01-.16.03-.31.05.01-.12.01-.16.01-.37h-1.37c-.11,0-.19,0-.31.03l.04-.16c.11.02.19.02.28.02h1.36v-.9s-.02-.07-.07-.07c-.12,0-.3.01-.58.04-.02,0-.03-.05,0-.06.37-.08.46-.14.48-.26.01-.07.02-.09.09-.09.13,0,.23.04.3.1s.11.13.11.26,0,.23-.01.64v.33h1.71s.06.01.06.04-.02.05-.11.13c-.21.16-.24.18-.26.18-.02,0-.06-.02-.25-.25h-1.14v.15c.11.04.13.07.13.1,0,.02,0,.04-.02.04.24.12.41.23.66.42.14.01.19.03.19.07,0,.02-.02.05-.08.11-.16.13-.18.15-.21.15-.02,0-.05-.01-.19-.14h-.01ZM46.68,66.34h2.74c-.04-.16-.09-.27-.16-.4,0-.01.02-.04.04-.03.14.09.26.18.34.27.03.03.04.04.09.04.13,0,.16.02.16.09,0,.02-.02.06-.1.13-.17.16-.19.18-.22.18s-.06-.02-.19-.16h-.69c.19.15.38.33.54.51.14,0,.18.02.18.07,0,.04-.07.1-.41.24-.03-.1-.07-.21-.13-.34-.09-.16-.19-.33-.29-.48h-1.91c0,.06-.01.11-.02.18,0,.02-.04.02-.04,0-.03-.26-.1-.39-.3-.49-.1-.06-.13-.1-.13-.17,0-.09.07-.16.17-.16.19,0,.34.21.34.55h-.01ZM47.05,66.72h0c.04-.16.07-.19.16-.19.1,0,.17.09.17.18,0,.19-.19.38-.54.49-.02,0-.04-.02-.02-.04.1-.11.18-.27.22-.44h0ZM47.93,66.77h0c.03-.16.06-.19.15-.19.1,0,.18.08.18.19,0,.19-.19.39-.54.51-.02,0-.04-.02-.03-.04.11-.13.2-.3.24-.47h0Z"
                id="path44" />
              <path
                class="cls-2"
                d="M47.9,61.39h0-.48v.49h1.04s.06.01.06.04-.02.06-.1.11c-.19.15-.21.17-.24.17-.02,0-.06-.02-.22-.22h-.54v.55h.86s.06,0,.06.04-.02.06-.1.11c-.16.14-.19.16-.22.16s-.06-.02-.21-.21h-.38v.49c.11.04.14.07.14.1,0,.06-.06.08-.45.12.01-.12.02-.27.02-.71h-.44c.06.09.1.19.14.29.11.03.15.05.15.09s-.04.06-.4.15c-.01-.11-.04-.26-.09-.39-.07-.23-.19-.47-.33-.65-.01-.02.02-.06.04-.04.18.14.31.28.42.44h.5v-.55h-.74c-.11,0-.19,0-.3.03l.04-.15c.1.01.17.02.26.02h.74v-.49h-.47c-.13.08-.19.11-.33.16.01-.15.01-.29.01-.59,0-.52-.01-.69-.01-.81,0-.07.03-.1.12-.1.12,0,.18.04.18.13v1.11h.51c0-.98-.02-1.39-.02-1.54,0-.09.04-.13.14-.13.12,0,.18.05.18.14,0,.16,0,.59,0,1.52h.51v-.86s-.02-.06-.06-.06c-.06,0-.15,0-.31.02-.02,0-.02-.04,0-.05.23-.06.26-.09.28-.21,0-.04.02-.06.07-.06.08,0,.17.04.22.09.06.04.09.1.09.21,0,.09,0,.19,0,.63v.21c.09.06.11.09.11.11,0,.02-.02.05-.07.1-.13.1-.15.11-.18.11-.02,0-.04,0-.17-.13h-.02ZM48.95,62.23h0v.56c.11.04.13.07.13.1,0,.06-.06.08-.44.11.02-.22.02-.4.02-1.09,0-.83-.02-1.14-.02-1.23s.04-.11.13-.11c.13,0,.19.04.19.13,0,.13-.02.58-.02,1.51h.02ZM49.71,61.65v1.41c.1.04.13.07.13.11,0,.06-.04.07-.45.11.02-.15.03-.22.03-.69v-2.51s-.02-.07-.07-.07c-.13,0-.33.01-.56.04-.02,0-.03-.05,0-.06.36-.07.45-.13.47-.25.02-.07.04-.09.1-.09.08,0,.18.03.24.07.1.06.14.12.14.29s-.02.48-.02,1.63h0Z"
                id="path45" />
              <path
                class="cls-2"
                d="M46.93,55.82h0v2.12c.1.04.12.07.12.1,0,.04-.04.06-.24.09.21.29.37.61.51.99.11.02.16.04.16.09s-.15.11-.46.2c-.01-.13-.04-.26-.09-.39-.16-.53-.51-1.15-.89-1.57-.02-.02.02-.06.05-.04.21.16.39.34.54.51v-.79c0-.95-.02-1.24-.02-1.32s.06-.11.14-.11c.11,0,.18.05.18.14h0ZM49.29,58.66h-1.23c.07.15.14.3.2.47.12.01.18.04.18.09s-.13.1-.47.19c-.01-.1-.04-.2-.06-.3-.14-.54-.44-1.13-.77-1.54-.02-.02.03-.06.06-.04.36.3.61.63.83,1.03h.18v-1.74c0-.66-.02-.92-.02-1,0-.09.04-.13.14-.13.14,0,.2.04.2.15,0,.14,0,.54-.01,1.07h1.2s.06.01.06.04-.02.06-.09.11c-.17.14-.2.16-.23.16-.02,0-.06-.02-.22-.21h-.71v.75h1.19s.06.01.06.04-.02.06-.1.11c-.16.13-.2.15-.22.15s-.06-.02-.22-.21h-.7v.69h1.32s.06.01.06.04c0,.02-.02.05-.1.12-.19.15-.21.16-.24.16-.02,0-.06-.02-.24-.23h-.02Z"
                id="path46" />
              <path
                class="cls-2"
                d="M48.16,53.11h1.64s.06.01.06.04-.02.06-.1.11c-.19.16-.21.18-.24.18-.02,0-.06-.02-.24-.22h-.54v.61h.83s.06.01.06.04-.02.06-.09.11c-.17.14-.19.16-.22.16-.02,0-.06-.02-.22-.21h-.36v.21c.11.04.13.08.13.1,0,.04-.04.07-.44.11.02-.14.02-.24.02-.38v-.06h-.67v.22c.1.04.13.08.13.1,0,.04-.04.07-.44.11.01-.14.02-.25.02-.38v-.06h-.31c-.11,0-.19,0-.31.02l.04-.16c.11.02.18.03.27.03h.31v-.61h-.79c.06.42.09.85.09,1.27h2.46v-.02c0-.1.02-.13.12-.13.11,0,.19.04.19.11,0,.08,0,.17,0,.46v.13c.1.06.11.09.11.12,0,.02-.02.04-.09.1-.13.11-.16.13-.19.13-.02,0-.04-.01-.18-.16h-2.39c-.1.06-.21.1-.39.18.02-.21.02-.34.02-.83,0-.69-.02-1.14-.07-1.53-.07-.49-.18-.84-.36-1.24-.01-.02.04-.06.06-.03.3.38.45.72.55,1.16.01.06.02.11.04.18h.58v-.96c-.11,0-.23-.01-.35-.02h-.19c.1-.41.1-.42.15-.42.04,0,.07.04.1.13.64.13.96.23,1.47.44.02,0,0,.06-.02.06-.29-.06-.58-.11-.87-.15v.94h.49c.19-.42.4-.7.64-.9.21-.18.48-.34.76-.42.1-.03.16-.04.2-.04s.06.02.08.09c.04.13.08.16.19.19.02,0,.02.04,0,.04-.4.04-.78.14-1.07.31-.07.04-.14.09-.2.13.21.07.36.14.56.26.14-.02.19,0,.19.04,0,.04-.1.11-.33.25-.02-.06-.06-.11-.13-.18-.09-.1-.21-.21-.36-.31-.18.15-.31.34-.42.54h0v.03h.04ZM49.28,54.58h-2.46v.54h2.46v-.54ZM48.47,53.82v-.61h-.67v.61h.67Z"
                id="path47" />
              <path
                class="cls-2"
                d="M48.09,48.55h-.69c.13.2.26.38.69.79.39.38.74.57.74,1.08,0,.39-.3.71-.81.71s-.84-.42-.84-.68c0-.11.07-.15.16-.15.14,0,.29.07.29.18,0,.13.01.23.04.29.06.12.16.22.36.22.26,0,.4-.24.4-.56,0-.37-.19-.59-.54-1.01s-.49-.64-.74-1.02c-.02-.04-.03-.04-.03-.1s0-.07.05-.07c.27.01.51.01.78.01s.5,0,.77-.01c.07.21.16.5.21.71,0,.02,0,.04-.04.05-.04.01-.06,0-.06-.02-.06-.13-.12-.23-.22-.31-.08-.06-.16-.09-.5-.09h-.01Z"
                id="path48" />
              <path
                class="cls-2"
                d="M48.03,47.18c-.54,0-.86-.59-.86-1.51s.33-1.47.86-1.47.86.58.86,1.49-.32,1.48-.86,1.48h0ZM48.03,47.05c.36,0,.44-.54.44-1.36s-.09-1.36-.44-1.36-.46.53-.46,1.36.1,1.36.46,1.36Z"
                id="path49" />
              <path
                class="cls-2"
                d="M48.09,40.65h-.69c.13.2.26.38.69.79.39.38.74.57.74,1.08,0,.39-.3.71-.81.71s-.84-.42-.84-.68c0-.11.07-.15.16-.15.14,0,.29.07.29.18,0,.13.01.23.04.29.06.12.16.22.36.22.26,0,.4-.24.4-.56,0-.37-.19-.59-.54-1.01s-.49-.64-.74-1.02c-.02-.04-.03-.04-.03-.1s0-.07.05-.07c.27.01.51.01.78.01s.5,0,.77-.01c.07.21.16.5.21.71,0,.02,0,.04-.04.05-.04.01-.06,0-.06-.02-.06-.13-.12-.23-.22-.31-.08-.06-.16-.09-.5-.09h-.01Z"
                id="path50" />
              <path
                class="cls-2"
                d="M48.53,36.97h0v.18c.12,0,.26,0,.39,0,.02,0,.04,0,.04.02l.04.13s0,.03-.02.03c-.15,0-.29-.02-.43-.02v.94c.02.37.02.7.03,1.02,0,.04-.01.04-.03.04l-.28-.07c-.41-.65-.73-1.15-1.13-1.81-.03-.05-.04-.1-.04-.16,0-.09,0-.1.05-.1h1.04v-.18c0-.21,0-.32-.06-.41-.03-.06-.17-.07-.28-.09-.03,0-.04,0-.04-.06s0-.06.04-.06c.15,0,.36.02.51.02s.35,0,.5-.02c.02,0,.04,0,.04.06s-.01.06-.04.06c-.14.01-.27.02-.31.1-.04.1-.04.14-.04.4h.01ZM48.18,38.16h0v-.86h-.89c-.06,0-.06.02-.04.06.29.51.62,1.04.94,1.54-.01-.27-.02-.44-.02-.74h0Z"
                id="path51" />
              <path
                class="cls-2"
                d="M43.57,62.12h-.33l-.04-.11c-.04.12-.15.16-.26.16-.56,0-1.06-.71-1.06-1.24,0-.31.15-.44.44-.44.18,0,.34.09.49.31-.06-.26.14-.31.36-.31.69,0,1.06.63,1.06,1.07,0,.76-.58,1.27-1.44,1.27s-1.69-.64-1.69-1.62c0-.86.59-1.41,1.52-1.41.5,0,.79.14,1.11.37.02,0,.02.03,0,.06-.03.03-.06.02-.08.01-.28-.19-.61-.3-1.01-.3-.68,0-1.27.42-1.27,1.28s.61,1.49,1.41,1.49,1.19-.53,1.19-1.15c0-.56-.38-.95-.74-.95-.11,0-.16.04-.16.12,0,.08.04.2.1.35.07.26.29.83.37,1.06h.01ZM42.24,60.85h0c0,.41.31,1.21.74,1.21.09,0,.13-.05.13-.18,0-.11-.04-.27-.12-.52-.22-.67-.48-.76-.59-.76s-.16.09-.16.26h0Z"
                id="path52" />
              <path
                class="cls-2"
                d="M42.48,56.48h-.56c-.11,0-.19,0-.32.03l.04-.16c.12.01.2.02.3.02h.54c0-.49-.02-.75-.02-.81,0-.09.04-.11.14-.11.13,0,.21.04.21.14s0,.33-.01.79h.83s.06,0,.06.04-.02.06-.1.11c-.18.14-.2.16-.23.16s-.06-.02-.21-.21h-.35c0,.54-.02,1.09-.03,1.62.19-.48.38-.79.59-1.06.23-.29.54-.56.84-.75.09-.06.15-.08.18-.08s.04.02.06.06c.06.15.11.2.23.22.02,0,.02.04,0,.04-.39.13-.82.36-1.14.66-.26.24-.5.55-.7.98h1.63s.06.01.06.04-.02.05-.11.12c-.2.16-.24.18-.26.18s-.06-.02-.24-.24h-1.12v.67c.11.06.14.09.14.11,0,.06-.08.09-.47.11.02-.15.02-.29.02-.75v-.15h-1.24c-.13,0-.21,0-.36.03l.04-.16c.13.01.21.02.33.02h1.07c-.3-.74-.91-1.5-1.59-1.96-.02-.02.02-.06.04-.06.71.34,1.32.95,1.74,1.68,0-.46-.01-.91-.02-1.36h0v.02h.01Z"
                id="path53" />
              <path
                class="cls-2"
                d="M41.61,53.1h0c-.16-.02-.34-.06-.5-.07.3.31.51.63.74,1.03.12,0,.15.03.15.06s-.1.11-.38.22c-.02-.09-.07-.22-.13-.36-.13-.31-.34-.67-.53-.96-.04,0-.08,0-.11,0h-.15c.07-.3.11-.39.16-.39.04,0,.06.03.08.13.27.09.47.15.64.24-.15-.54-.44-.99-.88-1.37-.02-.02.01-.07.04-.06.69.41,1.01.89,1.2,1.64.1.02.11.04.11.09s-.02.06-.39.17c0-.11-.02-.24-.06-.36h.01ZM41.31,53.92h0c0,.1-.06.21-.16.3.2.21.35.43.5.7.12,0,.16.03.16.07s-.1.1-.41.19c0-.07-.03-.18-.07-.31-.06-.17-.14-.37-.26-.59-.08.06-.18.11-.3.16-.02,0-.04-.02-.02-.04.14-.14.23-.29.28-.49.04-.16.06-.19.14-.19s.15.08.15.18h-.01ZM42.35,52.23h0v1.09h.54v-.07c0-.09.03-.11.11-.11.12,0,.17.04.17.13s-.02.38-.02,1.05v.44c.09.06.1.07.1.1s-.01.06-.07.1c-.11.09-.13.1-.16.1s-.05-.01-.16-.12h-.5c-.12.07-.18.1-.33.16.02-.36.02-.76.02-1.29v-1.63s-.08,0-.11-.02c-.08,0-.15-.01-.24-.02.11-.38.13-.4.16-.4.04,0,.06.04.09.14.36.13.66.27.95.44,0-.02,0-.04.01-.07.04-.21.07-.26.16-.26s.15.08.15.19c0,.26-.22.57-.54.79-.02.01-.06-.01-.04-.04.1-.15.19-.32.24-.54-.18-.06-.36-.11-.56-.16h.02ZM42.89,54.19h-.54v.64h.54v-.64ZM42.35,54.09h.54v-.67h-.54v.67ZM43.71,52.53h0v2.31h.49c-.09-.46-.18-.84-.31-1.15.27-.3.38-.63.38-.96,0-.15-.01-.23-.06-.26-.02-.02-.06-.04-.1-.04-.09,0-.18,0-.33.02-.02,0-.02-.05,0-.06.23-.06.27-.11.29-.23,0-.06.03-.07.06-.07.11,0,.21.06.28.13.09.09.13.24.13.44,0,.39-.16.72-.56,1.04.19.3.39.67.51,1.04.09.02.11.04.11.08,0,.03-.02.06-.08.13-.11.11-.15.14-.19.14-.02,0-.04-.02-.16-.15h-.44c-.13.07-.19.1-.33.16.02-.15.02-.72.02-1.65s-.01-1.61-.01-1.85c0-.07.04-.11.12-.11.11,0,.18.04.18.13s0,.31,0,.91h0Z"
                id="path54" />
              <path
                class="cls-2"
                d="M43.49,49.65h0c-.21-.04-.39-.09-.66-.14-.04.21-.07.39-.11.59.29.06.51.11.73.16.1.02.17.04.24.04.05,0,.07.04.07.09,0,.04-.04.09-.1.1-.06.02-.15.03-.22.03-.05,0-.11-.02-.16-.06-.04-.04-.07-.05-.1-.06-.16-.04-.33-.09-.51-.13-.04.19-.06.33-.06.43,0,.06.01.09.03.11.02.02.04.06.04.09,0,.06-.05.1-.15.14-.11.04-.21.06-.32.06-.06,0-.12-.02-.16-.05-.02-.01-.06-.04-.06-.07,0-.02.01-.04.04-.04.1,0,.18-.01.21-.04.03-.03.05-.06.06-.11.04-.15.07-.31.13-.59-.18-.04-.36-.09-.51-.11-.1-.02-.18-.04-.24-.04-.11,0-.19.04-.28.09-.02.01-.04.02-.06.02s-.04-.02-.04-.06c0-.04.04-.1.15-.19.09-.09.18-.13.24-.13.04,0,.07,0,.1.04.04.03.13.04.22.06.13.04.27.07.44.11.04-.2.07-.39.11-.59-.3-.07-.59-.14-.84-.2-.11-.03-.21-.05-.27-.05s-.13.02-.24.08c-.02,0-.05.03-.06.03-.02,0-.03-.02-.03-.05,0-.04.02-.08.05-.11.11-.12.29-.22.38-.22.06,0,.09.01.13.06.02.02.07.05.19.09.21.07.44.13.71.19.06-.35.14-.82.19-1.15.02-.12.06-.18.15-.17.09,0,.16.06.16.13,0,.06-.02.14-.04.21-.06.29-.14.67-.21,1.04.4.09.61.11.81.14.11.01.22.01.29.01.11,0,.16.04.16.11,0,.05-.04.09-.1.12-.06.03-.15.04-.24.05-.07,0-.12,0-.16-.04-.03-.02-.07-.05-.13-.06h0l.02.03Z"
                id="path55" />
              <path
                class="cls-2"
                d="M43.85,46.9h0c-.22-.06-.5-.14-.81-.23-.02.13-.05.22-.06.33,0,.04,0,.07,0,.09s0,.04.02.06.02.04.02.07c0,.04-.02.07-.15.13-.08.04-.16.07-.24.07-.06,0-.09-.01-.14-.05s-.07-.06-.07-.09.01-.03.04-.03h.1s.07-.01.09-.04c.02-.04.04-.09.06-.16.04-.12.07-.26.11-.44-.21-.06-.41-.11-.59-.16-.1-.02-.16-.03-.21-.03-.06,0-.11.04-.19.1-.02.02-.03.03-.04.03s-.03-.03-.03-.06c0-.09.04-.15.14-.24.1-.1.14-.11.19-.11.04,0,.07.02.09.04.02.02.06.04.12.07.15.06.33.11.56.19.02-.09.04-.19.07-.31.07-.31.15-.67.23-1.03.01-.09.07-.1.15-.1.06,0,.11.06.11.11s-.02.11-.04.19c-.07.28-.15.56-.23.86-.03.13-.06.23-.09.34.29.09.66.19.89.26.02,0,.04,0,.02-.03-.19-.27-.35-.45-.51-.63-.02-.02-.04-.04-.04-.06s.02-.04.04-.04.04,0,.07.03c.23.16.48.39.66.56.04.03.06.04.11.05.07,0,.1.04.1.09s-.03.09-.13.16c-.13.09-.18.11-.22.11-.04,0-.06-.01-.1-.05-.03-.03-.06-.06-.11-.07h.02,0Z"
                id="path56" />
              <path
                class="cls-2"
                d="M41.56,44.45h0s-.07,0-.09,0c-.02,0-.04-.02-.04-.04s.01-.04.04-.05c.1-.06.21-.15.3-.26.09-.1.13-.19.18-.27.06-.1.09-.14.18-.14s.16.07.16.18c0,.15-.06.26-.25.37-.12.08-.29.15-.46.19h0ZM44.23,44.3h0s-.04.06-.06.06c-.01,0-.04-.01-.06-.04-.26-.33-.62-.66-1-.98-.36-.3-.75-.58-1.11-.78-.09-.06-.16-.07-.19-.07-.07,0-.11.04-.2.14-.03.04-.04.04-.06.04-.03,0-.04-.04-.04-.1,0-.09.05-.19.18-.33.09-.09.17-.16.27-.16.06,0,.1.03.13.09.02.02.06.06.1.09.39.29.75.56,1.09.88.36.34.69.7.93,1.09.02.03.03.06.03.07h0Z"
                id="path57" />
              <path
                class="cls-2"
                d="M41.92,40.95h0c.1-.07.14-.11.14-.16,0-.06-.04-.11-.11-.21-.11-.14-.26-.29-.41-.44-.2-.18-.43-.35-.69-.51-.04-.02-.06-.04-.06-.06,0-.04.02-.06.06-.06.02,0,.06,0,.1.04.26.1.51.26.75.42.21.15.39.31.56.48.05.04.08.07.11.09.07.02.1.06.1.12,0,.1-.11.21-.24.3-.1.07-.19.1-.24.1-.05,0-.1-.02-.1-.05t.05-.06h0ZM44.04,39.9c.13,0,.18.07.18.21,0,.16-.19.41-.38.57-.21.18-.44.31-.67.41-.06.02-.09.04-.11.04-.02,0-.05-.01-.05-.05,0-.02.02-.04.07-.08.16-.11.3-.24.43-.38.14-.16.24-.33.36-.57.05-.1.1-.16.19-.16h0ZM44.02,41.93c-.21,0-.38-.16-.38-.36s.17-.36.38-.36.38.16.38.36-.17.36-.38.36ZM44.02,41.8c.14,0,.24-.1.24-.24s-.11-.24-.24-.24-.24.11-.24.24.11.24.24.24Z"
                id="path58" />
              <path
                class="cls-2"
                d="M43.86,36.8h0c-.25.23-.61.41-.99.57.21.25.42.54.54.71.05.08.11.13.18.15.09.04.1.05.1.09,0,.05-.03.1-.15.19-.09.08-.13.1-.19.1-.04,0-.07-.02-.1-.04-.04-.03-.07-.06-.14-.06-.31-.04-.66-.07-.98-.1-.12,0-.26-.02-.33-.02-.09,0-.16.06-.28.16-.02.02-.06.05-.07.05-.02,0-.04-.04-.04-.09,0-.07.04-.13.11-.23.09-.11.19-.19.26-.19.06,0,.09.02.12.04.04.02.09.04.17.06.42.09.9.14,1.09.16.02,0,.04,0,.04,0s0-.02-.02-.04c-.25-.41-.48-.72-.79-1.03-.41-.43-.86-.72-1.35-.99-.02-.01-.04-.04-.04-.06s.02-.05.04-.05c.03,0,.07,0,.11.03.24.09.54.23.81.41.29.19.56.41.81.69.41-.24.71-.51.99-.9.06-.09.12-.13.18-.13.1,0,.17.06.17.17s-.11.24-.26.38h0Z"
                id="path59" />
            </g>
          </g>
          <g
            id="g51"
            transform="matrix(0.10673918,0,0,-0.10673918,0.01974675,85.396543)">
            <g
              id="g2">
              <path
                class="cls-1"
                d="m 0.6,120.35 c -0.4,0 -0.6,-0.32 -0.6,-0.95 0,-0.54 0.17,-0.95 0.51,-1.22 0.46,-0.27 1.3,-0.48 2.53,-0.61 1.23,-0.14 2.48,-0.32 3.77,-0.54 1.28,-0.23 2.41,-0.54 3.38,-0.95 0.97,-0.41 1.48,-1.02 1.54,-1.84 0.57,-8.7 0.83,-17.43 0.77,-26.18 C 12.44,79.31 12.41,70.58 12.41,61.88 V 36.45 c 0,-1 0.01,-1.99 0.04,-2.99 0.03,-1 -0.01,-2.04 -0.13,-3.13 -0.29,-1.72 -0.76,-2.63 -1.41,-2.72 -0.66,-0.09 -1.41,-0.04 -2.27,0.14 -0.17,0 -0.57,0.05 -1.2,0.14 -0.63,0.09 -1.27,0.18 -1.93,0.27 -0.66,0.09 -1.5,0.18 -2.53,0.27 C 2.64,28.25 2.44,28.02 2.38,27.75 2.32,27.48 2.3,27.07 2.3,26.53 c 0,-0.27 0.11,-0.54 0.34,-0.82 0.23,-0.27 0.5,-0.5 0.81,-0.68 0.31,-0.18 0.64,-0.34 0.98,-0.48 0.34,-0.14 0.57,-0.25 0.68,-0.34 2.23,-1.09 4.46,-1.99 6.72,-2.72 2.25,-0.73 4.52,-1.5 6.8,-2.31 1.03,-0.27 2.07,-0.54 3.12,-0.82 1.06,-0.27 2.07,-0.36 3.04,-0.27 0.23,0 0.44,0.07 0.64,0.2 0.2,0.14 0.3,0.43 0.3,0.88 v 93.85 c 0,1.27 0.44,2.2 1.33,2.79 0.88,0.59 1.91,1 3.08,1.22 1.17,0.23 2.34,0.39 3.51,0.48 1.17,0.09 2.04,0.32 2.61,0.68 0.34,0.27 0.53,0.7 0.56,1.29 0.03,0.59 -0.16,0.88 -0.56,0.88 H 0.6 Z"
                id="path1"
                style="fill:#efefef" />
              <path
                class="cls-1"
                d="m 53.92,120.35 c -0.4,0 -0.6,-0.32 -0.6,-0.95 0,-0.54 0.17,-0.95 0.51,-1.22 0.46,-0.27 1.3,-0.48 2.53,-0.61 1.23,-0.14 2.48,-0.32 3.77,-0.54 1.28,-0.23 2.41,-0.54 3.38,-0.95 0.97,-0.41 1.48,-1.02 1.54,-1.84 0.57,-8.7 0.83,-17.43 0.77,-26.18 C 65.76,79.31 65.73,70.58 65.73,61.88 V 36.45 c 0,-1 0.01,-1.99 0.04,-2.99 0.03,-1 -0.01,-2.04 -0.13,-3.13 -0.29,-1.72 -0.76,-2.63 -1.41,-2.72 -0.66,-0.09 -1.41,-0.04 -2.27,0.14 -0.17,0 -0.57,0.05 -1.2,0.14 -0.63,0.09 -1.27,0.18 -1.93,0.27 -0.66,0.09 -1.5,0.18 -2.53,0.27 -0.34,-0.18 -0.54,-0.41 -0.6,-0.68 -0.06,-0.27 -0.08,-0.68 -0.08,-1.22 0,-0.27 0.11,-0.54 0.34,-0.82 0.23,-0.27 0.5,-0.5 0.81,-0.68 0.31,-0.18 0.64,-0.34 0.98,-0.48 0.34,-0.14 0.57,-0.25 0.68,-0.34 2.23,-1.09 4.46,-1.99 6.72,-2.72 2.25,-0.73 4.52,-1.5 6.8,-2.31 1.03,-0.27 2.07,-0.54 3.12,-0.82 1.06,-0.27 2.07,-0.36 3.04,-0.27 0.23,0 0.44,0.07 0.64,0.2 0.2,0.14 0.3,0.43 0.3,0.88 v 93.85 c 0,1.27 0.44,2.2 1.33,2.79 0.88,0.59 1.91,1 3.08,1.22 1.17,0.23 2.34,0.39 3.51,0.48 1.17,0.09 2.04,0.32 2.61,0.68 0.34,0.27 0.53,0.7 0.56,1.29 0.03,0.59 -0.16,0.88 -0.56,0.88 H 53.89 Z"
                id="path2"
                style="fill:#efefef" />
            </g>
            <g
              id="g4">
              <path
                class="cls-1"
                d="m 137.57,247.56 c -3.86,-0.34 -7.11,-1.88 -9.75,-4.61 -3,-3.16 -5.38,-7.16 -7.12,-11.98 -1.75,-4.83 -2.96,-10.15 -3.63,-15.96 -0.67,-5.81 -1.01,-11.41 -1.01,-16.79 0,-2.56 0.11,-5.55 0.32,-8.97 0.21,-3.42 0.6,-6.96 1.15,-10.64 0.55,-3.67 1.29,-7.28 2.21,-10.83 0.92,-3.54 2.05,-6.73 3.4,-9.55 1.35,-2.82 2.94,-5.1 4.78,-6.86 1.84,-1.75 3.98,-2.63 6.44,-2.63 h 3.22 v 3.08 c -1.04,0.43 -1.99,1.24 -2.85,2.44 -1.29,1.79 -2.33,4.1 -3.13,6.92 -0.8,2.82 -1.39,6.02 -1.79,9.61 -0.4,3.59 -0.71,7.11 -0.92,10.57 -0.22,3.46 -0.32,6.71 -0.32,9.74 v 14.29 c 0,2.99 0.11,6.22 0.32,9.68 0.21,3.46 0.52,6.99 0.92,10.57 0.4,3.59 1.01,6.81 1.84,9.68 0.83,2.86 1.85,5.24 3.08,7.11 0.86,1.11 1.81,1.88 2.85,2.31 v 2.82 z m 15.35,-14.87 -29.42,-63.45 2.85,-2.56 29.42,63.45 z m -8.64,-83.95 c 2.45,0 4.63,0.86 6.53,2.56 1.9,1.71 3.54,4 4.92,6.86 1.38,2.86 2.56,6.07 3.54,9.61 0.98,3.55 1.76,7.16 2.34,10.83 0.58,3.67 1,7.22 1.24,10.64 0.24,3.42 0.37,6.41 0.37,8.97 0,3.59 -0.14,7.31 -0.41,11.15 -0.27,3.84 -0.75,7.65 -1.42,11.41 -0.68,3.76 -1.64,7.33 -2.9,10.7 -1.26,3.38 -2.84,6.39 -4.73,9.04 -1.29,1.71 -2.73,3.23 -4.32,4.55 -1.59,1.33 -3.31,2.2 -5.15,2.63 -0.74,0.17 -1.5,0.21 -2.3,0.13 l -1.1,-0.13 V 245 c 1.53,-0.43 2.76,-1.41 3.68,-2.95 1.29,-2.14 2.27,-4.49 2.94,-7.05 0.8,-2.65 1.36,-5.53 1.7,-8.65 0.34,-3.12 0.57,-6.26 0.69,-9.42 0.12,-3.16 0.18,-6.34 0.18,-9.55 v -9.16 c 0,-1.79 0.01,-4.21 0.05,-7.24 0.03,-3.03 -0.02,-6.3 -0.14,-9.81 -0.12,-3.5 -0.37,-7.01 -0.74,-10.51 -0.37,-3.5 -0.95,-6.69 -1.75,-9.55 -0.8,-2.86 -1.84,-5.19 -3.13,-6.99 -1.04,-1.45 -2.33,-2.31 -3.86,-2.56 v -2.82 z"
                id="path3"
                style="fill:#efefef" />
              <path
                class="cls-1"
                d="m 195.4,240.64 c -0.06,0.26 -0.15,0.69 -0.28,1.28 -0.12,0.6 -0.26,1.2 -0.41,1.79 -0.15,0.6 -0.35,1.11 -0.6,1.54 -0.25,0.43 -0.49,0.64 -0.74,0.64 h -10.39 c -0.74,0 -0.95,-0.38 -0.64,-1.15 l 2.3,-6.79 c 0.49,-1.37 1.03,-2.69 1.61,-3.97 0.58,-1.28 1.12,-2.56 1.61,-3.85 l 4.69,-12.05 c 2.82,-7.35 5.68,-14.59 8.6,-21.73 2.91,-7.13 5.81,-14.38 8.69,-21.73 0.31,-0.77 0.58,-1.58 0.83,-2.44 0.24,-0.85 0.55,-1.62 0.92,-2.31 0.24,-0.43 0.69,-0.98 1.33,-1.67 0.64,-0.68 0.9,-1.32 0.78,-1.92 -0.06,-0.17 -0.2,-0.51 -0.41,-1.03 -0.21,-0.51 -0.41,-0.77 -0.6,-0.77 H 175 c -0.67,0 -1.01,-0.43 -1.01,-1.28 v -12.3 c 0,-0.85 0.34,-1.28 1.01,-1.28 h 42.02 c 0.67,0 1.01,0.43 1.01,1.28 v 7.18 c 0,0.77 -0.03,1.24 -0.09,1.41 l -22.53,81.13 z"
                id="path4"
                style="fill:#efefef" />
            </g>
            <g
              id="g6">
              <path
                class="cls-1"
                d="m 9.38,510.95 c -0.43,0 -0.64,-0.3 -0.64,-0.9 0,-0.51 0.18,-0.9 0.55,-1.15 0.49,-0.26 1.39,-0.45 2.71,-0.58 1.32,-0.13 2.67,-0.3 4.04,-0.51 1.38,-0.21 2.59,-0.51 3.63,-0.9 1.04,-0.38 1.59,-0.96 1.65,-1.73 0.61,-8.2 0.89,-16.43 0.83,-24.67 -0.06,-8.25 -0.09,-16.47 -0.09,-24.67 v -23.97 c 0,-0.94 0.01,-1.88 0.05,-2.82 0.03,-0.94 -0.02,-1.92 -0.14,-2.95 -0.31,-1.62 -0.81,-2.48 -1.52,-2.56 -0.71,-0.08 -1.52,-0.04 -2.44,0.13 -0.18,0 -0.61,0.04 -1.29,0.13 -0.67,0.09 -1.36,0.17 -2.07,0.26 -0.71,0.09 -1.61,0.17 -2.71,0.26 -0.37,-0.17 -0.58,-0.38 -0.64,-0.64 -0.06,-0.26 -0.09,-0.64 -0.09,-1.15 0,-0.26 0.12,-0.51 0.37,-0.77 0.24,-0.26 0.54,-0.47 0.87,-0.64 0.34,-0.17 0.69,-0.32 1.06,-0.45 0.37,-0.13 0.61,-0.23 0.74,-0.32 2.39,-1.03 4.8,-1.88 7.22,-2.56 2.42,-0.68 4.86,-1.41 7.31,-2.18 1.1,-0.26 2.22,-0.51 3.36,-0.77 1.13,-0.26 2.22,-0.34 3.26,-0.26 0.24,0 0.47,0.06 0.69,0.19 0.21,0.13 0.32,0.41 0.32,0.83 v 88.44 c 0,1.2 0.47,2.07 1.42,2.63 0.95,0.56 2.05,0.94 3.31,1.15 1.26,0.21 2.51,0.36 3.77,0.45 1.26,0.09 2.19,0.3 2.8,0.64 0.37,0.26 0.57,0.66 0.6,1.22 0.03,0.56 -0.17,0.83 -0.6,0.83 H 9.38 Z"
                id="path5"
                style="fill:#efefef" />
              <path
                class="cls-1"
                d="m 66.66,510.95 c -0.43,0 -0.64,-0.3 -0.64,-0.9 0,-0.51 0.18,-0.9 0.55,-1.15 0.49,-0.26 1.39,-0.45 2.71,-0.58 1.32,-0.13 2.67,-0.3 4.04,-0.51 1.38,-0.21 2.59,-0.51 3.63,-0.9 1.04,-0.38 1.59,-0.96 1.65,-1.73 0.61,-8.2 0.89,-16.43 0.83,-24.67 -0.06,-8.25 -0.09,-16.47 -0.09,-24.67 v -23.97 c 0,-0.94 0.01,-1.88 0.05,-2.82 0.03,-0.94 -0.02,-1.92 -0.14,-2.95 -0.31,-1.62 -0.81,-2.48 -1.52,-2.56 -0.71,-0.08 -1.52,-0.04 -2.44,0.13 -0.18,0 -0.61,0.04 -1.29,0.13 -0.67,0.09 -1.36,0.17 -2.07,0.26 -0.71,0.09 -1.61,0.17 -2.71,0.26 -0.37,-0.17 -0.58,-0.38 -0.64,-0.64 -0.06,-0.26 -0.09,-0.64 -0.09,-1.15 0,-0.26 0.12,-0.51 0.37,-0.77 0.24,-0.26 0.54,-0.47 0.87,-0.64 0.34,-0.17 0.69,-0.32 1.06,-0.45 0.37,-0.13 0.61,-0.23 0.74,-0.32 2.39,-1.03 4.8,-1.88 7.22,-2.56 2.42,-0.68 4.86,-1.41 7.31,-2.18 1.1,-0.26 2.22,-0.51 3.36,-0.77 1.13,-0.26 2.22,-0.34 3.26,-0.26 0.24,0 0.47,0.06 0.69,0.19 0.21,0.13 0.32,0.41 0.32,0.83 v 88.44 c 0,1.2 0.47,2.07 1.42,2.63 0.95,0.56 2.05,0.94 3.31,1.15 1.26,0.21 2.51,0.36 3.77,0.45 1.26,0.09 2.19,0.3 2.8,0.64 0.37,0.26 0.57,0.66 0.6,1.22 0.03,0.56 -0.17,0.83 -0.6,0.83 H 66.65 Z"
                id="path6"
                style="fill:#efefef" />
            </g>
            <g
              id="g8">
              <path
                class="cls-1"
                d="m 125.44,643.33 c -0.43,0 -0.64,-0.3 -0.64,-0.9 0,-0.51 0.18,-0.9 0.55,-1.15 0.49,-0.26 1.39,-0.45 2.71,-0.58 1.32,-0.13 2.67,-0.3 4.04,-0.51 1.38,-0.21 2.59,-0.51 3.63,-0.9 1.04,-0.38 1.59,-0.96 1.65,-1.73 0.61,-8.2 0.89,-16.43 0.83,-24.67 -0.06,-8.25 -0.09,-16.47 -0.09,-24.67 v -23.97 c 0,-0.94 0.01,-1.88 0.05,-2.82 0.03,-0.94 -0.02,-1.92 -0.14,-2.95 -0.31,-1.62 -0.81,-2.48 -1.52,-2.56 -0.71,-0.08 -1.52,-0.04 -2.44,0.13 -0.18,0 -0.61,0.04 -1.29,0.13 -0.67,0.09 -1.36,0.17 -2.07,0.26 -0.71,0.09 -1.61,0.17 -2.71,0.26 -0.37,-0.17 -0.58,-0.38 -0.64,-0.64 -0.06,-0.26 -0.09,-0.64 -0.09,-1.15 0,-0.26 0.12,-0.51 0.37,-0.77 0.24,-0.26 0.54,-0.47 0.87,-0.64 0.34,-0.17 0.69,-0.32 1.06,-0.45 0.37,-0.13 0.61,-0.23 0.74,-0.32 2.39,-1.03 4.8,-1.88 7.22,-2.56 2.42,-0.68 4.86,-1.41 7.31,-2.18 1.1,-0.26 2.22,-0.51 3.36,-0.77 1.13,-0.26 2.22,-0.34 3.26,-0.26 0.24,0 0.47,0.06 0.69,0.19 0.21,0.13 0.32,0.41 0.32,0.83 v 88.44 c 0,1.2 0.47,2.07 1.42,2.63 0.95,0.56 2.05,0.94 3.31,1.15 1.26,0.21 2.51,0.36 3.77,0.45 1.26,0.09 2.19,0.3 2.8,0.64 0.37,0.26 0.57,0.66 0.6,1.22 0.03,0.56 -0.17,0.83 -0.6,0.83 h -38.34 z"
                id="path7"
                style="fill:#efefef" />
              <path
                class="cls-1"
                d="m 182.71,643.33 c -0.43,0 -0.64,-0.3 -0.64,-0.9 0,-0.51 0.18,-0.9 0.55,-1.15 0.49,-0.26 1.39,-0.45 2.71,-0.58 1.32,-0.13 2.67,-0.3 4.04,-0.51 1.38,-0.21 2.59,-0.51 3.63,-0.9 1.04,-0.38 1.59,-0.96 1.65,-1.73 0.61,-8.2 0.89,-16.43 0.83,-24.67 -0.06,-8.25 -0.09,-16.47 -0.09,-24.67 v -23.97 c 0,-0.94 0.01,-1.88 0.05,-2.82 0.03,-0.94 -0.02,-1.92 -0.14,-2.95 -0.31,-1.62 -0.81,-2.48 -1.52,-2.56 -0.71,-0.08 -1.52,-0.04 -2.44,0.13 -0.18,0 -0.61,0.04 -1.29,0.13 -0.67,0.09 -1.36,0.17 -2.07,0.26 -0.71,0.09 -1.61,0.17 -2.71,0.26 -0.37,-0.17 -0.58,-0.38 -0.64,-0.64 -0.06,-0.26 -0.09,-0.64 -0.09,-1.15 0,-0.26 0.12,-0.51 0.37,-0.77 0.24,-0.26 0.54,-0.47 0.87,-0.64 0.34,-0.17 0.69,-0.32 1.06,-0.45 0.37,-0.13 0.61,-0.23 0.74,-0.32 2.39,-1.03 4.8,-1.88 7.22,-2.56 2.42,-0.68 4.86,-1.41 7.31,-2.18 1.1,-0.26 2.22,-0.51 3.36,-0.77 1.13,-0.26 2.22,-0.34 3.26,-0.26 0.24,0 0.47,0.06 0.69,0.19 0.21,0.13 0.32,0.41 0.32,0.83 v 88.44 c 0,1.2 0.47,2.07 1.42,2.63 0.95,0.56 2.05,0.94 3.31,1.15 1.26,0.21 2.51,0.36 3.77,0.45 1.26,0.09 2.19,0.3 2.8,0.64 0.37,0.26 0.57,0.66 0.6,1.22 0.03,0.56 -0.17,0.83 -0.6,0.83 H 182.7 Z"
                id="path8"
                style="fill:#efefef" />
            </g>
            <line
              class="cls-2"
              x1="125.9"
              y1="113.97"
              x2="78.830002"
              y2="193.69"
              id="line8"
              style="fill:#efefef;stroke:#c9caca;stroke-width:2px;stroke-miterlimit:10" />
            <line
              class="cls-2"
              x1="138.92"
              y1="498.48999"
              x2="91.849998"
              y2="578.21002"
              id="line9"
              style="fill:#efefef;stroke:#c9caca;stroke-width:2px;stroke-miterlimit:10" />
            <line
              class="cls-2"
              x1="102.36"
              y1="339.28"
              x2="102.36"
              y2="373.92999"
              id="line10"
              style="fill:#efefef;stroke:#c9caca;stroke-width:2px;stroke-miterlimit:10" />
            <g
              id="g15">
              <path
                class="cls-3"
                d="M 158.36,22.08 V 0.12 h 4.69 v 0.32 c -3.16,0.24 -3.25,0.5 -3.25,2.46 v 16.37 c 0,1.99 0.09,2.25 3.25,2.49 v 0.32 z"
                id="path10"
                style="fill:#efefef;stroke:#ededed;stroke-width:0.25px;stroke-miterlimit:10" />
              <path
                class="cls-3"
                d="m 166.48,17.66 c 2.72,-0.11 2.96,-0.56 2.96,-2.65 V 4.47 c 0,-2.07 -0.24,-2.52 -2.69,-2.62 v -0.4 h 8.69 c 3.61,0 6.51,0.53 8.33,2.09 1.58,1.32 2.42,3.18 2.42,5.48 0,7.02 -6.86,9.01 -12.83,9.01 h -6.86 v -0.37 z m 4.51,-2.73 c 0,2.04 0.48,2.46 3.46,2.46 7.31,0 9.76,-4.21 9.76,-7.73 0,-3.02 -1.37,-5.75 -4.18,-6.91 -1.34,-0.45 -3.25,-0.77 -6.15,-0.77 -1.52,0 -2.36,0.03 -2.63,0.05 -0.15,0 -0.27,0.03 -0.27,0.5 v 12.4 z"
                id="path11"
                style="fill:#efefef;stroke:#ededed;stroke-width:0.25px;stroke-miterlimit:10" />
              <path
                class="cls-3"
                d="m 197.37,18.32 c -0.06,0 -0.66,-0.21 -0.96,-0.48 -0.36,-0.34 -0.48,-0.66 -0.66,-1.25 -1.16,0.79 -2.51,1.72 -3.61,1.72 -2.06,0 -3.46,-1.38 -3.46,-3.02 0,-1.19 0.92,-2.04 2.98,-2.6 1.52,-0.4 3.4,-1.03 4.09,-1.4 0,-1.3 -0.03,-3.6 -2.72,-3.6 -0.48,0.03 -2.09,0.13 -2.6,2.25 -0.06,0.19 -0.24,0.45 -0.66,0.45 -0.42,0 -0.9,-0.37 -0.9,-0.9 0,-0.4 0.36,-0.72 0.84,-0.95 0.75,-0.45 2.75,-1.54 4.21,-1.83 1.46,0 3.31,0.85 3.31,3.18 v 5.7 c 0,1.09 0.45,1.51 1.08,1.51 0.51,0 0.98,-0.16 1.31,-0.34 l 0.27,0.45 -2.54,1.11 z m -1.61,-6.35 c -0.63,0.32 -2.51,0.95 -3.16,1.19 -1.34,0.45 -2.15,0.95 -2.15,1.93 0,1.38 1.25,2.09 2.33,2.09 1.01,0 2.36,-0.66 2.98,-1.35 v -3.87 z"
                id="path12"
                style="fill:#efefef;stroke:#ededed;stroke-width:0.25px;stroke-miterlimit:10" />
              <path
                class="cls-3"
                d="m 206.53,18.03 c -0.54,0.26 -0.87,0.29 -1.22,0.29 -1.67,0 -2.48,-1.06 -2.48,-2.86 v -7.6 h -2.15 l -0.09,-0.29 0.81,-0.56 h 1.43 V 5.55 l 1.01,-1.8 0.42,-0.03 V 7 h 3.58 c 0.06,0.11 0.09,0.21 0.09,0.32 0,0.19 -0.09,0.37 -0.3,0.53 h -3.37 v 6.89 c 0,2.15 0.81,2.6 1.79,2.6 0.98,0 1.73,-0.37 2.06,-0.53 l 0.24,0.4 z"
                id="path13"
                style="fill:#efefef;stroke:#ededed;stroke-width:0.25px;stroke-miterlimit:10" />
              <path
                class="cls-3"
                d="m 219.58,16.02 c -1.76,1.8 -3.79,2.3 -4.48,2.3 -3.52,0 -5.7,-2.49 -5.7,-5.3 0,-3.89 3.58,-6.3 6,-6.3 2.57,0 4.42,1.85 4.42,3.73 0,0.53 -0.03,0.61 -0.51,0.69 -0.48,0.08 -4.3,0.37 -8.42,0.48 -0.03,4.03 2.69,5.46 4.75,5.46 1.02,0 2.09,-0.19 3.61,-1.46 z m -8.51,-5.25 c 0.69,0 4.9,-0.05 6.18,-0.08 0.75,0 0.75,-0.27 0.75,-0.42 0,-1.48 -1.25,-2.81 -3.4,-2.81 -1.49,0 -3.07,1.17 -3.52,3.31 z"
                id="path14"
                style="fill:#efefef;stroke:#ededed;stroke-width:0.25px;stroke-miterlimit:10" />
              <path
                class="cls-3"
                d="m 227.72,0.12 v 21.96 h -4.69 v -0.32 c 3.16,-0.24 3.25,-0.5 3.25,-2.46 V 2.93 c 0,-1.99 -0.09,-2.25 -3.25,-2.49 V 0.12 Z"
                id="path15"
                style="fill:#efefef;stroke:#ededed;stroke-width:0.25px;stroke-miterlimit:10" />
            </g>
            <g
              id="g21">
              <path
                class="cls-3"
                d="m 30.65,276.9 v -19.97 h 4.26 v 0.29 c -2.88,0.22 -2.96,0.46 -2.96,2.24 v 14.89 c 0,1.81 0.08,2.05 2.96,2.26 v 0.29 z"
                id="path16"
                style="fill:#efefef;stroke:#ededed;stroke-width:0.25px;stroke-miterlimit:10" />
              <path
                class="cls-3"
                d="m 41.76,272.87 c 2.72,-0.12 2.91,-0.53 2.91,-2.36 V 258.7 h -1.68 c -3.56,0 -3.91,0.53 -4.73,3.06 h -0.43 c 0.16,-1.42 0.24,-2.87 0.3,-4.22 h 0.43 c 0.19,0.29 0.38,0.43 0.6,0.51 0.22,0.07 0.49,0.07 0.87,0.07 h 10.95 c 0.71,0 0.9,-0.12 1.28,-0.58 l 0.46,0.02 c -0.05,1.13 0.11,2.65 0.25,4.1 l -0.46,0.1 c -0.65,-2.72 -1.68,-3.06 -3.99,-3.06 H 46.1 v 11.81 c 0,1.83 0.19,2.24 3.01,2.36 v 0.34 h -7.33 v -0.34 z"
                id="path17"
                style="fill:#efefef;stroke:#ededed;stroke-width:0.25px;stroke-miterlimit:10" />
              <path
                class="cls-3"
                d="m 54.08,272.87 c 1.66,-0.1 1.96,-0.46 1.96,-1.95 V 259.6 c 0,-1.52 -0.16,-1.61 -2.04,-1.93 v -0.27 c 1.22,-0.19 2.61,-0.55 3.34,-0.82 v 8.19 c 1.09,-1.01 2.63,-1.86 4.24,-1.86 2.09,0 3.64,1.2 3.64,3.98 v 4.02 c 0,1.52 0.3,1.86 1.96,1.95 v 0.34 h -5.32 v -0.34 c 1.82,-0.1 2.06,-0.46 2.06,-2.1 v -3.3 c 0,-2.26 -0.76,-3.47 -3.34,-3.47 -1.28,0.07 -2.47,0.55 -3.23,1.4 v 5.37 c 0,1.64 0.27,2 2.15,2.1 v 0.34 h -5.38 l -0.03,-0.34 z"
                id="path18"
                style="fill:#efefef;stroke:#ededed;stroke-width:0.25px;stroke-miterlimit:10" />
              <path
                class="cls-3"
                d="m 71.6,269.33 c 0,2.41 1.3,3.04 2.82,3.04 1.09,0 2.39,-0.48 3.53,-1.49 v -5.3 c 0,-1.42 -0.38,-1.52 -1.36,-1.69 l -1.03,-0.14 v -0.27 c 1.17,-0.02 3.02,-0.27 3.69,-0.43 v 7.85 c 0,1.2 0.3,1.33 1.36,1.4 l 0.81,0.05 v 0.34 c -1.11,0.12 -2.28,0.48 -3.34,0.82 l -0.14,-0.12 v -1.85 c -0.71,0.46 -1.39,0.99 -2.34,1.42 -0.79,0.41 -1.36,0.53 -2.06,0.53 -1.63,0 -3.26,-0.75 -3.26,-3.42 v -4.46 c 0,-1.42 -0.41,-1.54 -0.98,-1.69 l -0.87,-0.17 v -0.24 c 0.62,-0.05 2.63,-0.34 3.23,-0.46 -0.08,0.48 -0.08,1.33 -0.08,3.13 v 3.16 z"
                id="path19"
                style="fill:#efefef;stroke:#ededed;stroke-width:0.25px;stroke-miterlimit:10" />
              <path
                class="cls-3"
                d="m 83.76,272.39 c 0,-0.6 0.52,-1.11 1.2,-1.11 0.68,0 1.22,0.51 1.22,1.11 0,0.65 -0.52,1.08 -1.22,1.08 -0.76,-0.02 -1.2,-0.48 -1.2,-1.08 z"
                id="path20"
                style="fill:#efefef;stroke:#ededed;stroke-width:0.25px;stroke-miterlimit:10" />
              <path
                class="cls-3"
                d="m 94.63,256.92 v 19.97 h -4.26 v -0.29 c 2.88,-0.22 2.96,-0.46 2.96,-2.24 v -14.89 c 0,-1.81 -0.08,-2.05 -2.96,-2.26 v -0.29 z"
                id="path21"
                style="fill:#efefef;stroke:#ededed;stroke-width:0.25px;stroke-miterlimit:10" />
            </g>
            <g
              id="g27">
              <path
                class="cls-3"
                d="M 34.34,677.68 V 657.71 H 38.6 V 658 c -2.88,0.22 -2.96,0.46 -2.96,2.24 v 14.89 c 0,1.81 0.08,2.05 2.96,2.26 v 0.29 z"
                id="path22"
                style="fill:#efefef;stroke:#ededed;stroke-width:0.25px;stroke-miterlimit:10" />
              <path
                class="cls-3"
                d="m 42.33,658.91 h 3.45 l 7.17,12.77 7.2,-12.77 h 3.91 v 0.34 c -2.53,0.22 -2.77,0.46 -2.66,2.87 l 0.19,8.55 c 0.08,2.48 0.19,2.79 2.74,2.99 V 674 h -6.65 v -0.34 c 2.39,-0.17 2.47,-0.48 2.44,-2.99 L 60.01,660.55 H 59.9 l -7.36,13.18 H 52.3 l -6.68,-12.36 h -0.05 l -0.35,6.51 c -0.08,1.13 -0.11,1.95 -0.11,2.6 0,2.31 0.27,2.96 2.8,3.18 V 674 h -6.55 v -0.34 c 1.68,-0.12 2.25,-0.53 2.47,-1.49 0.19,-0.72 0.41,-2.17 0.6,-4.65 l 0.38,-4.41 c 0.03,-0.65 0.05,-1.18 0.05,-1.61 0,-1.71 -0.46,-2.02 -2.53,-2.24 v -0.34 z"
                id="path23"
                style="fill:#efefef;stroke:#ededed;stroke-width:0.25px;stroke-miterlimit:10" />
              <path
                class="cls-3"
                d="m 78.23,668.79 c 0,3.64 -3.37,5.47 -5.98,5.47 -3.58,0 -6.03,-2.41 -6.03,-5.04 0,-3.9 3.69,-5.52 5.98,-5.52 3.42,0 6.03,2.29 6.03,5.08 z m -10.3,-0.36 c 0,3.08 1.82,5.28 4.7,5.28 2.28,0 3.94,-1.3 3.94,-4.55 0,-2.34 -1.6,-4.87 -4.62,-4.87 -2.5,0 -4.02,1.73 -4.02,4.14 z"
                id="path24"
                style="fill:#efefef;stroke:#ededed;stroke-width:0.25px;stroke-miterlimit:10" />
              <path
                class="cls-3"
                d="m 80.15,673.65 c 1.58,-0.1 2.01,-0.46 2.01,-1.9 v -4.84 c 0,-1.61 -0.19,-1.71 -1.71,-1.98 v -0.31 c 1.09,-0.24 2.17,-0.46 3.02,-1.01 v 2 c 0.54,-0.29 1.22,-0.72 2.06,-1.23 0.76,-0.41 1.44,-0.67 2.2,-0.67 2.25,0 3.53,1.23 3.53,3.13 v 4.79 c 0,1.69 0.24,1.93 1.77,2.02 v 0.34 h -5.24 v -0.34 c 1.85,-0.1 2.17,-0.43 2.17,-2.02 v -3.95 c 0,-1.37 -0.43,-2.92 -2.93,-2.92 -1.33,0 -2.72,0.72 -3.56,1.47 v 5.42 c 0,1.54 0.27,1.9 2.15,2 v 0.34 h -5.46 v -0.34 z"
                id="path25"
                style="fill:#efefef;stroke:#ededed;stroke-width:0.25px;stroke-miterlimit:10" />
              <path
                class="cls-3"
                d="m 95.74,673.17 c 0,-0.6 0.52,-1.11 1.2,-1.11 0.68,0 1.22,0.51 1.22,1.11 0,0.65 -0.52,1.08 -1.22,1.08 -0.76,-0.02 -1.2,-0.48 -1.2,-1.08 z"
                id="path26"
                style="fill:#efefef;stroke:#ededed;stroke-width:0.25px;stroke-miterlimit:10" />
              <path
                class="cls-3"
                d="m 106.6,657.71 v 19.97 h -4.26 v -0.29 c 2.88,-0.22 2.96,-0.46 2.96,-2.24 v -14.89 c 0,-1.81 -0.08,-2.05 -2.96,-2.26 v -0.29 z"
                id="path27"
                style="fill:#efefef;stroke:#ededed;stroke-width:0.25px;stroke-miterlimit:10" />
            </g>
            <g
              id="g38">
              <path
                class="cls-1"
                d="m 25.75,766.23 c -0.16,0 -0.24,-0.08 -0.24,-0.24 0,-0.14 0.07,-0.24 0.2,-0.3 0.18,-0.07 0.51,-0.12 1,-0.15 0.48,-0.03 0.98,-0.08 1.49,-0.14 0.51,-0.06 0.95,-0.14 1.33,-0.24 0.38,-0.1 0.58,-0.25 0.61,-0.46 0.22,-2.16 0.33,-4.33 0.3,-6.5 -0.02,-2.17 -0.03,-4.34 -0.03,-6.5 v -6.31 c 0,-0.25 0,-0.49 0.02,-0.74 0.01,-0.25 0,-0.51 -0.05,-0.78 -0.11,-0.43 -0.3,-0.65 -0.56,-0.68 -0.26,-0.03 -0.56,-0.01 -0.89,0.03 -0.07,0 -0.23,0.01 -0.47,0.03 -0.25,0.02 -0.5,0.05 -0.76,0.07 -0.26,0.02 -0.59,0.05 -1,0.07 -0.13,-0.04 -0.21,-0.1 -0.24,-0.17 -0.03,-0.07 -0.03,-0.17 -0.03,-0.3 0,-0.07 0.04,-0.14 0.13,-0.2 0.09,-0.07 0.2,-0.12 0.32,-0.17 0.12,-0.04 0.25,-0.08 0.39,-0.12 0.14,-0.04 0.22,-0.06 0.27,-0.08 0.88,-0.27 1.76,-0.49 2.65,-0.68 0.89,-0.18 1.78,-0.37 2.68,-0.57 0.41,-0.07 0.82,-0.14 1.23,-0.2 0.42,-0.07 0.82,-0.09 1.2,-0.07 0.09,0 0.17,0.02 0.25,0.05 0.08,0.03 0.12,0.11 0.12,0.22 v 23.3 c 0,0.32 0.17,0.55 0.52,0.69 0.35,0.14 0.75,0.25 1.22,0.3 0.46,0.06 0.92,0.1 1.38,0.12 0.46,0.02 0.8,0.08 1.03,0.17 0.13,0.07 0.21,0.17 0.22,0.32 0.01,0.15 -0.06,0.22 -0.22,0.22 H 25.74 Z"
                id="path28"
                style="fill:#efefef" />
              <path
                class="cls-1"
                d="m 46.79,766.23 c -0.16,0 -0.24,-0.08 -0.24,-0.24 0,-0.14 0.07,-0.24 0.2,-0.3 0.18,-0.07 0.51,-0.12 1,-0.15 0.48,-0.03 0.98,-0.08 1.49,-0.14 0.51,-0.06 0.95,-0.14 1.33,-0.24 0.38,-0.1 0.58,-0.25 0.61,-0.46 0.22,-2.16 0.33,-4.33 0.3,-6.5 -0.02,-2.17 -0.03,-4.34 -0.03,-6.5 v -6.31 c 0,-0.25 0,-0.49 0.02,-0.74 0.01,-0.25 0,-0.51 -0.05,-0.78 -0.11,-0.43 -0.3,-0.65 -0.56,-0.68 -0.26,-0.03 -0.56,-0.01 -0.89,0.03 -0.07,0 -0.23,0.01 -0.47,0.03 -0.25,0.02 -0.5,0.05 -0.76,0.07 -0.26,0.02 -0.59,0.05 -1,0.07 -0.13,-0.04 -0.21,-0.1 -0.24,-0.17 -0.03,-0.07 -0.03,-0.17 -0.03,-0.3 0,-0.07 0.04,-0.14 0.13,-0.2 0.09,-0.07 0.2,-0.12 0.32,-0.17 0.12,-0.04 0.25,-0.08 0.39,-0.12 0.14,-0.04 0.22,-0.06 0.27,-0.08 0.88,-0.27 1.76,-0.49 2.65,-0.68 0.89,-0.18 1.78,-0.37 2.68,-0.57 0.41,-0.07 0.82,-0.14 1.23,-0.2 0.42,-0.07 0.82,-0.09 1.2,-0.07 0.09,0 0.17,0.02 0.25,0.05 0.08,0.03 0.12,0.11 0.12,0.22 v 23.3 c 0,0.32 0.17,0.55 0.52,0.69 0.35,0.14 0.75,0.25 1.22,0.3 0.46,0.06 0.92,0.1 1.38,0.12 0.46,0.02 0.8,0.08 1.03,0.17 0.13,0.07 0.21,0.17 0.22,0.32 0.01,0.15 -0.06,0.22 -0.22,0.22 H 46.78 Z"
                id="path29"
                style="fill:#efefef" />
              <path
                class="cls-1"
                d="m 67.35,750.23 c 0,-0.97 0.29,-1.69 0.86,-2.18 0.57,-0.48 1.22,-0.73 1.92,-0.74 0.71,-0.01 1.35,0.23 1.92,0.71 0.57,0.48 0.86,1.22 0.86,2.21 0,0.61 -0.14,1.11 -0.42,1.52 -0.28,0.41 -0.63,0.71 -1.05,0.91 -0.42,0.2 -0.86,0.29 -1.32,0.27 -0.46,-0.02 -0.9,-0.14 -1.32,-0.35 -0.42,-0.21 -0.77,-0.52 -1.05,-0.91 -0.28,-0.39 -0.42,-0.87 -0.42,-1.43 z m 0,13.8 c 0,-0.63 0.14,-1.16 0.42,-1.59 0.28,-0.43 0.63,-0.75 1.05,-0.98 0.42,-0.23 0.87,-0.34 1.35,-0.34 0.48,0 0.93,0.11 1.33,0.34 0.4,0.23 0.75,0.55 1.03,0.98 0.28,0.43 0.42,0.96 0.42,1.59 0,0.4 -0.05,0.78 -0.15,1.11 -0.1,0.34 -0.31,0.64 -0.62,0.91 -0.25,0.23 -0.56,0.39 -0.93,0.51 -0.37,0.11 -0.74,0.17 -1.11,0.17 -0.37,0 -0.74,-0.06 -1.1,-0.17 -0.36,-0.11 -0.66,-0.28 -0.91,-0.51 -0.32,-0.27 -0.52,-0.57 -0.62,-0.91 -0.1,-0.34 -0.15,-0.71 -0.15,-1.11 z"
                id="path30"
                style="fill:#efefef" />
              <path
                class="cls-1"
                d="m 85.85,766.67 c -1.42,-0.09 -2.61,-0.5 -3.58,-1.22 -1.1,-0.83 -1.97,-1.89 -2.62,-3.16 -0.65,-1.27 -1.09,-2.67 -1.33,-4.2 -0.25,-1.53 -0.37,-3 -0.37,-4.42 0,-0.67 0.04,-1.46 0.12,-2.36 0.08,-0.9 0.22,-1.83 0.42,-2.8 0.2,-0.97 0.47,-1.92 0.81,-2.85 0.34,-0.93 0.75,-1.77 1.25,-2.52 0.5,-0.74 1.08,-1.34 1.76,-1.81 0.67,-0.46 1.46,-0.69 2.36,-0.69 h 1.18 v 0.81 c -0.38,0.11 -0.73,0.33 -1.05,0.64 -0.47,0.47 -0.86,1.08 -1.15,1.82 -0.29,0.74 -0.51,1.59 -0.66,2.53 -0.15,0.94 -0.26,1.87 -0.34,2.79 -0.08,0.91 -0.12,1.77 -0.12,2.57 v 3.76 c 0,0.79 0.04,1.64 0.12,2.55 0.08,0.91 0.19,1.84 0.34,2.79 0.15,0.95 0.37,1.8 0.68,2.55 0.3,0.75 0.68,1.38 1.13,1.87 0.31,0.29 0.66,0.5 1.05,0.61 z m 5.64,-3.92 -10.8,-16.71 1.05,-0.68 10.8,16.71 z m -3.18,-22.11 c 0.9,0 1.7,0.23 2.4,0.68 0.7,0.45 1.3,1.05 1.81,1.81 0.51,0.75 0.94,1.6 1.3,2.53 0.36,0.93 0.65,1.89 0.86,2.85 0.21,0.97 0.37,1.9 0.46,2.8 0.09,0.9 0.13,1.69 0.13,2.36 0,0.95 -0.05,1.92 -0.15,2.94 -0.1,1.01 -0.28,2.01 -0.52,3 -0.25,0.99 -0.6,1.93 -1.06,2.82 -0.46,0.89 -1.04,1.68 -1.74,2.38 -0.47,0.45 -1,0.85 -1.59,1.2 -0.59,0.35 -1.22,0.58 -1.89,0.69 -0.27,0.04 -0.55,0.06 -0.84,0.03 l -0.41,-0.03 v -0.71 c 0.56,-0.11 1.01,-0.37 1.35,-0.78 0.47,-0.56 0.83,-1.18 1.08,-1.86 0.29,-0.7 0.5,-1.46 0.62,-2.28 0.12,-0.82 0.21,-1.65 0.25,-2.48 0.04,-0.83 0.07,-1.67 0.07,-2.52 v -2.41 c 0,-0.47 0,-1.11 0.02,-1.91 0.01,-0.8 0,-1.66 -0.05,-2.58 -0.04,-0.92 -0.13,-1.85 -0.27,-2.77 -0.13,-0.92 -0.35,-1.76 -0.64,-2.52 -0.29,-0.75 -0.68,-1.37 -1.15,-1.84 -0.38,-0.38 -0.86,-0.61 -1.42,-0.68 v -0.74 h 1.38 z"
                id="path31"
                style="fill:#efefef" />
              <path
                class="cls-1"
                d="m 106.88,766.67 c -1.42,-0.09 -2.61,-0.5 -3.58,-1.22 -1.1,-0.83 -1.97,-1.89 -2.62,-3.16 -0.65,-1.27 -1.09,-2.67 -1.33,-4.2 -0.25,-1.53 -0.37,-3 -0.37,-4.42 0,-0.67 0.04,-1.46 0.12,-2.36 0.08,-0.9 0.22,-1.83 0.42,-2.8 0.2,-0.97 0.47,-1.92 0.81,-2.85 0.34,-0.93 0.75,-1.77 1.25,-2.52 0.5,-0.74 1.08,-1.34 1.76,-1.81 0.67,-0.46 1.46,-0.69 2.36,-0.69 h 1.18 v 0.81 c -0.38,0.11 -0.73,0.33 -1.05,0.64 -0.47,0.47 -0.86,1.08 -1.15,1.82 -0.29,0.74 -0.51,1.59 -0.66,2.53 -0.15,0.94 -0.26,1.87 -0.34,2.79 -0.08,0.91 -0.12,1.77 -0.12,2.57 v 3.76 c 0,0.79 0.04,1.64 0.12,2.55 0.08,0.91 0.19,1.84 0.34,2.79 0.15,0.95 0.37,1.8 0.68,2.55 0.3,0.75 0.68,1.38 1.13,1.87 0.31,0.29 0.66,0.5 1.05,0.61 z m 5.64,-3.92 -10.8,-16.71 1.05,-0.68 10.8,16.71 z m -3.17,-22.11 c 0.9,0 1.7,0.23 2.4,0.68 0.7,0.45 1.3,1.05 1.81,1.81 0.51,0.75 0.94,1.6 1.3,2.53 0.36,0.93 0.65,1.89 0.86,2.85 0.21,0.97 0.37,1.9 0.46,2.8 0.09,0.9 0.13,1.69 0.13,2.36 0,0.95 -0.05,1.92 -0.15,2.94 -0.1,1.01 -0.28,2.01 -0.52,3 -0.25,0.99 -0.6,1.93 -1.06,2.82 -0.46,0.89 -1.04,1.68 -1.74,2.38 -0.47,0.45 -1,0.85 -1.59,1.2 -0.59,0.35 -1.22,0.58 -1.89,0.69 -0.27,0.04 -0.55,0.06 -0.84,0.03 l -0.41,-0.03 v -0.71 c 0.56,-0.11 1.01,-0.37 1.35,-0.78 0.47,-0.56 0.83,-1.18 1.08,-1.86 0.29,-0.7 0.5,-1.46 0.62,-2.28 0.12,-0.82 0.21,-1.65 0.25,-2.48 0.04,-0.83 0.07,-1.67 0.07,-2.52 v -2.41 c 0,-0.47 0,-1.11 0.02,-1.91 0.01,-0.8 0,-1.66 -0.05,-2.58 -0.04,-0.92 -0.13,-1.85 -0.27,-2.77 -0.13,-0.92 -0.35,-1.76 -0.64,-2.52 -0.29,-0.75 -0.68,-1.37 -1.15,-1.84 -0.38,-0.38 -0.86,-0.61 -1.42,-0.68 v -0.74 h 1.38 z"
                id="path32"
                style="fill:#efefef" />
              <path
                class="cls-1"
                d="m 120.02,756.2 c 0,-0.22 0.12,-0.34 0.37,-0.34 h 8.51 c 0.25,0 0.37,0.11 0.37,0.34 v 0.95 c 0,0.23 -0.12,0.34 -0.37,0.34 h -8.51 c -0.25,0 -0.37,-0.11 -0.37,-0.34 z"
                id="path33"
                style="fill:#efefef" />
              <path
                class="cls-1"
                d="m 134.84,766.23 c -0.16,0 -0.24,-0.08 -0.24,-0.24 0,-0.14 0.07,-0.24 0.2,-0.3 0.18,-0.07 0.51,-0.12 1,-0.15 0.48,-0.03 0.98,-0.08 1.49,-0.14 0.51,-0.06 0.95,-0.14 1.33,-0.24 0.38,-0.1 0.58,-0.25 0.61,-0.46 0.22,-2.16 0.33,-4.33 0.3,-6.5 -0.02,-2.17 -0.03,-4.34 -0.03,-6.5 v -6.31 c 0,-0.25 0,-0.49 0.02,-0.74 0.01,-0.25 0,-0.51 -0.05,-0.78 -0.11,-0.43 -0.3,-0.65 -0.56,-0.68 -0.26,-0.03 -0.56,-0.01 -0.89,0.03 -0.07,0 -0.23,0.01 -0.47,0.03 -0.25,0.02 -0.5,0.05 -0.76,0.07 -0.26,0.02 -0.59,0.05 -1,0.07 -0.13,-0.04 -0.21,-0.1 -0.24,-0.17 -0.03,-0.07 -0.03,-0.17 -0.03,-0.3 0,-0.07 0.04,-0.14 0.13,-0.2 0.09,-0.07 0.2,-0.12 0.32,-0.17 0.12,-0.04 0.25,-0.08 0.39,-0.12 0.14,-0.04 0.22,-0.06 0.27,-0.08 0.88,-0.27 1.76,-0.49 2.65,-0.68 0.89,-0.18 1.78,-0.37 2.68,-0.57 0.41,-0.07 0.82,-0.14 1.23,-0.2 0.42,-0.07 0.82,-0.09 1.2,-0.07 0.09,0 0.17,0.02 0.25,0.05 0.08,0.03 0.12,0.11 0.12,0.22 v 23.3 c 0,0.32 0.17,0.55 0.52,0.69 0.35,0.14 0.75,0.25 1.22,0.3 0.46,0.06 0.92,0.1 1.38,0.12 0.46,0.02 0.8,0.08 1.03,0.17 0.13,0.07 0.21,0.17 0.22,0.32 0.01,0.15 -0.06,0.22 -0.22,0.22 h -14.08 z"
                id="path34"
                style="fill:#efefef" />
              <path
                class="cls-1"
                d="m 165.96,756.81 c 0.07,-0.07 0.15,-0.16 0.24,-0.27 0.09,-0.11 0.17,-0.24 0.24,-0.37 0.07,-0.14 0.13,-0.27 0.19,-0.41 0.06,-0.13 0.08,-0.25 0.08,-0.34 0.04,-0.36 0.02,-0.68 -0.07,-0.96 -0.09,-0.28 -0.13,-0.58 -0.13,-0.89 0,-0.16 0.01,-0.27 0.03,-0.34 v -0.34 c 0.02,-0.34 0.02,-0.66 0,-0.96 -0.02,-0.3 -0.03,-0.62 -0.03,-0.96 0,-0.65 0,-1.37 0.02,-2.14 0.01,-0.78 -0.02,-1.56 -0.1,-2.35 -0.08,-0.79 -0.23,-1.54 -0.46,-2.25 -0.23,-0.71 -0.55,-1.34 -0.98,-1.91 -0.34,-0.38 -0.69,-0.64 -1.06,-0.78 -0.37,-0.14 -0.81,-0.2 -1.3,-0.2 -0.79,0 -1.45,0.27 -1.99,0.81 -0.54,0.54 -0.95,1.22 -1.23,2.04 -0.28,0.82 -0.46,1.75 -0.52,2.79 -0.07,1.04 -0.01,2.04 0.17,3.02 0.18,0.98 0.46,1.87 0.84,2.67 0.38,0.8 0.87,1.41 1.45,1.84 0.38,0.25 0.76,0.38 1.15,0.41 0.39,0.03 0.79,0.03 1.22,0.03 0.47,0 0.96,-0.07 1.45,-0.2 0.07,-0.02 0.12,-0.04 0.17,-0.07 0.04,-0.02 0.1,-0.03 0.17,-0.03 0.2,-0.02 0.34,-0.02 0.42,0.02 0.08,0.03 0.11,0.08 0.1,0.15 -0.01,0.07 -0.06,0.14 -0.15,0.22 -0.09,0.08 -0.18,0.14 -0.27,0.19 -0.07,0.05 -0.32,0.11 -0.76,0.2 -0.44,0.09 -0.92,0.19 -1.43,0.3 -0.52,0.11 -1.01,0.21 -1.47,0.29 -0.46,0.08 -0.75,0.12 -0.86,0.12 -2.25,0 -3.99,-0.66 -5.22,-1.99 -1.23,-1.33 -1.84,-3.09 -1.84,-5.3 0,-1.33 0.21,-2.5 0.64,-3.53 0.43,-1.02 1.02,-1.88 1.79,-2.57 0.76,-0.69 1.68,-1.21 2.73,-1.57 1.06,-0.36 2.23,-0.54 3.51,-0.54 1.55,0 2.9,0.27 4.03,0.81 1.14,0.54 2.08,1.28 2.84,2.23 0.76,0.95 1.31,2.05 1.67,3.31 0.36,1.26 0.54,2.6 0.54,4.02 0,1.76 -0.26,3.37 -0.78,4.84 -0.52,1.47 -1.24,2.81 -2.18,4.02 -0.93,1.2 -2.05,2.27 -3.34,3.21 -1.29,0.93 -2.72,1.72 -4.27,2.35 -0.72,0.32 -1.46,0.6 -2.21,0.86 -0.75,0.26 -1.51,0.46 -2.28,0.59 -0.07,0.02 -0.15,0 -0.24,-0.05 -0.09,-0.06 -0.14,-0.13 -0.14,-0.22 0,-0.07 0.03,-0.12 0.1,-0.17 1.24,-0.61 2.32,-1.21 3.26,-1.81 0.93,-0.6 1.77,-1.26 2.52,-1.99 0.74,-0.73 1.42,-1.56 2.03,-2.5 0.61,-0.93 1.18,-2.04 1.72,-3.33 z"
                id="path35"
                style="fill:#efefef" />
              <path
                class="cls-1"
                d="m 176.43,750.23 c 0,-0.97 0.29,-1.69 0.86,-2.18 0.57,-0.48 1.22,-0.73 1.92,-0.74 0.71,-0.01 1.35,0.23 1.92,0.71 0.57,0.48 0.86,1.22 0.86,2.21 0,0.61 -0.14,1.11 -0.42,1.52 -0.28,0.41 -0.63,0.71 -1.05,0.91 -0.42,0.2 -0.86,0.29 -1.32,0.27 -0.46,-0.02 -0.9,-0.14 -1.32,-0.35 -0.42,-0.21 -0.77,-0.52 -1.05,-0.91 -0.28,-0.39 -0.42,-0.87 -0.42,-1.43 z m 0,13.8 c 0,-0.63 0.14,-1.16 0.42,-1.59 0.28,-0.43 0.63,-0.75 1.05,-0.98 0.42,-0.23 0.87,-0.34 1.35,-0.34 0.48,0 0.93,0.11 1.33,0.34 0.4,0.23 0.75,0.55 1.03,0.98 0.28,0.43 0.42,0.96 0.42,1.59 0,0.4 -0.05,0.78 -0.15,1.11 -0.1,0.34 -0.31,0.64 -0.62,0.91 -0.25,0.23 -0.56,0.39 -0.93,0.51 -0.37,0.11 -0.74,0.17 -1.11,0.17 -0.37,0 -0.74,-0.06 -1.1,-0.17 -0.36,-0.11 -0.66,-0.28 -0.91,-0.51 -0.32,-0.27 -0.52,-0.57 -0.62,-0.91 -0.1,-0.34 -0.15,-0.71 -0.15,-1.11 z"
                id="path36"
                style="fill:#efefef" />
              <path
                class="cls-1"
                d="m 194.93,766.67 c -1.42,-0.09 -2.61,-0.5 -3.58,-1.22 -1.1,-0.83 -1.97,-1.89 -2.62,-3.16 -0.65,-1.27 -1.09,-2.67 -1.33,-4.2 -0.25,-1.53 -0.37,-3 -0.37,-4.42 0,-0.67 0.04,-1.46 0.12,-2.36 0.08,-0.9 0.22,-1.83 0.42,-2.8 0.2,-0.97 0.47,-1.92 0.81,-2.85 0.34,-0.93 0.75,-1.77 1.25,-2.52 0.5,-0.74 1.08,-1.34 1.76,-1.81 0.67,-0.46 1.46,-0.69 2.36,-0.69 h 1.18 v 0.81 c -0.38,0.11 -0.73,0.33 -1.05,0.64 -0.47,0.47 -0.86,1.08 -1.15,1.82 -0.29,0.74 -0.51,1.59 -0.66,2.53 -0.15,0.94 -0.26,1.87 -0.34,2.79 -0.08,0.91 -0.12,1.77 -0.12,2.57 v 3.76 c 0,0.79 0.04,1.64 0.12,2.55 0.08,0.91 0.19,1.84 0.34,2.79 0.15,0.95 0.37,1.8 0.68,2.55 0.3,0.75 0.68,1.38 1.13,1.87 0.31,0.29 0.66,0.5 1.05,0.61 z m 5.64,-3.92 -10.8,-16.71 1.05,-0.68 10.8,16.71 z m -3.17,-22.11 c 0.9,0 1.7,0.23 2.4,0.68 0.7,0.45 1.3,1.05 1.81,1.81 0.51,0.75 0.94,1.6 1.3,2.53 0.36,0.93 0.65,1.89 0.86,2.85 0.21,0.97 0.37,1.9 0.46,2.8 0.09,0.9 0.13,1.69 0.13,2.36 0,0.95 -0.05,1.92 -0.15,2.94 -0.1,1.01 -0.28,2.01 -0.52,3 -0.25,0.99 -0.6,1.93 -1.06,2.82 -0.46,0.89 -1.04,1.68 -1.74,2.38 -0.47,0.45 -1,0.85 -1.59,1.2 -0.59,0.35 -1.22,0.58 -1.89,0.69 -0.27,0.04 -0.55,0.06 -0.84,0.03 l -0.41,-0.03 v -0.71 c 0.56,-0.11 1.01,-0.37 1.35,-0.78 0.47,-0.56 0.83,-1.18 1.08,-1.86 0.29,-0.7 0.5,-1.46 0.62,-2.28 0.12,-0.82 0.21,-1.65 0.25,-2.48 0.04,-0.83 0.07,-1.67 0.07,-2.52 v -2.41 c 0,-0.47 0,-1.11 0.02,-1.91 0.01,-0.8 0,-1.66 -0.05,-2.58 -0.04,-0.92 -0.13,-1.85 -0.27,-2.77 -0.13,-0.92 -0.35,-1.76 -0.64,-2.52 -0.29,-0.75 -0.68,-1.37 -1.15,-1.84 -0.38,-0.38 -0.86,-0.61 -1.42,-0.68 v -0.74 h 1.38 z"
                id="path37"
                style="fill:#efefef" />
              <path
                class="cls-1"
                d="m 215.97,766.67 c -1.42,-0.09 -2.61,-0.5 -3.58,-1.22 -1.1,-0.83 -1.97,-1.89 -2.62,-3.16 -0.65,-1.27 -1.09,-2.67 -1.33,-4.2 -0.25,-1.53 -0.37,-3 -0.37,-4.42 0,-0.67 0.04,-1.46 0.12,-2.36 0.08,-0.9 0.22,-1.83 0.42,-2.8 0.2,-0.97 0.47,-1.92 0.81,-2.85 0.34,-0.93 0.75,-1.77 1.25,-2.52 0.5,-0.74 1.08,-1.34 1.76,-1.81 0.67,-0.46 1.46,-0.69 2.36,-0.69 h 1.18 v 0.81 c -0.38,0.11 -0.73,0.33 -1.05,0.64 -0.47,0.47 -0.86,1.08 -1.15,1.82 -0.29,0.74 -0.51,1.59 -0.66,2.53 -0.15,0.94 -0.26,1.87 -0.34,2.79 -0.08,0.91 -0.12,1.77 -0.12,2.57 v 3.76 c 0,0.79 0.04,1.64 0.12,2.55 0.08,0.91 0.19,1.84 0.34,2.79 0.15,0.95 0.37,1.8 0.68,2.55 0.3,0.75 0.68,1.38 1.13,1.87 0.31,0.29 0.66,0.5 1.05,0.61 z m 5.63,-3.92 -10.8,-16.71 1.05,-0.68 10.8,16.71 z m -3.17,-22.11 c 0.9,0 1.7,0.23 2.4,0.68 0.7,0.45 1.3,1.05 1.81,1.81 0.51,0.75 0.94,1.6 1.3,2.53 0.36,0.93 0.65,1.89 0.86,2.85 0.21,0.97 0.37,1.9 0.46,2.8 0.09,0.9 0.13,1.69 0.13,2.36 0,0.95 -0.05,1.92 -0.15,2.94 -0.1,1.01 -0.28,2.01 -0.52,3 -0.25,0.99 -0.6,1.93 -1.06,2.82 -0.46,0.89 -1.04,1.68 -1.74,2.38 -0.47,0.45 -1,0.85 -1.59,1.2 -0.59,0.35 -1.22,0.58 -1.89,0.69 -0.27,0.04 -0.55,0.06 -0.84,0.03 l -0.41,-0.03 v -0.71 c 0.56,-0.11 1.01,-0.37 1.35,-0.78 0.47,-0.56 0.83,-1.18 1.08,-1.86 0.29,-0.7 0.5,-1.46 0.62,-2.28 0.12,-0.82 0.21,-1.65 0.25,-2.48 0.04,-0.83 0.07,-1.67 0.07,-2.52 v -2.41 c 0,-0.47 0,-1.11 0.02,-1.91 0.01,-0.8 0,-1.66 -0.05,-2.58 -0.04,-0.92 -0.13,-1.85 -0.27,-2.77 -0.13,-0.92 -0.35,-1.76 -0.64,-2.52 -0.29,-0.75 -0.68,-1.37 -1.15,-1.84 -0.38,-0.38 -0.86,-0.61 -1.42,-0.68 v -0.74 h 1.38 z"
                id="path38"
                style="fill:#efefef" />
            </g>
            <g
              id="g50">
              <path
                class="cls-1"
                d="m 102.91,799.64 c -3.04,-2.67 -3.83,-4.53 -3.83,-7.28 0,-2.2 1.12,-4.66 3.79,-6.75 l 0.23,0.2 c -1.94,1.69 -3,4.35 -3,6.56 0,2.75 0.79,4.9 3,7.03 l -0.19,0.23 z"
                id="path39"
                style="fill:#efefef" />
              <path
                class="cls-1"
                d="m 119.38,789.95 c 0.09,0.09 0.14,0.17 0.14,0.22 0,0.06 -0.06,0.08 -0.17,0.08 h -7.01 v 4.86 l 1.69,-0.28 v 0.22 l -1.69,0.4 v 0.96 c 0,0.78 0.02,1.13 0.03,1.46 v 0.09 c 0,0.19 -0.06,0.23 -0.33,0.34 -0.14,0.06 -0.25,0.09 -0.31,0.09 -0.09,0 -0.11,-0.06 -0.11,-0.2 0,-0.26 0.02,-1.54 0.02,-1.82 v -0.76 l -3.77,0.88 c -0.57,0.14 -1.15,0.36 -1.41,0.59 -0.03,0.03 -0.06,0.06 -0.09,0.06 -0.03,0 -0.06,-0.03 -0.09,-0.08 l -0.61,-0.88 2.16,-0.36 v -5.59 h -0.81 c -0.33,0 -0.78,0.06 -1.04,0.17 l -0.43,-0.57 c 0.39,0.03 0.78,0.06 1.13,0.06 h 11.38 l 0.56,-0.76 0.78,0.81 z m -2.03,-5.04 c 0.09,0.05 0.14,0.09 0.14,0.14 0,0.03 -0.05,0.08 -0.16,0.14 l -0.48,0.28 v 1.49 c 0,0.56 0.02,0.9 0.08,1.44 0,0.06 0.02,0.11 0.02,0.16 0,0.19 -0.08,0.25 -0.39,0.37 -0.16,0.06 -0.25,0.09 -0.31,0.09 -0.11,0 -0.11,-0.06 -0.11,-0.34 h -6.86 c 0,0.31 0,0.33 -0.34,0.45 -0.12,0.05 -0.23,0.08 -0.29,0.08 -0.09,0 -0.14,-0.08 -0.14,-0.25 0,-0.2 0.06,-1.21 0.06,-1.3 v -1.82 c 0,-0.37 -0.02,-1.12 -0.05,-1.6 l 0.9,0.65 h 6.52 l 0.43,-0.61 0.98,0.62 z m -5.71,6.75 v -1.41 h -3.12 v 1.41 z m 0,1.83 V 792 h -3.12 v 1.49 z m 0,1.74 v -1.4 h -3.12 v 1.89 l 3.12,-0.5 z m 4.5,-8.66 v -1.33 h -6.86 v 1.33 z m 0,1.77 v -1.43 h -6.86 v 1.43 z m 2.12,3.32 c 0.09,0.06 0.14,0.12 0.14,0.16 0,0.05 -0.05,0.08 -0.16,0.12 -0.19,0.08 -0.33,0.23 -0.46,0.59 -0.47,1.18 -0.92,2.08 -1.51,2.86 0.92,0.81 2.13,1.38 3.72,1.68 l -0.02,0.17 c -0.7,0 -0.99,0.14 -1.32,0.47 -0.03,0.03 -0.06,0.05 -0.09,0.05 -0.11,0 -1.78,-0.96 -2.72,-1.89 -0.7,0.75 -1.63,1.38 -3,2.1 l -0.12,-0.16 c 1.12,-0.79 2.02,-1.52 2.73,-2.37 -0.79,-0.93 -1.16,-1.99 -1.5,-3.48 -0.29,0.03 -0.54,0.08 -0.76,0.17 l -0.43,-0.57 c 0.39,0.03 0.78,0.06 1.13,0.06 h 3.12 l 0.43,-0.54 0.81,0.6 z m -4.05,0.28 c 0.34,1.18 0.87,2.19 1.61,3.01 0.59,-0.82 1.02,-1.77 1.35,-3.01 z"
                id="path40"
                style="fill:#efefef" />
              <path
                class="cls-1"
                d="m 122.58,793.51 c 0.09,0.5 0.12,0.95 0.12,1.35 0,1.35 -0.46,2.58 -1.26,2.58 -0.28,0 -0.42,-0.2 -0.42,-0.36 0,-0.12 0.08,-0.26 0.2,-0.42 0.5,-0.64 1.1,-1.55 1.1,-3.15 h 0.25 z m 2.65,-3.45 c 1.16,0.92 1.52,1.47 1.52,1.96 0,0.37 -0.25,0.67 -0.48,0.67 -0.19,0 -0.2,-0.06 -0.29,-0.56 -2.41,0.26 -3.13,0.5 -3.55,0.84 -0.05,0.03 -0.08,0.06 -0.12,0.06 -0.04,0 -0.08,-0.05 -0.14,-0.12 l -0.53,-0.79 c 0.7,-0.22 0.85,-0.29 1.15,-0.71 0.4,-0.57 1.18,-1.75 1.66,-2.51 -1.21,0.16 -2.31,0.33 -2.67,0.53 -0.03,0.02 -0.06,0.03 -0.09,0.03 -0.05,0 -0.09,-0.05 -0.14,-0.14 l -0.36,-0.81 c 0.73,-0.11 0.93,-0.29 1.26,-0.84 0.68,-1.15 1.33,-2.47 1.75,-3.65 l 0.92,0.5 c 0.11,0.06 0.15,0.11 0.15,0.14 0,0.05 -0.06,0.08 -0.15,0.12 -0.23,0.09 -0.51,0.37 -0.71,0.68 -0.76,1.19 -1.82,2.64 -2.19,3.1 l 2.41,0.05 c 0.51,-0.85 0.9,-1.55 1.21,-2.19 l 0.84,0.62 c 0.08,0.06 0.12,0.09 0.12,0.14 0,0.03 -0.06,0.06 -0.17,0.11 -0.36,0.12 -0.45,0.22 -0.61,0.43 -0.87,1.21 -2.14,2.86 -3.26,4.27 l 3.17,-0.14 c -0.17,-0.65 -0.4,-1.12 -0.82,-1.61 l 0.14,-0.17 z m -1.36,3.26 c 0.75,1.18 1.02,2.05 1.02,2.53 0,0.61 -0.36,0.79 -0.59,0.79 -0.2,0 -0.33,-0.09 -0.33,-0.42 0,-0.12 0.03,-0.75 0.03,-0.88 0,-0.59 -0.06,-1.24 -0.33,-1.91 l 0.19,-0.11 z m 1.49,-0.15 c 1.21,1.04 1.77,1.72 1.77,2.2 0,0.51 -0.36,0.79 -0.57,0.79 -0.19,0 -0.25,-0.08 -0.28,-0.4 -0.06,-0.75 -0.45,-1.54 -1.05,-2.45 l 0.14,-0.14 z m 10.31,-0.36 c -0.88,0.25 -1.18,0.39 -1.33,0.67 -0.01,0.05 -0.05,0.08 -0.11,0.08 -0.05,0 -2.23,-0.87 -3.63,-2.5 -1.2,1.19 -2.5,1.96 -4.25,2.68 l -0.12,-0.2 c 1.5,-0.82 2.84,-1.78 3.97,-3.01 -0.61,-0.9 -0.99,-1.96 -1.35,-3.58 -0.7,1.16 -1.46,2.27 -2.08,2.96 l -0.2,-0.14 c 1.23,-1.88 2.28,-3.99 2.9,-5.85 l 0.85,0.62 c 0.06,0.05 0.09,0.08 0.09,0.09 0,0.03 -0.05,0.05 -0.11,0.08 -0.17,0.05 -0.34,0.19 -0.43,0.39 -0.22,0.43 -0.47,0.88 -0.71,1.32 h 3.17 l 0.46,-0.59 0.99,0.71 c 0.06,0.05 0.09,0.08 0.09,0.12 0,0.03 -0.03,0.06 -0.12,0.09 -0.22,0.09 -0.5,0.29 -0.59,0.5 -0.56,1.16 -1.24,2.33 -2.11,3.32 1.29,1.38 2.64,1.94 4.62,2.03 v 0.2 z m -7.27,2.72 c 2.58,0.62 4.04,1.32 4.21,1.91 0.03,0.12 0.05,0.25 0.05,0.36 0,0.31 -0.14,0.51 -0.34,0.51 -0.2,0 -0.26,-0.03 -0.47,-0.26 -0.62,-0.74 -1.8,-1.58 -3.51,-2.27 z m 0.68,-8.79 c 0.48,1.44 0.96,2.5 1.52,3.29 0.88,-1.07 1.44,-2.16 1.85,-3.29 z m 0.4,6.01 c 2.17,0.7 2.47,1.24 2.47,1.69 0,0.33 -0.17,0.59 -0.39,0.59 -0.14,0 -0.26,-0.08 -0.39,-0.34 -0.25,-0.53 -0.81,-1.13 -1.8,-1.77 z"
                id="path41-3"
                style="fill:#efefef" />
              <path
                class="cls-1"
                d="m 148.76,785.67 c 0.08,0.06 0.12,0.11 0.12,0.16 0,0.06 -0.06,0.12 -0.2,0.2 l -0.51,0.28 v 7.84 c 0,1.18 0.03,2.14 0.08,2.84 v 0.09 c 0,0.23 -0.06,0.28 -0.43,0.43 -0.16,0.06 -0.25,0.09 -0.31,0.09 -0.09,0 -0.11,-0.08 -0.11,-0.2 v -1.44 h -7.14 v 1.41 c 0,0.2 -0.02,0.25 -0.34,0.39 -0.14,0.06 -0.25,0.09 -0.31,0.09 -0.11,0 -0.14,-0.09 -0.14,-0.33 v -0.17 c 0.03,-0.92 0.05,-2.31 0.05,-3.2 v -7.82 c 0,-0.57 -0.01,-1.12 -0.05,-1.6 l 1.07,0.82 h 6.64 l 0.45,-0.7 1.13,0.81 z m -1.37,4.58 v -4.35 h -7.14 v 4.35 z m 0,5.37 v -5.03 h -7.14 v 5.03 z"
                id="path42-8"
                style="fill:#efefef" />
              <path
                class="cls-1"
                d="m 153.32,797 c 1.44,-0.14 1.54,-0.31 1.54,-1.35 v -5.94 c 0,-0.67 -0.06,-0.78 -0.79,-0.85 l -0.67,-0.08 v -0.23 c 0.96,-0.17 1.74,-0.45 2.22,-0.76 v 7.87 c 0,1.04 0.11,1.21 1.55,1.35 v 0.22 h -3.85 v -0.22 z"
                id="path43-0"
                style="fill:#efefef" />
              <path
                class="cls-1"
                d="m 159.53,789.88 c 0.09,-0.62 0.16,-1.29 0.22,-1.92 h 5.49 l 0.11,0.19 c -1.5,2.98 -2.84,6.08 -4.19,9.12 l -0.93,0.12 -0.11,-0.14 c 1.77,-2.79 3.21,-5.65 4.47,-8.54 h -3.31 c -1.06,0 -1.13,0.11 -1.51,1.16 h -0.25 z"
                id="path44-2"
                style="fill:#efefef" />
              <path
                class="cls-1"
                d="m 168.44,791.54 c 0,0.43 -0.29,0.71 -0.7,0.71 -0.41,0 -0.68,-0.28 -0.68,-0.71 0,-0.39 0.29,-0.7 0.68,-0.7 0.43,0 0.7,0.36 0.7,0.7 z m -1.36,5.15 c 0,-0.39 0.29,-0.71 0.68,-0.71 0.39,0 0.7,0.33 0.7,0.71 0,0.42 -0.29,0.7 -0.7,0.7 -0.43,-0.02 -0.68,-0.31 -0.68,-0.7 z"
                id="path45-4"
                style="fill:#efefef" />
              <path
                class="cls-1"
                d="m 176.11,792.58 c 0,2.17 -0.82,4.81 -2.93,4.81 -2.11,0 -3,-2.64 -3,-4.81 0,-2.17 0.85,-4.79 3,-4.79 2.15,0 2.93,2.73 2.93,4.79 z m -2.94,-4.44 c -1.66,0 -2.1,2.3 -2.1,4.45 0,2.15 0.43,4.45 2.11,4.45 1.68,0 2.05,-2.34 2.05,-4.45 0,-2.11 -0.45,-4.45 -2.05,-4.45 h -0.02 z"
                id="path46-8"
                style="fill:#efefef" />
              <path
                class="cls-1"
                d="m 183.28,792.58 c 0,2.17 -0.82,4.81 -2.93,4.81 -2.11,0 -3,-2.64 -3,-4.81 0,-2.17 0.85,-4.79 3,-4.79 2.15,0 2.93,2.73 2.93,4.79 z m -2.94,-4.44 c -1.66,0 -2.1,2.3 -2.1,4.45 0,2.15 0.43,4.45 2.11,4.45 1.68,0 2.05,-2.34 2.05,-4.45 0,-2.11 -0.45,-4.45 -2.05,-4.45 h -0.02 z"
                id="path47-3"
                style="fill:#efefef" />
              <path
                class="cls-1"
                d="m 191.05,785.16 c 0.08,0.06 0.12,0.11 0.12,0.16 0,0.05 -0.05,0.09 -0.12,0.14 l -0.45,0.26 v 2.36 c 0,0.22 0.05,1.19 0.05,1.37 0,0.23 -0.06,0.29 -0.36,0.42 -0.16,0.06 -0.25,0.09 -0.31,0.09 -0.09,0 -0.09,-0.06 -0.09,-0.65 h -3.55 v 5.56 c 0,1.18 0.02,2.34 0.06,3.04 v 0.11 c 0,0.22 -0.06,0.28 -0.39,0.42 -0.14,0.06 -0.25,0.09 -0.31,0.09 -0.11,0 -0.14,-0.09 -0.14,-0.33 v -0.17 c 0.03,-0.92 0.05,-1.99 0.05,-3.2 v -8.41 c 0,-0.64 -0.03,-1.69 -0.06,-2.27 l 1.04,0.99 h 3.12 l 0.4,-0.64 0.95,0.65 z m -1.16,1.75 v -1.43 h -3.55 v 1.43 z m 0,2.05 v -1.71 h -3.55 v 1.71 z m 5.97,2.61 c 0.08,0.09 0.12,0.17 0.12,0.22 0,0.06 -0.08,0.09 -0.23,0.09 h -2.84 v 4.19 c 0,0.79 -0.06,0.9 -0.87,1.29 -0.08,0.03 -0.12,0.05 -0.16,0.05 -0.06,0 -0.08,-0.03 -0.09,-0.11 -0.08,-0.56 -0.42,-0.85 -1.74,-1.16 l 0.05,-0.25 c 0.88,0.16 1.4,0.23 1.69,0.23 0.37,0 0.4,-0.11 0.4,-0.33 v -3.91 h -0.14 c -1.44,2.11 -3.04,3.65 -4.89,4.73 l -0.12,-0.19 c 1.63,-1.24 3.2,-3.06 4.11,-4.55 h -2.7 c -0.33,0 -0.78,0.06 -1.04,0.17 l -0.43,-0.57 c 0.39,0.03 0.78,0.06 1.13,0.06 h 4.08 c 0,-0.68 -0.03,-1.24 -0.06,-1.75 l 0.95,0.42 c 0.09,0.05 0.14,0.08 0.14,0.11 0,0.05 -0.03,0.08 -0.31,0.29 v 0.93 h 1.55 l 0.65,-0.82 0.75,0.85 z m 2.24,-6.46 c 0.12,0.08 0.17,0.14 0.17,0.2 0,0.05 -0.05,0.09 -0.17,0.16 l -0.42,0.23 v 11.73 c 0,0.56 -0.09,0.7 -0.99,1.21 -0.05,0.03 -0.08,0.05 -0.11,0.05 -0.06,0 -0.11,-0.05 -0.12,-0.16 -0.11,-0.57 -0.47,-0.84 -2.11,-1.26 l 0.05,-0.25 c 0.99,0.19 1.6,0.28 1.99,0.28 0.53,0 0.57,-0.19 0.57,-0.57 v -7.43 h -3.6 c 0,0.23 -0.03,0.29 -0.31,0.39 -0.14,0.05 -0.23,0.08 -0.29,0.08 -0.11,0 -0.14,-0.08 -0.14,-0.25 0,-0.17 0.03,-0.99 0.03,-1.18 v -2.65 c 0,-0.39 -0.02,-0.82 -0.05,-1.33 l 0.99,0.82 h 3.1 l 0.5,-0.73 0.92,0.67 z m -1.15,1.85 v -1.44 h -3.6 v 1.44 z m 0,2 v -1.66 h -3.6 v 1.66 z"
                id="path48-9"
                style="fill:#efefef" />
              <path
                class="cls-1"
                d="m 205.81,788.51 c 0,0 0.08,0.08 0.08,0.11 0,0.03 -0.05,0.05 -0.16,0.05 h -2.72 v 4.93 l 2.16,-0.76 0.06,0.22 -3.21,1.61 c -0.68,0.34 -0.95,0.57 -1.12,0.85 -0.03,0.06 -0.06,0.09 -0.11,0.09 -0.02,0 -0.05,-0.02 -0.08,-0.05 l -0.76,-0.9 2.36,-0.82 v -5.18 h -1.09 c -0.29,0 -0.71,0.06 -0.95,0.15 l -0.39,-0.54 c 0.34,0.03 0.7,0.06 1.02,0.06 h 1.4 v -2.19 c 0,-0.61 -0.03,-1.61 -0.06,-2.16 l 1.24,0.61 c 0.09,0.05 0.14,0.08 0.14,0.12 0,0.03 -0.05,0.08 -0.12,0.12 l -0.5,0.33 v 3.17 h 1.24 l 0.62,-0.76 0.93,0.93 z m 8.63,2.27 c 0,0 0.08,0.08 0.08,0.11 0,0.05 -0.05,0.06 -0.16,0.06 h -6.64 c -0.23,0.47 -0.51,0.95 -0.84,1.4 h 5.6 l 0.47,-0.61 0.96,0.78 c 0.09,0.08 0.14,0.12 0.14,0.16 0,0.05 -0.05,0.08 -0.14,0.12 l -0.57,0.29 c -0.16,1.46 -0.33,2.68 -0.57,3.66 -0.2,0.76 -0.51,1.04 -1.44,1.54 -0.03,0.02 -0.06,0.03 -0.08,0.03 -0.05,0 -0.08,-0.05 -0.09,-0.12 -0.09,-0.5 -0.33,-0.81 -1.77,-1.27 l 0.06,-0.23 c 0.81,0.2 1.35,0.29 1.74,0.29 0.62,0 0.79,-0.25 0.93,-0.73 0.2,-0.71 0.4,-2.25 0.53,-3.58 h -1.46 c -1.01,3.12 -1.89,4.31 -5.97,5.66 l -0.05,-0.22 c 3.79,-1.63 4.64,-3.21 5.18,-5.45 h -1.4 c -0.9,1.99 -2.44,3.46 -5,4.62 l -0.11,-0.22 c 2.58,-1.46 3.82,-3.32 4.25,-4.41 h -1.44 c -0.88,1.24 -2,2.36 -3,3.1 l -0.12,-0.17 c 1.79,-1.83 2.84,-3.45 3.31,-4.66 h -1.41 c -0.29,0 -0.71,0.06 -0.95,0.16 l -0.39,-0.56 c 0.34,0.03 0.7,0.06 1.02,0.06 h 7.71 l 0.62,-0.82 0.99,0.99 z m -1.55,-5.61 c 0.06,0.05 0.09,0.08 0.09,0.11 0,0.03 -0.03,0.06 -0.06,0.08 l -0.64,0.34 v 2.72 c 0,0.17 0.03,1.06 0.03,1.12 0,0.14 -0.05,0.19 -0.33,0.31 -0.14,0.06 -0.23,0.08 -0.29,0.08 -0.09,0 -0.11,-0.06 -0.11,-0.19 v -0.54 h -4.42 v 0.4 c 0,0.25 -0.51,0.39 -0.64,0.39 -0.09,0 -0.11,-0.05 -0.11,-0.16 v -0.08 c 0.03,-0.47 0.05,-0.78 0.05,-1.43 v -2.78 c 0,-0.42 -0.01,-0.82 -0.05,-1.3 l 0.98,0.82 h 3.96 l 0.48,-0.68 1.05,0.79 z m -1.31,1.76 v -1.52 h -4.42 v 1.52 z m 0,1.92 v -1.58 h -4.42 v 1.58 z"
                id="path49-0"
                style="fill:#efefef" />
              <path
                class="cls-1"
                d="m 216.74,799.5 -0.23,-0.23 c 1.94,-1.83 2.82,-4.35 2.82,-6.77 0,-2.42 -0.85,-4.73 -2.87,-6.61 l 0.19,-0.23 c 2.78,2.14 3.74,4.64 3.74,6.84 0,2.75 -1.29,5.11 -3.65,7 z"
                id="path50-5"
                style="fill:#efefef" />
            </g>
          </g>
        </g>
      </g>
    </g>
  </g>
</svg>