<?xml version="1.0" encoding="UTF-8"?>
<svg id="Layer_2" xmlns="http://www.w3.org/2000/svg" viewBox="0 0 49.99 85.37">
  <defs>
    <style>
      .date_and_venue_cls-1 {
      fill: none;
      stroke: #c9caca;
      stroke-width: .21px;
      }

      .date_and_venue_cls-1, .date_and_venue_cls-2, .date_and_venue_cls-3 {
      stroke-miterlimit: 1.07;
      }

      .date_and_venue_cls-2 {
      stroke: #ededed;
      stroke-width: .03px;
      }

      .date_and_venue_cls-2, .date_and_venue_cls-3 {
      fill: #efefef;
      }

      .date_and_venue_cls-3 {
      stroke: #c9cac9;
      stroke-width: .04px;
      }

      .date_and_venue_cls-4 {
      fill: #f0efef;
      }
    </style>
  </defs>
  <g id="Layer_2-2" data-name="Layer_2">
    <g id="g60">
      <g id="Layer_2-2">
        <g id="Layer_2-2-2">
          <g id="Layer_1-2">
            <g id="_Layer_1-2-2">
              <g id="g59">
                <path id="path41" class="date_and_venue_cls-4"
                  d="M49.02,7.27h-.9v-.43h1.74s.06-.01.06-.04-.02-.05-.11-.11c-.2-.16-.23-.17-.26-.17-.02,0-.06.02-.24.22h-1.19v-.3c.11-.04.13-.07.13-.1,0-.06-.04-.07-.46-.12.02.11.03.2.03.49v.04h-1.34c-.12,0-.22,0-.36-.04l.04.16c.11-.01.21-.02.31-.02h1.34v.43h-.81c-.14-.07-.2-.1-.35-.16.03.19.03.37.03.67,0,.59-.02.76-.02.86,0,.07.04.1.13.1.13,0,.18-.04.18-.13v-.06h.66c-.39.53-.96.94-1.59,1.21-.02,0,0,.07.02.06.76-.22,1.29-.51,1.77-1.06-.02.47-.04.98-.04,1.1,0,.08.04.11.14.11.13,0,.2-.04.2-.13,0-.13-.02-.76-.04-1.25.22.34.46.58.69.75.21.16.46.29.69.39.09.04.17.06.21.06.03,0,.06-.02.09-.1.04-.1.1-.16.21-.19.02,0,.02-.04,0-.04-.31-.02-.64-.11-.96-.26-.34-.16-.63-.36-.86-.66h.87v.07c0,.09.03.11.13.11.13,0,.19-.04.19-.13,0-.08-.02-.32-.02-.84v-.3c.09-.06.1-.07.1-.1,0-.02,0-.06-.07-.1-.12-.1-.15-.11-.19-.11s-.05.02-.17.13h.02ZM47.82,7.38v.47h-.86v-.47h.86ZM47.82,7.96v.5h-.86v-.5h.86ZM48.12,7.38h.93v.47h-.93v-.47ZM48.12,7.95h.93v.5h-.93v-.5Z" />
                <path id="path42" class="date_and_venue_cls-4"
                  d="M46.14,13.66h0s0,.07.04.06c.51-.22.79-.45,1.09-.81.14,0,.18-.02.18-.06s-.1-.1-.39-.23c-.04.09-.07.17-.13.26-.18.26-.47.57-.79.79h0ZM49.29,10.8h-1.14v-.36c.11-.05.14-.08.14-.1,0-.05-.06-.09-.48-.13.02.15.02.21.02.29v.31h-1.34c-.11,0-.21,0-.34-.03l.04.16c.11-.01.19-.02.3-.02h3.36s.06-.01.06-.04-.02-.05-.11-.12c-.2-.16-.23-.18-.26-.18-.02,0-.06.02-.26.24h0v-.02ZM48.16,12.82h0v-.53h.74v.09c0,.09.03.13.13.13.11,0,.18-.04.18-.13,0-.06,0-.24,0-.64v-.19c.1-.06.11-.08.11-.11,0-.02-.02-.05-.09-.1-.14-.11-.16-.13-.19-.13-.02,0-.04.01-.18.15h-1.74c-.14-.09-.21-.11-.36-.16.02.16.02.28.02.5,0,.47-.02.59-.02.68s.04.11.14.11c.13,0,.18-.04.18-.15v-.04h.75v1.21s-.02.06-.06.06c-.14,0-.31,0-.56-.04-.02,0-.02.05,0,.06.33.07.44.13.46.26,0,.08.02.09.08.09.07,0,.17-.03.24-.06.11-.06.16-.12.16-.28v-.76h.03v-.02ZM48.91,12.19h-1.8v-.74h1.8v.74ZM49.2,13.38h0c.13.26.16.29.25.29s.16-.08.16-.19c0-.26-.37-.59-.96-.84-.02,0-.06.04-.04.06.28.22.46.44.59.69h0Z" />
                <path id="path43" class="date_and_venue_cls-4"
                  d="M48.12,15.42h1.72s.06-.01.06-.04-.02-.06-.11-.13c-.21-.16-.25-.19-.28-.19-.02,0-.06.02-.26.26h-1.19c0-.13.02-.26.03-.4s0-.29,0-.45c.11-.05.14-.07.14-.11,0-.06-.07-.09-.49-.14,0,.12.02.19.02.29,0,.3,0,.57-.04.81h-1.19c-.13,0-.24,0-.39-.03l.04.16c.14-.01.22-.02.35-.02h1.19c-.06.46-.16.8-.31,1.09-.28.51-.68.92-1.32,1.25-.02,0,0,.07.03.06.64-.21,1.06-.51,1.39-.93.28-.35.44-.76.54-1.39.11.62.31,1.1.59,1.46.19.25.49.54.79.72.11.07.18.11.22.11.02,0,.05-.02.06-.06.06-.13.1-.19.22-.22.02,0,.03-.04,0-.04-.38-.14-.76-.34-1.06-.64-.38-.36-.62-.79-.76-1.39h0v-.03Z" />
                <path id="path44" class="date_and_venue_cls-4"
                  d="M48.61,19.48h-1.4c-.12,0-.19-.01-.32-.04l.04.16c.1-.02.18-.03.29-.03h1.39c-.14.17-.27.3-.48.47-.07-.01-.16-.03-.31-.05,0,.12,0,.16,0,.37h-1.37c-.11,0-.19,0-.31-.03l.04.16c.11-.02.19-.02.28-.02h1.36v.9s-.02.07-.07.07c-.12,0-.3,0-.58-.04-.02,0-.03.05,0,.06.37.08.46.14.48.26,0,.07.02.09.09.09.13,0,.23-.04.3-.1.07-.06.11-.13.11-.26s0-.23,0-.64v-.33h1.71s.06-.01.06-.04-.02-.05-.11-.13c-.21-.16-.24-.18-.26-.18s-.06.02-.25.25h-1.14v-.15c.11-.04.13-.07.13-.1,0-.02,0-.04-.02-.04.24-.12.41-.23.66-.42.14-.01.19-.03.19-.07,0-.02-.02-.05-.08-.11-.16-.13-.18-.15-.21-.15-.02,0-.05.01-.19.14h-.03ZM46.68,19.06h2.74c-.04.16-.09.27-.16.4,0,.01.02.04.04.03.14-.09.26-.18.34-.27.03-.03.04-.04.09-.04.13,0,.16-.02.16-.09,0-.02-.02-.06-.1-.13-.17-.16-.19-.18-.22-.18s-.06.02-.19.16h-.69c.19-.15.38-.33.54-.51.14,0,.18-.02.18-.07,0-.04-.07-.1-.41-.24-.03.1-.07.21-.13.34-.09.16-.19.33-.29.48h-1.91c0-.06,0-.11-.02-.18,0-.02-.04-.02-.04,0-.03.26-.1.39-.3.49-.1.06-.13.1-.13.17,0,.09.07.16.17.16.19,0,.34-.21.34-.55h0v.03ZM47.05,18.68h0c.04.16.07.19.16.19.1,0,.17-.09.17-.18,0-.19-.19-.38-.54-.49-.02,0-.04.02-.02.04.1.11.18.27.22.44h.01ZM47.93,18.63h0c.03.16.06.19.15.19.1,0,.18-.08.18-.19,0-.19-.19-.39-.54-.51-.02,0-.04.02-.03.04.11.13.2.3.24.47Z" />
                <path id="path45" class="date_and_venue_cls-4"
                  d="M47.9,24.01h-.48v-.49h1.04s.06,0,.06-.04-.02-.06-.1-.11c-.19-.15-.21-.17-.24-.17-.02,0-.06.02-.22.22h-.54v-.55h.86s.06,0,.06-.04-.02-.06-.1-.11c-.16-.14-.19-.16-.22-.16s-.06.02-.21.21h-.38v-.49c.11-.04.14-.07.14-.1,0-.06-.06-.08-.45-.12,0,.12.02.27.02.71h-.44c.06-.09.1-.19.14-.29.11-.03.15-.05.15-.09s-.04-.06-.4-.15c0,.11-.04.26-.09.39-.07.23-.19.47-.33.65,0,.02.02.06.04.04.18-.14.31-.28.42-.44h.5v.55h-.74c-.11,0-.19,0-.3-.03l.04.15c.1,0,.17-.02.26-.02h.74v.49h-.47c-.13-.08-.19-.11-.33-.16,0,.15,0,.29,0,.59,0,.52,0,.69,0,.81,0,.07.03.1.12.1.12,0,.18-.04.18-.13v-1.11h.51c0,.98-.02,1.39-.02,1.54,0,.09.04.13.14.13.12,0,.18-.05.18-.14v-1.52h.51v.86s-.02.06-.06.06c-.06,0-.15,0-.31-.02-.02,0-.02.04,0,.05.23.06.26.09.28.21,0,.04.02.06.07.06.08,0,.17-.04.22-.09.06-.04.09-.1.09-.21v-.84c.09-.06.11-.09.11-.11s-.02-.05-.07-.1c-.13-.1-.15-.11-.18-.11-.02,0-.04,0-.17.13h-.03ZM48.95,23.17h0v-.56c.11-.04.13-.07.13-.1,0-.06-.06-.08-.44-.11.02.22.02.4.02,1.09,0,.83-.02,1.14-.02,1.23s.04.11.13.11c.13,0,.19-.04.19-.13,0-.13-.02-.58-.02-1.51h.02v-.02ZM49.71,23.75v-1.41c.1-.04.13-.07.13-.11,0-.06-.04-.07-.45-.11.02.15.03.22.03.69v2.51s-.02.07-.07.07c-.13,0-.33,0-.56-.04-.02,0-.03.05,0,.06.36.07.45.13.47.25.02.07.04.09.1.09.08,0,.18-.03.24-.07.1-.06.14-.12.14-.29s-.02-.48-.02-1.63h0Z" />
                <path id="path46" class="date_and_venue_cls-4"
                  d="M46.93,29.58h0v-2.12c.1-.04.12-.07.12-.1,0-.04-.04-.06-.24-.09.21-.29.37-.61.51-.99.11-.02.16-.04.16-.09s-.15-.11-.46-.2c0,.13-.04.26-.09.39-.16.53-.51,1.15-.89,1.57-.02.02.02.06.05.04.21-.16.39-.34.54-.51v.79c0,.95-.02,1.24-.02,1.32s.06.11.14.11c.11,0,.18-.05.18-.14h0v.02ZM49.29,26.74h-1.23c.07-.15.14-.3.2-.47.12,0,.18-.04.18-.09s-.13-.1-.47-.19c0,.1-.04.2-.06.3-.14.54-.44,1.13-.77,1.54-.02.02.03.06.06.04.36-.3.61-.63.83-1.03h.18v1.74c0,.66-.02.92-.02,1,0,.09.04.13.14.13.14,0,.2-.04.2-.15,0-.14,0-.54,0-1.07h1.2s.06,0,.06-.04-.02-.06-.09-.11c-.17-.14-.2-.16-.23-.16-.02,0-.06.02-.22.21h-.71v-.75h1.19s.06,0,.06-.04-.02-.06-.1-.11c-.16-.13-.2-.15-.22-.15s-.06.02-.22.21h-.7v-.69h1.32s.06,0,.06-.04c0-.02-.02-.05-.1-.12-.19-.15-.21-.16-.24-.16-.02,0-.06.02-.24.23h-.02l-.03-.03Z" />
                <path id="path47" class="date_and_venue_cls-4"
                  d="M48.16,32.29h1.64s.06,0,.06-.04-.02-.06-.1-.11c-.19-.16-.21-.18-.24-.18-.02,0-.06.02-.24.22h-.54v-.61h.83s.06,0,.06-.04-.02-.06-.09-.11c-.17-.14-.19-.16-.22-.16-.02,0-.06.02-.22.21h-.36v-.21c.11-.04.13-.08.13-.1,0-.04-.04-.07-.44-.11.02.14.02.24.02.38v.06h-.67v-.22c.1-.04.13-.08.13-.1,0-.04-.04-.07-.44-.11,0,.14.02.25.02.38v.06h-.31c-.11,0-.19,0-.31-.02l.04.16c.11-.02.18-.03.27-.03h.31v.61h-.79c.06-.42.09-.85.09-1.27h2.46v.02c0,.1.02.13.12.13.11,0,.19-.04.19-.11v-.59c.1-.06.11-.09.11-.12,0-.02-.02-.04-.09-.1-.13-.11-.16-.13-.19-.13-.02,0-.04,0-.18.16h-2.39c-.1-.06-.21-.1-.39-.18.02.21.02.34.02.83,0,.69-.02,1.14-.07,1.53-.07.49-.18.84-.36,1.24,0,.02.04.06.06.03.3-.38.45-.72.55-1.16,0-.06.02-.11.04-.18h.58v.96c-.11,0-.23,0-.35.02h-.19c.1.41.1.42.15.42.04,0,.07-.04.1-.13.64-.13.96-.23,1.47-.44.02,0,0-.06-.02-.06-.29.06-.58.11-.87.15v-.94h.49c.19.42.4.7.64.9.21.18.48.34.76.42.1.03.16.04.2.04s.06-.02.08-.09c.04-.13.08-.16.19-.19.02,0,.02-.04,0-.04-.4-.04-.78-.14-1.07-.31-.07-.04-.14-.09-.2-.13.21-.07.36-.14.56-.26.14.02.19,0,.19-.04s-.1-.11-.33-.25c-.02.06-.06.11-.13.18-.09.1-.21.21-.36.31-.18-.15-.31-.34-.42-.54h0v-.03h.04l-.02.02ZM49.28,30.82h-2.46v-.54h2.46v.54ZM48.47,31.58v.61h-.67v-.61h.67Z" />
                <path id="path48" class="date_and_venue_cls-4"
                  d="M48.09,36.85h-.69c.13-.2.26-.38.69-.79.39-.38.74-.57.74-1.08,0-.39-.3-.71-.81-.71s-.84.42-.84.68c0,.11.07.15.16.15.14,0,.29-.07.29-.18,0-.13,0-.23.04-.29.06-.12.16-.22.36-.22.26,0,.4.24.4.56,0,.37-.19.59-.54,1.01-.35.42-.49.64-.74,1.02-.02.04-.03.04-.03.1s0,.07.05.07c.27,0,.51,0,.78,0s.5,0,.77,0c.07-.21.16-.5.21-.71,0-.02,0-.04-.04-.05s-.06,0-.06.02c-.06.13-.12.23-.22.31-.08.06-.16.09-.5.09h0v.02Z" />
                <path id="path49" class="date_and_venue_cls-4"
                  d="M48.03,38.22c-.54,0-.86.59-.86,1.51s.33,1.47.86,1.47.86-.58.86-1.49-.32-1.48-.86-1.48h0ZM48.03,38.35c.36,0,.44.54.44,1.36s-.09,1.36-.44,1.36-.46-.53-.46-1.36.1-1.36.46-1.36Z" />
                <path id="path50" class="date_and_venue_cls-4"
                  d="M48.09,44.75h-.69c.13-.2.26-.38.69-.79.39-.38.74-.57.74-1.08,0-.39-.3-.71-.81-.71s-.84.42-.84.68c0,.11.07.15.16.15.14,0,.29-.07.29-.18,0-.13,0-.23.04-.29.06-.12.16-.22.36-.22.26,0,.4.24.4.56,0,.37-.19.59-.54,1.01-.35.42-.49.64-.74,1.02-.02.04-.03.04-.03.1s0,.07.05.07c.27,0,.51,0,.78,0s.5,0,.77,0c.07-.21.16-.5.21-.71,0-.02,0-.04-.04-.05s-.06,0-.06.02c-.06.13-.12.23-.22.31-.08.06-.16.09-.5.09h0v.02Z" />
                <path id="path51" class="date_and_venue_cls-4"
                  d="M48.53,48.43h0v-.18h.39s.04,0,.04-.02l.04-.13s0-.03-.02-.03c-.15,0-.29.02-.43.02v-.94c.02-.37.02-.7.03-1.02,0-.04,0-.04-.03-.04l-.28.07c-.41.65-.73,1.15-1.13,1.81-.03.05-.04.1-.04.16,0,.09,0,.1.05.1h1.04v.18c0,.21,0,.32-.06.41-.03.06-.17.07-.28.09-.03,0-.04,0-.04.06s0,.06.04.06c.15,0,.36-.02.51-.02s.35,0,.5.02c.02,0,.04,0,.04-.06s0-.06-.04-.06c-.14,0-.27-.02-.31-.1-.04-.1-.04-.14-.04-.4h0v.02ZM48.18,47.24h0v.86h-.89c-.06,0-.06-.02-.04-.06.29-.51.62-1.04.94-1.54,0,.27-.02.44-.02.74h.01Z" />
                <path id="path52" class="date_and_venue_cls-4"
                  d="M43.57,23.28h-.33l-.04.11c-.04-.12-.15-.16-.26-.16-.56,0-1.06.71-1.06,1.24,0,.31.15.44.44.44.18,0,.34-.09.49-.31-.06.26.14.31.36.31.69,0,1.06-.63,1.06-1.07,0-.76-.58-1.27-1.44-1.27s-1.69.64-1.69,1.62c0,.86.59,1.41,1.52,1.41.5,0,.79-.14,1.11-.37.02,0,.02-.03,0-.06-.03-.03-.06-.02-.08,0-.28.19-.61.3-1.01.3-.68,0-1.27-.42-1.27-1.28s.61-1.49,1.41-1.49,1.19.53,1.19,1.15c0,.56-.38.95-.74.95-.11,0-.16-.04-.16-.12s.04-.2.1-.35c.07-.26.29-.83.37-1.06h0l.02.02ZM42.24,24.55h0c0-.41.31-1.21.74-1.21.09,0,.13.05.13.18,0,.11-.04.27-.12.52-.22.67-.48.76-.59.76s-.16-.09-.16-.26h0Z" />
                <path id="path53" class="date_and_venue_cls-4"
                  d="M42.48,28.92h-.56c-.11,0-.19,0-.32-.03l.04.16c.12,0,.2-.02.3-.02h.54c0,.49-.02.75-.02.81,0,.09.04.11.14.11.13,0,.21-.04.21-.14s0-.33,0-.79h.83s.06,0,.06-.04-.02-.06-.1-.11c-.18-.14-.2-.16-.23-.16s-.06.02-.21.21h-.35c0-.54-.02-1.09-.03-1.62.19.48.38.79.59,1.06.23.29.54.56.84.75.09.06.15.08.18.08s.04-.02.06-.06c.06-.15.11-.2.23-.22.02,0,.02-.04,0-.04-.39-.13-.82-.36-1.14-.66-.26-.24-.5-.55-.7-.98h1.63s.06,0,.06-.04-.02-.05-.11-.12c-.2-.16-.24-.18-.26-.18s-.06.02-.24.24h-1.12v-.67c.11-.06.14-.09.14-.11,0-.06-.08-.09-.47-.11.02.15.02.29.02.75v.15h-1.24c-.13,0-.21,0-.36-.03l.04.16c.13,0,.21-.02.33-.02h1.07c-.3.74-.91,1.5-1.59,1.96-.02.02.02.06.04.06.71-.34,1.32-.95,1.74-1.68,0,.46,0,.91-.02,1.36h0v-.02h0-.02Z" />
                <path id="path54" class="date_and_venue_cls-4"
                  d="M41.61,32.3h0c-.16.02-.34.06-.5.07.3-.31.51-.63.74-1.03.12,0,.15-.03.15-.06s-.1-.11-.38-.22c-.02.09-.07.22-.13.36-.13.31-.34.67-.53.96h-.26c.07.3.11.39.16.39.04,0,.06-.03.08-.13.27-.09.47-.15.64-.24-.15.54-.44.99-.88,1.37-.02.02,0,.07.04.06.69-.41,1.01-.89,1.2-1.64.1-.02.11-.04.11-.09s-.02-.06-.39-.17c0,.11-.02.24-.06.36h0ZM41.31,31.48h0c0-.1-.06-.21-.16-.3.2-.21.35-.43.5-.7.12,0,.16-.03.16-.07s-.1-.1-.41-.19c0,.07-.03.18-.07.31-.06.17-.14.37-.26.59-.08-.06-.18-.11-.3-.16-.02,0-.04.02-.02.04.14.14.23.29.28.49.04.16.06.19.14.19s.15-.08.15-.18h0v-.02ZM42.35,33.17h0v-1.09h.54v.07c0,.09.03.11.11.11.12,0,.17-.04.17-.13s-.02-.38-.02-1.05v-.44c.09-.06.1-.07.1-.1s0-.06-.07-.1c-.11-.09-.13-.1-.16-.1s-.05,0-.16.12h-.5c-.12-.07-.18-.1-.33-.16.02.36.02.76.02,1.29v1.63s-.08,0-.11.02c-.08,0-.15,0-.24.02.11.38.13.4.16.4.04,0,.06-.04.09-.14.36-.13.66-.27.95-.44,0,.02,0,.04,0,.07.04.21.07.26.16.26s.15-.08.15-.19c0-.26-.22-.57-.54-.79-.02,0-.06,0-.04.04.1.15.19.32.24.54-.18.06-.36.11-.56.16h.03ZM42.89,31.21h-.54v-.64h.54v.64ZM42.35,31.31h.54v.67h-.54v-.67ZM43.71,32.87h0v-2.31h.49c-.09.46-.18.84-.31,1.15.27.3.38.63.38.96,0,.15,0,.23-.06.26-.02.02-.06.04-.1.04-.09,0-.18,0-.33-.02-.02,0-.02.05,0,.06.23.06.27.11.29.23,0,.06.03.07.06.07.11,0,.21-.06.28-.13.09-.09.13-.24.13-.44,0-.39-.16-.72-.56-1.04.19-.3.39-.67.51-1.04.09-.02.11-.04.11-.08,0-.03-.02-.06-.08-.13-.11-.11-.15-.14-.19-.14-.02,0-.04.02-.16.15h-.44c-.13-.07-.19-.1-.33-.16.02.15.02.72.02,1.65s0,1.61,0,1.85c0,.07.04.11.12.11.11,0,.18-.04.18-.13s0-.31,0-.91Z" />
                <path id="path55" class="date_and_venue_cls-4"
                  d="M43.49,35.75h0c-.21.04-.39.09-.66.14-.04-.21-.07-.39-.11-.59.29-.06.51-.11.73-.16.1-.02.17-.04.24-.04.05,0,.07-.04.07-.09,0-.04-.04-.09-.1-.1-.06-.02-.15-.03-.22-.03-.05,0-.11.02-.16.06-.04.04-.07.05-.1.06-.16.04-.33.09-.51.13-.04-.19-.06-.33-.06-.43,0-.06,0-.09.03-.11s.04-.06.04-.09c0-.06-.05-.1-.15-.14-.11-.04-.21-.06-.32-.06-.06,0-.12.02-.16.05-.02,0-.06.04-.06.07,0,.02,0,.04.04.04.1,0,.18,0,.21.04.03.03.05.06.06.11.04.15.07.31.13.59-.18.04-.36.09-.51.11-.1.02-.18.04-.24.04-.11,0-.19-.04-.28-.09-.02,0-.04-.02-.06-.02s-.04.02-.04.06.04.1.15.19c.09.09.18.13.24.13.04,0,.07,0,.1-.04.04-.03.13-.04.22-.06.13-.04.27-.07.44-.11.04.2.07.39.11.59-.3.07-.59.14-.84.2-.11.03-.21.05-.27.05s-.13-.02-.24-.08c-.02,0-.05-.03-.06-.03-.02,0-.03.02-.03.05,0,.04.02.08.05.11.11.12.29.22.38.22.06,0,.09,0,.13-.06.02-.02.07-.05.19-.09.21-.07.44-.13.71-.19.06.35.14.82.19,1.15.02.12.06.18.15.17.09,0,.16-.06.16-.13,0-.06-.02-.14-.04-.21-.06-.29-.14-.67-.21-1.04.4-.09.61-.11.81-.14.11,0,.22,0,.29,0,.11,0,.16-.04.16-.11,0-.05-.04-.09-.1-.12-.06-.03-.15-.04-.24-.05-.07,0-.12,0-.16.04-.03.02-.07.05-.13.06h0l.02-.03h0Z" />
                <path id="path56" class="date_and_venue_cls-4"
                  d="M43.85,38.5h0c-.22.06-.5.14-.81.23-.02-.13-.05-.22-.06-.33v-.09s0-.04.02-.06.02-.04.02-.07c0-.04-.02-.07-.15-.13-.08-.04-.16-.07-.24-.07-.06,0-.09,0-.14.05s-.07.06-.07.09,0,.03.04.03h.1s.07,0,.09.04c.02.04.04.09.06.16.04.12.07.26.11.44-.21.06-.41.11-.59.16-.1.02-.16.03-.21.03-.06,0-.11-.04-.19-.1-.02-.02-.03-.03-.04-.03s-.03.03-.03.06c0,.09.04.15.14.24.1.1.14.11.19.11.04,0,.07-.02.09-.04s.06-.04.12-.07c.15-.06.33-.11.56-.19.02.09.04.19.07.31.07.31.15.67.23,1.03,0,.09.07.1.15.1.06,0,.11-.06.11-.11s-.02-.11-.04-.19c-.07-.28-.15-.56-.23-.86-.03-.13-.06-.23-.09-.34.29-.09.66-.19.89-.26.02,0,.04,0,.02.03-.19.27-.35.45-.51.63-.02.02-.04.04-.04.06s.02.04.04.04.04,0,.07-.03c.23-.16.48-.39.66-.56.04-.03.06-.04.11-.05.07,0,.1-.04.1-.09s-.03-.09-.13-.16c-.13-.09-.18-.11-.22-.11s-.06,0-.1.05c-.03.03-.06.06-.11.07h.02v-.02Z" />
                <path id="path57" class="date_and_venue_cls-4"
                  d="M41.56,40.95h-.09s-.04.02-.04.04,0,.04.04.05c.1.06.21.15.3.26.09.1.13.19.18.27.06.1.09.14.18.14s.16-.07.16-.18c0-.15-.06-.26-.25-.37-.12-.08-.29-.15-.46-.19h0l-.02-.02ZM44.23,41.1h0s-.04-.06-.06-.06c0,0-.04,0-.06.04-.26.33-.62.66-1,.98-.36.3-.75.58-1.11.78-.09.06-.16.07-.19.07-.07,0-.11-.04-.2-.14-.03-.04-.04-.04-.06-.04-.03,0-.04.04-.04.1,0,.09.05.19.18.33.09.09.17.16.27.16.06,0,.1-.03.13-.09.02-.02.06-.06.1-.09.39-.29.75-.56,1.09-.88.36-.34.69-.7.93-1.09.02-.03.03-.06.03-.07h0Z" />
                <path id="path58" class="date_and_venue_cls-4"
                  d="M41.92,44.45h0c.1.07.14.11.14.16,0,.06-.04.11-.11.21-.11.14-.26.29-.41.44-.2.18-.43.35-.69.51-.04.02-.06.04-.06.06,0,.04.02.06.06.06.02,0,.06,0,.1-.04.26-.1.51-.26.75-.42.21-.15.39-.31.56-.48.05-.04.08-.07.11-.09.07-.02.1-.06.1-.12,0-.1-.11-.21-.24-.3-.1-.07-.19-.1-.24-.1s-.1.02-.1.05l.05.06h-.02ZM44.04,45.5c.13,0,.18-.07.18-.21,0-.16-.19-.41-.38-.57-.21-.18-.44-.31-.67-.41-.06-.02-.09-.04-.11-.04s-.05,0-.05.05c0,.02.02.04.07.08.16.11.3.24.43.38.14.16.24.33.36.57.05.1.1.16.19.16h-.02ZM44.02,43.47c-.21,0-.38.16-.38.36s.17.36.38.36.38-.16.38-.36-.17-.36-.38-.36ZM44.02,43.6c.14,0,.24.1.24.24s-.11.24-.24.24-.24-.11-.24-.24.11-.24.24-.24Z" />
                <path id="path59" class="date_and_venue_cls-4"
                  d="M43.86,48.6h0c-.25-.23-.61-.41-.99-.57.21-.25.42-.54.54-.71.05-.08.11-.13.18-.15.09-.04.1-.05.1-.09,0-.05-.03-.1-.15-.19-.09-.08-.13-.1-.19-.1-.04,0-.07.02-.1.04-.04.03-.07.06-.14.06-.31.04-.66.07-.98.1-.12,0-.26.02-.33.02-.09,0-.16-.06-.28-.16-.02-.02-.06-.05-.07-.05-.02,0-.04.04-.04.09,0,.07.04.13.11.23.09.11.19.19.26.19.06,0,.09-.02.12-.04.04-.02.09-.04.17-.06.42-.09.9-.14,1.09-.16h.04s0,.02-.02.04c-.25.41-.48.72-.79,1.03-.41.43-.86.72-1.35.99-.02.01-.04.04-.04.06s.02.05.04.05c.03,0,.07,0,.11-.03.24-.09.54-.23.81-.41.29-.19.56-.41.81-.69.41.24.71.51.99.9.06.09.12.13.18.13.1,0,.17-.06.17-.17s-.11-.24-.26-.38h0v.03Z" />
              </g>
            </g>
            <g id="g51">
              <g id="g2">
                <path id="path1" class="date_and_venue_cls-3"
                  d="M.08,12.85s-.06-.03-.06-.1c0-.06.02-.1.05-.13.05-.03.14-.05.27-.07.13-.01.26-.03.4-.06.14-.02.26-.06.36-.1.1-.04.16-.11.16-.2.06-.93.09-1.86.08-2.79,0-.93,0-1.87,0-2.79v-2.71c0-.11,0-.21,0-.32s0-.22-.01-.33c-.03-.18-.08-.28-.15-.29-.07,0-.15,0-.24.01-.02,0-.06,0-.13.01s-.14.02-.21.03-.16.02-.27.03c-.04-.02-.06-.04-.06-.07,0-.03,0-.07,0-.13,0-.03.01-.06.04-.09.02-.03.05-.05.09-.07s.07-.04.1-.05.06-.03.07-.04c.24-.12.48-.21.72-.29.24-.08.48-.16.73-.25.11-.03.22-.06.33-.09.11-.03.22-.04.32-.03.02,0,.05,0,.07.02.02.01.03.05.03.09v10.02c0,.14.05.23.14.3.09.06.2.11.33.13.12.02.25.04.37.05.12,0,.22.03.28.07.04.03.06.07.06.14,0,.06-.02.09-.06.09H.08Z" />
                <path id="path2" class="date_and_venue_cls-3"
                  d="M5.78,12.85s-.06-.03-.06-.1c0-.06.02-.1.05-.13.05-.03.14-.05.27-.07.13-.01.26-.03.4-.06.14-.02.26-.06.36-.1.1-.04.16-.11.16-.2.06-.93.09-1.86.08-2.79,0-.93,0-1.87,0-2.79v-2.71c0-.11,0-.21,0-.32s0-.22-.01-.33c-.03-.18-.08-.28-.15-.29-.07,0-.15,0-.24.01-.02,0-.06,0-.13.01s-.14.02-.21.03-.16.02-.27.03c-.04-.02-.06-.04-.06-.07,0-.03,0-.07,0-.13,0-.03.01-.06.04-.09.02-.03.05-.05.09-.07s.07-.04.1-.05.06-.03.07-.04c.24-.12.48-.21.72-.29.24-.08.48-.16.73-.25.11-.03.22-.06.33-.09.11-.03.22-.04.32-.03.02,0,.05,0,.07.02.02.01.03.05.03.09v10.02c0,.14.05.23.14.3.09.06.2.11.33.13.12.02.25.04.37.05.12,0,.22.03.28.07.04.03.06.07.06.14,0,.06-.02.09-.06.09h-3.81,0Z" />
              </g>
              <g id="g4">
                <path id="path3" class="date_and_venue_cls-3"
                  d="M14.7,26.42c-.41-.04-.76-.2-1.04-.49-.32-.34-.57-.76-.76-1.28-.19-.52-.32-1.08-.39-1.7-.07-.62-.11-1.22-.11-1.79,0-.27.01-.59.03-.96s.06-.74.12-1.14c.06-.39.14-.78.24-1.16.1-.38.22-.72.36-1.02s.31-.54.51-.73c.2-.19.42-.28.69-.28h.34v.33c-.11.05-.21.13-.3.26-.14.19-.25.44-.33.74-.09.3-.15.64-.19,1.03s-.08.76-.1,1.13c-.02.37-.03.72-.03,1.04v1.53c0,.32.01.66.03,1.03.02.37.06.75.1,1.13.04.38.11.73.2,1.03.09.31.2.56.33.76.09.12.19.2.3.25v.3h0ZM16.34,24.84l-3.14-6.77.3-.27,3.14,6.77-.3.27ZM15.42,15.88c.26,0,.49.09.7.27.2.18.38.43.53.73s.27.65.38,1.03c.1.38.19.76.25,1.16s.11.77.13,1.14.04.68.04.96c0,.38-.01.78-.04,1.19s-.08.82-.15,1.22c-.07.4-.18.78-.31,1.14-.13.36-.3.68-.5.96-.14.18-.29.34-.46.49-.17.14-.35.23-.55.28-.08.02-.16.02-.25.01h-.12v-.3c.16-.05.29-.15.39-.31.14-.23.24-.48.31-.75.09-.28.15-.59.18-.92s.06-.67.07-1.01.02-.68.02-1.02v-.98c0-.19,0-.45,0-.77,0-.32,0-.67-.01-1.05-.01-.37-.04-.75-.08-1.12-.04-.37-.1-.71-.19-1.02s-.2-.55-.33-.75c-.11-.15-.25-.25-.41-.27v-.3h.4Z" />
                <path id="path4" class="date_and_venue_cls-3"
                  d="M20.88,25.69s-.02.07-.03.14c-.01.06-.03.13-.04.19-.02.06-.04.12-.06.16s-.05.07-.08.07h-1.11c-.08,0-.1-.04-.07-.12l.25-.72c.05-.15.11-.29.17-.42s.12-.27.17-.41l.5-1.29c.3-.78.61-1.56.92-2.32.31-.76.62-1.53.93-2.32.03-.08.06-.17.09-.26.03-.09.06-.17.1-.25.03-.05.07-.1.14-.18.07-.07.1-.14.08-.2,0-.02-.02-.05-.04-.11-.02-.05-.04-.08-.06-.08h-4.02c-.07,0-.11-.05-.11-.14v-1.31c0-.09.04-.14.11-.14h4.49c.07,0,.11.05.11.14v.77c0,.08,0,.13,0,.15l-2.4,8.66h0Z" />
              </g>
              <g id="g6">
                <path id="path5" class="date_and_venue_cls-3"
                  d="M1.02,54.54s-.07-.03-.07-.1c0-.05.02-.1.06-.12.05-.03.15-.05.29-.06.14-.01.28-.03.43-.05.15-.02.28-.05.39-.1.11-.04.17-.1.18-.18.07-.88.09-1.75.09-2.63,0-.88,0-1.76,0-2.63v-2.56c0-.1,0-.2,0-.3,0-.1,0-.2-.01-.31-.03-.17-.09-.26-.16-.27-.08,0-.16,0-.26.01-.02,0-.07,0-.14.01-.07,0-.15.02-.22.03s-.17.02-.29.03c-.04-.02-.06-.04-.07-.07s0-.07,0-.12c0-.03.01-.05.04-.08.03-.03.06-.05.09-.07.04-.02.07-.03.11-.05s.07-.02.08-.03c.26-.11.51-.2.77-.27s.52-.15.78-.23c.12-.03.24-.05.36-.08.12-.03.24-.04.35-.03.03,0,.05,0,.07.02.02.01.03.04.03.09v9.44c0,.13.05.22.15.28.1.06.22.1.35.12.13.02.27.04.4.05.13,0,.23.03.3.07.04.03.06.07.06.13s-.02.09-.06.09H1.02Z" />
                <path id="path6" class="date_and_venue_cls-3"
                  d="M7.13,54.54s-.07-.03-.07-.1c0-.05.02-.1.06-.12.05-.03.15-.05.29-.06.14-.01.28-.03.43-.05.15-.02.28-.05.39-.1.11-.04.17-.1.18-.18.07-.88.09-1.75.09-2.63,0-.88,0-1.76,0-2.63v-2.56c0-.1,0-.2,0-.3,0-.1,0-.2-.01-.31-.03-.17-.09-.26-.16-.27s-.16,0-.26.01c-.02,0-.07,0-.14.01-.07,0-.15.02-.22.03s-.17.02-.29.03c-.04-.02-.06-.04-.07-.07s0-.07,0-.12c0-.03.01-.05.04-.08.03-.03.06-.05.09-.07.04-.02.07-.03.11-.05.04-.01.07-.02.08-.03.26-.11.51-.2.77-.27s.52-.15.78-.23c.12-.03.24-.05.36-.08.12-.03.24-.04.35-.03.03,0,.05,0,.07.02.02.01.03.04.03.09v9.44c0,.13.05.22.15.28s.22.1.35.12c.13.02.27.04.4.05.13,0,.23.03.3.07.04.03.06.07.06.13s-.02.09-.06.09h-4.09,0Z" />
              </g>
              <g id="g8">
                <path id="path7" class="date_and_venue_cls-3"
                  d="M13.41,68.67s-.07-.03-.07-.1c0-.05.02-.1.06-.12.05-.03.15-.05.29-.06s.28-.03.43-.05c.15-.02.28-.05.39-.1.11-.04.17-.1.18-.18.07-.88.09-1.75.09-2.63,0-.88,0-1.76,0-2.63v-2.56c0-.1,0-.2,0-.3,0-.1,0-.2-.01-.31-.03-.17-.09-.26-.16-.27s-.16,0-.26.01c-.02,0-.07,0-.14.01-.07,0-.15.02-.22.03s-.17.02-.29.03c-.04-.02-.06-.04-.07-.07s0-.07,0-.12c0-.03.01-.05.04-.08.03-.03.06-.05.09-.07.04-.02.07-.03.11-.05s.07-.02.08-.03c.26-.11.51-.2.77-.27s.52-.15.78-.23c.12-.03.24-.05.36-.08.12-.03.24-.04.35-.03.03,0,.05,0,.07.02.02.01.03.04.03.09v9.44c0,.13.05.22.15.28s.22.1.35.12.27.04.4.05c.13,0,.23.03.3.07.04.03.06.07.06.13s-.02.09-.06.09h-4.09,0Z" />
                <path id="path8" class="date_and_venue_cls-3"
                  d="M19.52,68.67s-.07-.03-.07-.1c0-.05.02-.1.06-.12.05-.03.15-.05.29-.06s.28-.03.43-.05c.15-.02.28-.05.39-.1.11-.04.17-.1.18-.18.07-.88.09-1.75.09-2.63,0-.88,0-1.76,0-2.63v-2.56c0-.1,0-.2,0-.3,0-.1,0-.2-.01-.31-.03-.17-.09-.26-.16-.27s-.16,0-.26.01c-.02,0-.07,0-.14.01-.07,0-.15.02-.22.03s-.17.02-.29.03c-.04-.02-.06-.04-.07-.07s0-.07,0-.12c0-.03.01-.05.04-.08.03-.03.06-.05.09-.07.04-.02.07-.03.11-.05s.07-.02.08-.03c.26-.11.51-.2.77-.27s.52-.15.78-.23c.12-.03.24-.05.36-.08.12-.03.24-.04.35-.03.03,0,.05,0,.07.02.02.01.03.04.03.09v9.44c0,.13.05.22.15.28s.22.1.35.12.27.04.4.05c.13,0,.23.03.3.07.04.03.06.07.06.13s-.02.09-.06.09h-4.09,0Z" />
              </g>
              <line id="line8" class="date_and_venue_cls-1" x1="13.46" y1="12.17" x2="8.43" y2="20.67" />
              <line id="line9" class="date_and_venue_cls-1" x1="14.85" y1="53.21" x2="9.82" y2="61.72" />
              <line id="line10" class="date_and_venue_cls-1" x1="10.95" y1="36.22" x2="10.95" y2="39.91" />
              <g id="g15">
                <path id="path10" class="date_and_venue_cls-2"
                  d="M16.92,2.36V.01h.5v.03c-.34.03-.35.05-.35.26v1.75c0,.21,0,.24.35.27v.03h-.5Z" />
                <path id="path11" class="date_and_venue_cls-2"
                  d="M17.79,1.89c.29-.01.32-.06.32-.28V.48c0-.22-.03-.27-.29-.28v-.04h.93c.39,0,.69.06.89.22.17.14.26.34.26.58,0,.75-.73.96-1.37.96h-.73v-.04h0ZM18.27,1.59c0,.22.05.26.37.26.78,0,1.04-.45,1.04-.83,0-.32-.15-.61-.45-.74-.14-.05-.35-.08-.66-.08-.16,0-.25,0-.28,0-.02,0-.03,0-.03.05v1.32h0Z" />
                <path id="path12" class="date_and_venue_cls-2"
                  d="M21.09,1.96s-.07-.02-.1-.05c-.04-.04-.05-.07-.07-.13-.12.08-.27.18-.39.18-.22,0-.37-.15-.37-.32,0-.13.1-.22.32-.28.16-.04.36-.11.44-.15,0-.14,0-.38-.29-.38-.05,0-.22.01-.28.24,0,.02-.03.05-.07.05s-.1-.04-.1-.1c0-.04.04-.08.09-.1.08-.05.29-.16.45-.2.16,0,.35.09.35.34v.61c0,.12.05.16.12.16.05,0,.1-.02.14-.04l.03.05-.27.12h0ZM20.92,1.28c-.07.03-.27.1-.34.13-.14.05-.23.1-.23.21,0,.15.13.22.25.22.11,0,.25-.07.32-.14v-.41h0Z" />
                <path id="path13" class="date_and_venue_cls-2"
                  d="M22.06,1.93c-.06.03-.09.03-.13.03-.18,0-.26-.11-.26-.31v-.81h-.23v-.03s.08-.06.08-.06h.15v-.16l.11-.19h.04s0,.35,0,.35h.38s0,.02,0,.03c0,.02,0,.04-.03.06h-.36v.74c0,.23.09.28.19.28s.18-.04.22-.06l.03.04-.19.09Z" />
                <path id="path14" class="date_and_venue_cls-2"
                  d="M23.46,1.71c-.19.19-.4.25-.48.25-.38,0-.61-.27-.61-.57,0-.42.38-.67.64-.67.27,0,.47.2.47.4,0,.06,0,.07-.05.07s-.46.04-.9.05c0,.43.29.58.51.58.11,0,.22-.02.39-.16l.04.04ZM22.55,1.15c.07,0,.52,0,.66,0,.08,0,.08-.03.08-.04,0-.16-.13-.3-.36-.3-.16,0-.33.12-.38.35h0Z" />
                <path id="path15" class="date_and_venue_cls-2"
                  d="M24.33.01v2.34h-.5v-.03c.34-.03.35-.05.35-.26V.31c0-.21,0-.24-.35-.27V.01h.5Z" />
              </g>
              <g id="g21">
                <path id="path16" class="date_and_venue_cls-2"
                  d="M3.29,29.56v-2.13h.45v.03c-.31.02-.32.05-.32.24v1.59c0,.19,0,.22.32.24v.03h-.45Z" />
                <path id="path17" class="date_and_venue_cls-2"
                  d="M4.48,29.13c.29-.01.31-.06.31-.25v-1.26h-.18c-.38,0-.42.06-.5.33h-.05c.02-.15.03-.31.03-.45h.05s.04.05.06.05c.02,0,.05,0,.09,0h1.17c.08,0,.1-.01.14-.06h.05c0,.12.01.28.03.44h-.05c-.07-.28-.18-.32-.43-.32h-.26v1.26c0,.2.02.24.32.25v.04h-.78v-.04h0Z" />
                <path id="path18" class="date_and_venue_cls-2"
                  d="M5.79,29.13c.18-.01.21-.05.21-.21v-1.21c0-.16-.02-.17-.22-.21v-.03c.13-.02.28-.06.36-.09v.87c.12-.11.28-.2.45-.2.22,0,.39.13.39.42v.43c0,.16.03.2.21.21v.04h-.57v-.04c.19-.01.22-.05.22-.22v-.35c0-.24-.08-.37-.36-.37-.14,0-.26.06-.34.15v.57c0,.18.03.21.23.22v.04h-.57v-.04s0,0,0,0Z" />
                <path id="path19" class="date_and_venue_cls-2"
                  d="M7.66,28.75c0,.26.14.32.3.32.12,0,.26-.05.38-.16v-.57c0-.15-.04-.16-.15-.18h-.11v-.04c.12,0,.32-.03.39-.05v.84c0,.13.03.14.15.15h.09v.04c-.12.01-.24.05-.36.09h-.01v-.21c-.08.05-.15.11-.25.15-.08.04-.15.06-.22.06-.17,0-.35-.08-.35-.37v-.48c0-.15-.04-.16-.1-.18l-.09-.02v-.03c.07,0,.28-.04.34-.05,0,.05,0,.14,0,.33v.34h0Z" />
                <path id="path20" class="date_and_venue_cls-2"
                  d="M8.96,29.08c0-.06.06-.12.13-.12s.13.05.13.12c0,.07-.06.12-.13.12-.08,0-.13-.05-.13-.12Z" />
                <path id="path21" class="date_and_venue_cls-2"
                  d="M10.12,27.42v2.13h-.45v-.03c.31-.02.32-.05.32-.24v-1.59c0-.19,0-.22-.32-.24v-.03h.45Z" />
              </g>
              <g id="g27">
                <path id="path22" class="date_and_venue_cls-2"
                  d="M3.69,72.34v-2.13h.45v.03c-.31.02-.32.05-.32.24v1.59c0,.19,0,.22.32.24v.03h-.45Z" />
                <path id="path23" class="date_and_venue_cls-2"
                  d="M4.54,70.33h.37l.77,1.36.77-1.36h.42v.04c-.27.02-.3.05-.28.31l.02.91c0,.26.02.3.29.32v.04h-.71v-.04c.26-.02.26-.05.26-.32v-1.08h-.02l-.79,1.41h-.03l-.71-1.32h0l-.04.69c0,.12-.01.21-.01.28,0,.25.03.32.3.34v.04h-.7v-.04c.18-.01.24-.06.26-.16.02-.08.04-.23.06-.5l.04-.47c0-.07,0-.13,0-.17,0-.18-.05-.22-.27-.24v-.04h0Z" />
                <path id="path24" class="date_and_venue_cls-2"
                  d="M8.37,71.39c0,.39-.36.58-.64.58-.38,0-.64-.26-.64-.54,0-.42.39-.59.64-.59.37,0,.64.24.64.54h0ZM7.27,71.35c0,.33.19.56.5.56.24,0,.42-.14.42-.49,0-.25-.17-.52-.49-.52-.27,0-.43.18-.43.44Z" />
                <path id="path25" class="date_and_venue_cls-2"
                  d="M8.57,71.91c.17-.01.21-.05.21-.2v-.52c0-.17-.02-.18-.18-.21v-.03c.12-.03.23-.05.32-.11v.21c.06-.03.13-.08.22-.13.08-.04.15-.07.23-.07.24,0,.38.13.38.33v.51c0,.18.03.21.19.22v.04h-.56v-.04c.2-.01.23-.05.23-.22v-.42c0-.15-.05-.31-.31-.31-.14,0-.29.08-.38.16v.58c0,.16.03.2.23.21v.04h-.58v-.04h0Z" />
                <path id="path26" class="date_and_venue_cls-2"
                  d="M10.24,71.85c0-.06.06-.12.13-.12s.13.05.13.12c0,.07-.06.12-.13.12-.08,0-.13-.05-.13-.12Z" />
                <path id="path27" class="date_and_venue_cls-2"
                  d="M11.4,70.2v2.13h-.45v-.03c.31-.02.32-.05.32-.24v-1.59c0-.19,0-.22-.32-.24v-.03h.45Z" />
              </g>
              <g id="g38">
                <path id="path28" class="date_and_venue_cls-3"
                  d="M2.77,81.79s-.03,0-.03-.03c0-.01,0-.03.02-.03.02,0,.05-.01.11-.02.05,0,.1,0,.16-.01s.1-.01.14-.03.06-.03.07-.05c.02-.23.04-.46.03-.69,0-.23,0-.46,0-.69v-.67s0-.05,0-.08c0-.03,0-.05,0-.08-.01-.05-.03-.07-.06-.07-.03,0-.06,0-.09,0,0,0-.02,0-.05,0-.03,0-.05,0-.08,0s-.06,0-.11,0c-.01,0-.02-.01-.03-.02s0-.02,0-.03c0,0,0-.01.01-.02,0,0,.02-.01.03-.02.01,0,.03,0,.04-.01s.02,0,.03,0c.09-.03.19-.05.28-.07.09-.02.19-.04.29-.06.04,0,.09-.01.13-.02.04,0,.09,0,.13,0,0,0,.02,0,.03,0,0,0,.01.01.01.02v2.49s.02.06.06.07c.04.01.08.03.13.03.05,0,.1.01.15.01.05,0,.09,0,.11.02.01,0,.02.02.02.03,0,.02,0,.02-.02.02h-1.5,0Z" />
                <path id="path29" class="date_and_venue_cls-3"
                  d="M5.01,81.79s-.03,0-.03-.03c0-.01,0-.03.02-.03.02,0,.05-.01.11-.02.05,0,.1,0,.16-.01.05,0,.1-.01.14-.03s.06-.03.07-.05c.02-.23.04-.46.03-.69,0-.23,0-.46,0-.69v-.67s0-.05,0-.08c0-.03,0-.05,0-.08-.01-.05-.03-.07-.06-.07-.03,0-.06,0-.09,0,0,0-.02,0-.05,0-.03,0-.05,0-.08,0s-.06,0-.11,0c-.01,0-.02-.01-.03-.02,0,0,0-.02,0-.03,0,0,0-.01.01-.02,0,0,.02-.01.03-.02.01,0,.03,0,.04-.01s.02,0,.03,0c.09-.03.19-.05.28-.07.09-.02.19-.04.29-.06.04,0,.09-.01.13-.02.04,0,.09,0,.13,0,0,0,.02,0,.03,0,0,0,.01.01.01.02v2.49s.02.06.06.07c.04.01.08.03.13.03.05,0,.1.01.15.01.05,0,.09,0,.11.02.01,0,.02.02.02.03,0,.02,0,.02-.02.02h-1.5,0Z" />
                <path id="path30" class="date_and_venue_cls-3"
                  d="M7.21,80.08c0-.1.03-.18.09-.23.06-.05.13-.08.2-.08.08,0,.14.02.2.08.06.05.09.13.09.24,0,.07-.01.12-.04.16-.03.04-.07.08-.11.1-.04.02-.09.03-.14.03-.05,0-.1-.01-.14-.04-.04-.02-.08-.06-.11-.1-.03-.04-.04-.09-.04-.15h0ZM7.21,81.55c0-.07.01-.12.04-.17.03-.05.07-.08.11-.1.04-.02.09-.04.14-.04s.1.01.14.04c.04.02.08.06.11.1s.04.1.04.17c0,.04,0,.08-.02.12-.01.04-.03.07-.07.1-.03.02-.06.04-.1.05-.04.01-.08.02-.12.02s-.08,0-.12-.02-.07-.03-.1-.05c-.03-.03-.06-.06-.07-.1-.01-.04-.02-.08-.02-.12h0Z" />
                <path id="path31" class="date_and_venue_cls-3"
                  d="M9.18,81.83c-.15,0-.28-.05-.38-.13-.12-.09-.21-.2-.28-.34-.07-.14-.12-.28-.14-.45-.03-.16-.04-.32-.04-.47,0-.07,0-.16.01-.25,0-.1.02-.2.04-.3s.05-.2.09-.3.08-.19.13-.27c.05-.08.12-.14.19-.19.07-.05.16-.07.25-.07h.13v.09s-.08.04-.11.07c-.05.05-.09.12-.12.19s-.05.17-.07.27-.03.2-.04.3c0,.1-.01.19-.01.27v.4c0,.08,0,.18.01.27s.02.2.04.3c.02.1.04.19.07.27.03.08.07.15.12.2.03.03.07.05.11.07v.08ZM9.79,81.42l-1.15-1.78.11-.07,1.15,1.78-.11.07ZM9.45,79.06c.1,0,.18.02.26.07.07.05.14.11.19.19.05.08.1.17.14.27.04.1.07.2.09.3.02.1.04.2.05.3,0,.1.01.18.01.25,0,.1,0,.2-.02.31-.01.11-.03.21-.06.32-.03.11-.06.21-.11.3s-.11.18-.19.25c-.05.05-.11.09-.17.13-.06.04-.13.06-.2.07-.03,0-.06,0-.09,0h-.04v-.08c.06-.01.11-.04.14-.08.05-.06.09-.13.12-.2.03-.07.05-.16.07-.24s.02-.18.03-.26c0-.09,0-.18,0-.27v-.26c0-.05,0-.12,0-.2,0-.09,0-.18,0-.28,0-.1-.01-.2-.03-.3-.01-.1-.04-.19-.07-.27-.03-.08-.07-.15-.12-.2-.04-.04-.09-.07-.15-.07v-.08h.15,0Z" />
                <path id="path32" class="date_and_venue_cls-3"
                  d="M11.43,81.83c-.15,0-.28-.05-.38-.13-.12-.09-.21-.2-.28-.34-.07-.14-.12-.28-.14-.45-.03-.16-.04-.32-.04-.47,0-.07,0-.16.01-.25,0-.1.02-.2.04-.3s.05-.2.09-.3.08-.19.13-.27c.05-.08.12-.14.19-.19.07-.05.16-.07.25-.07h.13v.09s-.08.04-.11.07c-.05.05-.09.12-.12.19s-.05.17-.07.27-.03.2-.04.3c0,.1-.01.19-.01.27v.4c0,.08,0,.18.01.27s.02.2.04.3c.02.1.04.19.07.27.03.08.07.15.12.2.03.03.07.05.11.07v.08ZM12.03,81.42l-1.15-1.78.11-.07,1.15,1.78-.11.07ZM11.69,79.06c.1,0,.18.02.26.07.07.05.14.11.19.19.05.08.1.17.14.27.04.1.07.2.09.3.02.1.04.2.05.3,0,.1.01.18.01.25,0,.1,0,.2-.02.31-.01.11-.03.21-.06.32-.03.11-.06.21-.11.3s-.11.18-.19.25c-.05.05-.11.09-.17.13-.06.04-.13.06-.2.07-.03,0-.06,0-.09,0h-.04v-.08c.06-.01.11-.04.14-.08.05-.06.09-.13.12-.2.03-.07.05-.16.07-.24s.02-.18.03-.26c0-.09,0-.18,0-.27v-.26c0-.05,0-.12,0-.2,0-.09,0-.18,0-.28,0-.1-.01-.2-.03-.3-.01-.1-.04-.19-.07-.27-.03-.08-.07-.15-.12-.2-.04-.04-.09-.07-.15-.07v-.08h.15,0Z" />
                <path id="path33" class="date_and_venue_cls-3"
                  d="M12.83,80.72s.01-.04.04-.04h.91s.04.01.04.04v.1s-.01.04-.04.04h-.91s-.04-.01-.04-.04v-.1Z" />
                <path id="path34" class="date_and_venue_cls-3"
                  d="M14.41,81.79s-.03,0-.03-.03c0-.01,0-.03.02-.03.02,0,.05-.01.11-.02.05,0,.1,0,.16-.01.05,0,.1-.01.14-.03s.06-.03.07-.05c.02-.23.04-.46.03-.69,0-.23,0-.46,0-.69v-.67s0-.05,0-.08c0-.03,0-.05,0-.08-.01-.05-.03-.07-.06-.07-.03,0-.06,0-.09,0,0,0-.02,0-.05,0-.03,0-.05,0-.08,0s-.06,0-.11,0c-.01,0-.02-.01-.03-.02s0-.02,0-.03c0,0,0-.01.01-.02,0,0,.02-.01.03-.02.01,0,.03,0,.04-.01s.02,0,.03,0c.09-.03.19-.05.28-.07.09-.02.19-.04.29-.06.04,0,.09-.01.13-.02.04,0,.09,0,.13,0,0,0,.02,0,.03,0,0,0,.01.01.01.02v2.49s.02.06.06.07.08.03.13.03c.05,0,.1.01.15.01s.09,0,.11.02c.01,0,.02.02.02.03s0,.02-.02.02h-1.5,0Z" />
                <path id="path35" class="date_and_venue_cls-3"
                  d="M17.73,80.78s.02-.02.03-.03c0-.01.02-.03.03-.04,0-.01.01-.03.02-.04,0-.01,0-.03,0-.04,0-.04,0-.07,0-.1,0-.03-.01-.06-.01-.09,0-.02,0-.03,0-.04v-.04s0-.07,0-.1c0-.03,0-.07,0-.1,0-.07,0-.15,0-.23,0-.08,0-.17-.01-.25s-.02-.16-.05-.24c-.02-.08-.06-.14-.1-.2-.04-.04-.07-.07-.11-.08s-.09-.02-.14-.02c-.08,0-.15.03-.21.09-.06.06-.1.13-.13.22s-.05.19-.06.3c0,.11,0,.22.02.32.02.1.05.2.09.28.04.09.09.15.15.2.04.03.08.04.12.04.04,0,.08,0,.13,0,.05,0,.1,0,.15-.02,0,0,.01,0,.02,0,0,0,.01,0,.02,0,.02,0,.04,0,.04,0,0,0,.01,0,.01.02s0,.01-.02.02c0,0-.02.01-.03.02,0,0-.03.01-.08.02-.05,0-.1.02-.15.03-.06.01-.11.02-.16.03-.05,0-.08.01-.09.01-.24,0-.43-.07-.56-.21s-.2-.33-.2-.57c0-.14.02-.27.07-.38.05-.11.11-.2.19-.27.08-.07.18-.13.29-.17.11-.04.24-.06.37-.06.17,0,.31.03.43.09.12.06.22.14.3.24.08.1.14.22.18.35s.06.28.06.43c0,.19-.03.36-.08.52-.06.16-.13.3-.23.43-.1.13-.22.24-.36.34-.14.1-.29.18-.46.25-.08.03-.16.06-.24.09s-.16.05-.24.06c0,0-.02,0-.03,0,0,0-.01-.01-.01-.02,0,0,0-.01.01-.02.13-.07.25-.13.35-.19.1-.06.19-.13.27-.21.08-.08.15-.17.22-.27.07-.1.13-.22.18-.36h0Z" />
                <path id="path36" class="date_and_venue_cls-3"
                  d="M18.85,80.08c0-.1.03-.18.09-.23.06-.05.13-.08.2-.08.08,0,.14.02.2.08.06.05.09.13.09.24,0,.07-.01.12-.04.16-.03.04-.07.08-.11.1-.04.02-.09.03-.14.03-.05,0-.1-.01-.14-.04-.04-.02-.08-.06-.11-.1-.03-.04-.04-.09-.04-.15h0ZM18.85,81.55c0-.07.01-.12.04-.17.03-.05.07-.08.11-.1s.09-.04.14-.04.1.01.14.04c.04.02.08.06.11.1s.04.1.04.17c0,.04,0,.08-.02.12-.01.04-.03.07-.07.1-.03.02-.06.04-.1.05-.04.01-.08.02-.12.02s-.08,0-.12-.02-.07-.03-.1-.05c-.03-.03-.06-.06-.07-.1-.01-.04-.02-.08-.02-.12h0Z" />
                <path id="path37" class="date_and_venue_cls-3"
                  d="M20.83,81.83c-.15,0-.28-.05-.38-.13-.12-.09-.21-.2-.28-.34-.07-.14-.12-.28-.14-.45-.03-.16-.04-.32-.04-.47,0-.07,0-.16.01-.25,0-.1.02-.2.04-.3s.05-.2.09-.3.08-.19.13-.27c.05-.08.12-.14.19-.19.07-.05.16-.07.25-.07h.13v.09s-.08.04-.11.07c-.05.05-.09.12-.12.19s-.05.17-.07.27c-.02.1-.03.2-.04.3,0,.1-.01.19-.01.27v.4c0,.08,0,.18.01.27s.02.2.04.3c.02.1.04.19.07.27.03.08.07.15.12.2.03.03.07.05.11.07v.08ZM21.43,81.42l-1.15-1.78.11-.07,1.15,1.78-.11.07ZM21.09,79.06c.1,0,.18.02.26.07s.14.11.19.19c.05.08.1.17.14.27.04.1.07.2.09.3.02.1.04.2.05.3,0,.1.01.18.01.25,0,.1,0,.2-.02.31-.01.11-.03.21-.06.32-.03.11-.06.21-.11.3-.05.09-.11.18-.19.25-.05.05-.11.09-.17.13-.06.04-.13.06-.2.07-.03,0-.06,0-.09,0h-.04v-.08c.06-.01.11-.04.14-.08.05-.06.09-.13.12-.2.03-.07.05-.16.07-.24s.02-.18.03-.26c0-.09,0-.18,0-.27v-.26c0-.05,0-.12,0-.2,0-.09,0-.18,0-.28,0-.1-.01-.2-.03-.3-.01-.1-.04-.19-.07-.27-.03-.08-.07-.15-.12-.2-.04-.04-.09-.07-.15-.07v-.08h.15,0Z" />
                <path id="path38" class="date_and_venue_cls-3"
                  d="M23.07,81.83c-.15,0-.28-.05-.38-.13-.12-.09-.21-.2-.28-.34-.07-.14-.12-.28-.14-.45-.03-.16-.04-.32-.04-.47,0-.07,0-.16.01-.25,0-.1.02-.2.04-.3s.05-.2.09-.3.08-.19.13-.27c.05-.08.12-.14.19-.19.07-.05.16-.07.25-.07h.13v.09s-.08.04-.11.07c-.05.05-.09.12-.12.19s-.05.17-.07.27c-.02.1-.03.2-.04.3,0,.1-.01.19-.01.27v.4c0,.08,0,.18.01.27s.02.2.04.3c.02.1.04.19.07.27.03.08.07.15.12.2.03.03.07.05.11.07v.08ZM23.67,81.42l-1.15-1.78.11-.07,1.15,1.78-.11.07ZM23.33,79.06c.1,0,.18.02.26.07s.14.11.19.19c.05.08.1.17.14.27.04.1.07.2.09.3.02.1.04.2.05.3,0,.1.01.18.01.25,0,.1,0,.2-.02.31-.01.11-.03.21-.06.32-.03.11-.06.21-.11.3-.05.09-.11.18-.19.25-.05.05-.11.09-.17.13-.06.04-.13.06-.2.07-.03,0-.06,0-.09,0h-.04v-.08c.06-.01.11-.04.14-.08.05-.06.09-.13.12-.2.03-.07.05-.16.07-.24s.02-.18.03-.26c0-.09,0-.18,0-.27v-.26c0-.05,0-.12,0-.2,0-.09,0-.18,0-.28,0-.1-.01-.2-.03-.3-.01-.1-.04-.19-.07-.27-.03-.08-.07-.15-.12-.2-.04-.04-.09-.07-.15-.07v-.08h.15,0Z" />
              </g>
              <g id="g50">
                <path id="path39" class="date_and_venue_cls-3"
                  d="M11,85.35c-.32-.28-.41-.48-.41-.78,0-.23.12-.5.4-.72l.02.02c-.21.18-.32.46-.32.7,0,.29.08.52.32.75l-.02.02h0Z" />
                <path id="path40" class="date_and_venue_cls-3"
                  d="M12.76,84.32s.01.02.01.02c0,0,0,0-.02,0h-.75v.52l.18-.03v.02l-.18.04v.1c0,.08,0,.12,0,.16h0s0,.03-.04.05c-.01,0-.03,0-.03,0,0,0-.01,0-.01-.02,0-.03,0-.16,0-.19v-.08l-.4.09c-.06.01-.12.04-.15.06,0,0,0,0,0,0s0,0,0,0l-.07-.09.23-.04v-.6h-.09s-.08,0-.11.02l-.05-.06s.08,0,.12,0h1.21l.06-.08.08.09h0ZM12.55,83.78s.01,0,.01.01c0,0,0,0-.02.01l-.05.03v.16c0,.06,0,.1,0,.15,0,0,0,.01,0,.02,0,.02,0,.03-.04.04-.02,0-.03,0-.03,0-.01,0-.01,0-.01-.04h-.73s0,.04-.04.05c-.01,0-.02,0-.03,0,0,0-.01,0-.01-.03,0-.02,0-.13,0-.14v-.19s0-.12,0-.17l.1.07h.7l.05-.07.1.07h0ZM11.94,84.5v-.15h-.33v.15h.33ZM11.94,84.7v-.16h-.33v.16h.33ZM11.94,84.88v-.15h-.33v.2l.33-.05h0ZM12.42,83.96v-.14h-.73v.14h.73ZM12.42,84.15v-.15h-.73v.15h.73ZM12.64,84.5s.01.01.01.02c0,0,0,0-.02.01-.02,0-.04.02-.05.06-.05.13-.1.22-.16.31.1.09.23.15.4.18v.02c-.08,0-.11.01-.14.05,0,0,0,0,0,0-.01,0-.19-.1-.29-.2-.07.08-.17.15-.32.22v-.02c.11-.08.2-.16.28-.25-.08-.1-.12-.21-.16-.37-.03,0-.06,0-.08.02l-.05-.06s.08,0,.12,0h.33l.05-.06.09.06h0ZM12.21,84.53c.04.13.09.23.17.32.06-.09.11-.19.14-.32h-.32Z" />
                <path id="path41-3" class="date_and_venue_cls-3"
                  d="M13.1,84.7c0,.05.01.1.01.14,0,.14-.05.28-.13.28-.03,0-.04-.02-.04-.04,0-.01,0-.03.02-.04.05-.07.12-.17.12-.34h.03ZM13.39,84.33c.12.1.16.16.16.21,0,.04-.03.07-.05.07-.02,0-.02,0-.03-.06-.26.03-.33.05-.38.09,0,0,0,0-.01,0s0,0-.01-.01l-.06-.08c.07-.02.09-.03.12-.08.04-.06.13-.19.18-.27-.13.02-.25.04-.28.06,0,0,0,0,0,0,0,0,0,0-.01-.01l-.04-.09c.08-.01.1-.03.13-.09.07-.12.14-.26.19-.39l.1.05s.02.01.02.01c0,0,0,0-.02.01-.02,0-.05.04-.08.07-.08.13-.19.28-.23.33h.26c.05-.09.1-.16.13-.23l.09.07s.01,0,.01.01c0,0,0,0-.02.01-.04.01-.05.02-.07.05-.09.13-.23.31-.35.46h.34c-.02-.08-.04-.13-.09-.19v-.02s.01,0,.01,0ZM13.24,84.68c.08.13.11.22.11.27,0,.07-.04.08-.06.08-.02,0-.04,0-.04-.04,0-.01,0-.08,0-.09,0-.06,0-.13-.04-.2h.02s0-.01,0-.01ZM13.4,84.66c.13.11.19.18.19.23,0,.05-.04.08-.06.08-.02,0-.03,0-.03-.04,0-.08-.05-.16-.11-.26h.01s0-.01,0-.01ZM14.5,84.62c-.09.03-.13.04-.14.07,0,0,0,0-.01,0,0,0-.24-.09-.39-.27-.13.13-.27.21-.45.29v-.02c.15-.09.29-.19.41-.32-.07-.1-.11-.21-.14-.38-.07.12-.16.24-.22.32h-.02c.13-.22.24-.44.31-.64l.09.07s0,0,0,0c0,0,0,0-.01,0-.02,0-.04.02-.05.04-.02.05-.05.09-.08.14h.34l.05-.06.11.08s0,0,0,.01c0,0,0,0-.01,0-.02,0-.05.03-.06.05-.06.12-.13.25-.23.35.14.15.28.21.49.22v.02h0ZM13.73,84.91c.28.07.43.14.45.2,0,.01,0,.03,0,.04,0,.03-.01.05-.04.05s-.03,0-.05-.03c-.07-.08-.19-.17-.37-.24v-.03ZM13.8,83.98c.05.15.1.27.16.35.09-.11.15-.23.2-.35h-.36ZM13.84,84.62c.23.07.26.13.26.18,0,.04-.02.06-.04.06-.01,0-.03,0-.04-.04-.03-.06-.09-.12-.19-.19v-.02Z" />
                <path id="path42-8" class="date_and_venue_cls-3"
                  d="M15.9,83.86s.01.01.01.02c0,0,0,.01-.02.02l-.05.03v.84c0,.13,0,.23,0,.3h0s0,.04-.05.06c-.02,0-.03,0-.03,0,0,0-.01,0-.01-.02v-.15h-.76v.15s0,.03-.04.04c-.01,0-.03,0-.03,0-.01,0-.01,0-.01-.04v-.02c0-.1,0-.25,0-.34v-.83c0-.06,0-.12,0-.17l.11.09h.71l.05-.07.12.09h0ZM15.75,84.35v-.46h-.76v.46h.76ZM15.75,84.92v-.54h-.76v.54h.76Z" />
                <path id="path43-0" class="date_and_venue_cls-3"
                  d="M16.38,85.07c.15-.01.16-.03.16-.14v-.63c0-.07,0-.08-.08-.09h-.07v-.03c.1-.02.19-.05.24-.08v.84c0,.11.01.13.17.14v.02h-.41v-.02h0Z" />
                <path id="path44-2" class="date_and_venue_cls-3"
                  d="M17.05,84.31c0-.07.02-.14.02-.2h.59v.02c-.15.32-.29.65-.44.97h-.1s-.01,0-.01,0c.19-.3.34-.6.48-.91h-.35c-.11,0-.12.01-.16.12h-.03,0Z" />
                <path id="path45-4" class="date_and_venue_cls-3"
                  d="M18,84.49s-.03.08-.07.08-.07-.03-.07-.08c0-.04.03-.07.07-.07.05,0,.07.04.07.07ZM17.85,85.04s.03-.08.07-.08.07.04.07.08c0,.04-.03.07-.07.07-.05,0-.07-.03-.07-.07Z" />
                <path id="path46-8" class="date_and_venue_cls-3"
                  d="M18.82,84.6c0,.23-.09.51-.31.51s-.32-.28-.32-.51.09-.51.32-.51.31.29.31.51ZM18.5,84.13c-.18,0-.22.25-.22.47s.05.47.23.47.22-.25.22-.47-.05-.47-.22-.47h0,0Z" />
                <path id="path47-3" class="date_and_venue_cls-3"
                  d="M19.58,84.6c0,.23-.09.51-.31.51s-.32-.28-.32-.51.09-.51.32-.51.31.29.31.51ZM19.27,84.13c-.18,0-.22.25-.22.47s.05.47.23.47.22-.25.22-.47-.05-.47-.22-.47h0,0Z" />
                <path id="path48-9" class="date_and_venue_cls-3"
                  d="M20.41,83.81s.01.01.01.02,0,0-.01.01l-.05.03v.25s0,.13,0,.15c0,.02,0,.03-.04.04-.02,0-.03,0-.03,0,0,0,0,0,0-.07h-.38v.59c0,.13,0,.25,0,.32h0s0,.04-.04.06c-.01,0-.03,0-.03,0-.01,0-.01,0-.01-.04v-.02c0-.1,0-.21,0-.34v-.9c0-.07,0-.18,0-.24l.11.11h.33l.04-.07.1.07h0ZM20.29,83.99v-.15h-.38v.15h.38ZM20.29,84.21v-.18h-.38v.18h.38ZM20.93,84.49s.01.02.01.02c0,0,0,0-.02,0h-.3v.45c0,.08,0,.1-.09.14,0,0-.01,0-.02,0,0,0,0,0,0-.01,0-.06-.04-.09-.19-.12v-.03c.1.02.15.02.19.02.04,0,.04-.01.04-.04v-.42h-.01c-.15.23-.32.39-.52.5v-.02c.16-.13.33-.33.43-.49h-.29s-.08,0-.11.02l-.05-.06s.08,0,.12,0h.44c0-.07,0-.13,0-.19l.1.04s.01,0,.01.01c0,0,0,0-.03.03v.1h.17l.07-.09.08.09h0ZM21.16,83.8s.02.01.02.02c0,0,0,0-.02.02l-.04.02v1.25c0,.06,0,.07-.11.13,0,0,0,0-.01,0,0,0-.01,0-.01-.02-.01-.06-.05-.09-.23-.13v-.03c.11.02.18.03.22.03.06,0,.06-.02.06-.06v-.79h-.38s0,.03-.03.04c-.01,0-.02,0-.03,0-.01,0-.01,0-.01-.03s0-.11,0-.13v-.28s0-.09,0-.14l.11.09h.33l.05-.08.1.07h0ZM21.04,84v-.15h-.38v.15h.38ZM21.04,84.21v-.18h-.38v.18h.38Z" />
                <path id="path49-0" class="date_and_venue_cls-3"
                  d="M21.99,84.17s0,0,0,.01,0,0-.02,0h-.29v.53l.23-.08v.02s-.34.17-.34.17c-.07.04-.1.06-.12.09,0,0,0,0-.01,0,0,0,0,0,0,0l-.08-.1.25-.09v-.55h-.12s-.08,0-.1.02l-.04-.06s.07,0,.11,0h.15v-.23c0-.07,0-.17,0-.23l.13.07s.01,0,.01.01c0,0,0,0-.01.01l-.05.04v.34h.13l.07-.08.1.1h0ZM22.91,84.41s0,0,0,.01c0,0,0,0-.02,0h-.71c-.02.05-.05.1-.09.15h.6l.05-.07.1.08s.01.01.01.02c0,0,0,0-.01.01l-.06.03c-.02.16-.04.29-.06.39-.02.08-.05.11-.15.16,0,0,0,0,0,0,0,0,0,0,0-.01,0-.05-.04-.09-.19-.14v-.02c.09.02.15.03.19.03.07,0,.08-.03.1-.08.02-.08.04-.24.06-.38h-.16c-.11.33-.2.46-.64.6v-.02c.4-.17.49-.34.55-.58h-.15c-.1.21-.26.37-.53.49v-.02c.26-.16.4-.35.44-.47h-.15c-.09.13-.21.25-.32.33v-.02c.18-.2.29-.37.34-.5h-.15s-.08,0-.1.02l-.04-.06s.07,0,.11,0h.82l.07-.09.11.11h0ZM22.74,83.81s0,0,0,.01,0,0,0,0l-.07.04v.29s0,.11,0,.12c0,.01,0,.02-.04.03-.01,0-.02,0-.03,0,0,0-.01,0-.01-.02v-.06h-.47v.04s-.05.04-.07.04c0,0-.01,0-.01-.02h0c0-.06,0-.09,0-.16v-.3s0-.09,0-.14l.1.09h.42l.05-.07.11.08h0ZM22.6,84v-.16h-.47v.16h.47ZM22.6,84.2v-.17h-.47v.17h.47Z" />
                <path id="path50-5" class="date_and_venue_cls-3"
                  d="M23.15,85.34l-.02-.02c.21-.2.3-.46.3-.72s-.09-.5-.31-.71l.02-.02c.3.23.4.5.4.73,0,.29-.14.55-.39.75Z" />
              </g>
            </g>
          </g>
        </g>
      </g>
    </g>
  </g>
</svg>