<?xml version="1.0" encoding="UTF-8"?>
<svg xmlns="http://www.w3.org/2000/svg" version="1.1" viewBox="0 0 26.4 120">
  <defs>
    <style>
      .title_cls-1 {
      fill: #f9f6f7;
      }
    </style>
  </defs>
  <!-- Generator: Adobe Illustrator 28.7.1, SVG Export Plug-In . SVG Version: 1.2.0 Build 142)  -->
  <g>
    <g id="Layer_2">
      <g id="Layer_2-2">
        <g id="Layer_2-2-2" data-name="Layer_2-2">
          <g id="Layer_1-2">
            <g>
              <path class="title_cls-1"
                d="M6,4.8h0,0c0,0,.1,0,.3,0s.2,0,.4,0,.2,0,.3,0c0,0,.1,0,.1.1,0,0,0,.1-.2.2-.1,0-.2.2-.2.2v8.8c0,.1-.2.2-.4.3s-.6.1-1,.2-.8,0-1.1.1c-.4,0-.6,0-.8,0s-.3,0-.3-.2v-6.8c0,0,0-.2,0-.3,0-.1,0-.2,0-.3s0-.2,0-.3,0-.2,0-.2h-.1s-.2,0-.4.2c-.3.1-.5.3-.9.4-.3.2-.6.3-.9.5-.3.2-.5.2-.7.3h-.1c0,0,0-.2.2-.3,0-.1.2-.2.3-.4,0-.1.2-.3.3-.4s.2-.2.2-.3c.7-.8,1.2-1.7,1.7-2.6s1-1.7,1.4-2.6c0,0,0-.2.1-.3,0-.1.1-.3.2-.4,0-.2.1-.3.2-.4,0-.1.1-.2.2-.2,0,0,0,0,0,0,0,0,0,0,0,0,.2,0,.5,0,.9.1.5,0,.9.2,1.4.3s.9.2,1.3.3.6.2.6.3,0,.2-.3.3-.4.4-.7.6c-.3.2-.6.5-.9.8-.3.3-.6.5-.9.8s-.5.5-.7.7c-.2.2-.3.4-.3.5h.1c0,0,0,0,0,0ZM8.4,4.3h8.7s0,0,.1,0c0,0,.1,0,.1,0h0c0,0-.3,0-.7,0-.4,0-.9,0-1.5,0-.6,0-1.2,0-1.9,0-.7,0-1.4,0-2,0-.6,0-1.2,0-1.6,0h-1.3c-.2,0-.2,0-.2-.1s0,0,0,0h.2c0,0,0,0,0,0ZM9.9,6.3h0s0,0,0,0c0,0,0,0,0,0,0,0,0,0,.1,0h.1c.5,0,1.1,0,1.7.2s1.2.4,1.7.7.9.6,1.3.9.5.6.5,1-.1.6-.4.8c-.3.2-.7.3-1.3.3s-.6,0-.9-.2c-.2-.1-.4-.3-.7-.4-.2-.2-.4-.3-.5-.5-.1-.2-.2-.3-.4-.5-.3-.3-.5-.7-.7-1.1s-.4-.7-.7-1.1h0ZM18,.4h0c0-.1,0-.2.2-.2.6,0,1.3,0,1.9,0,.7,0,1.3.1,1.9.2,0,0,.1,0,.2,0,0,0,.1,0,.1,0,0,0,0,.1-.2.2s-.2.2-.2.2v2.7s0,0,0,0c0,0,0,0,.1,0,.2,0,.4,0,.5-.2s.2-.2.3-.4.2-.3.3-.4.2-.2.4-.2.2,0,.4.2.5.3.9.5.6.3.9.5c.3.2.4.3.5.3h.1c0,.2,0,.2-.2.2h-4.1c-.2,0-.3,0-.3.2v8.3c0,.3-.2.6-.5.8-.3.2-.8.4-1.3.6s-1,.3-1.6.3c-.6,0-1.1.1-1.5.1s-.2,0-.2,0c0,0,0-.1-.1-.2s0-.2-.1-.2,0-.1,0-.2c-.2-.3-.4-.6-.8-.8-.3-.2-.7-.4-1.2-.6,0,0-.1,0-.2,0s-.1,0-.1-.1,0,0,.2,0c.1,0,.2,0,.2,0h2.9c.1,0,.2,0,.3-.2s.2-.2.2-.2V.4h0Z" />
              <path class="title_cls-1"
                d="M1,18.3h0s0,0,0,0c0,0,.2,0,.2,0h.3c.6,0,1.2,0,1.8.2.6.1,1.2.3,1.7.5s.9.4,1.3.7c.3.3.5.6.5,1s0,.6-.2.9-.3.6-.5.9c-.2.3-.4.6-.5.9s-.2.6-.2.9,0,.4.1.7c0,.2.2.5.4.7.2.2.4.4.7.6s.6.2,1.1.2.8,0,1-.2.6-.3.8-.5c.2-.2.4-.4.6-.6.2-.2.4-.4.5-.6s.3-.3.4-.5.3-.2.5-.2.1,0,.1,0h0c0,.3,0,.6-.1.8,0,.2-.2.5-.3.7s-.2.5-.3.7c0,.2-.1.5-.1.7s0,.5.1.8.1.5.1.8-.2.5-.4.6-.7.3-1.3.3-.9,0-1.3-.1-.8-.2-1.2-.3c-.5-.2-1.1-.4-1.6-.7-.5-.3-.9-.6-1.3-.9s-.7-.7-.9-1.1c-.2-.4-.3-.7-.3-1.1v-4.5c0-.2,0-.4-.3-.7s-.4-.4-.6-.6c-.2-.2-.4-.3-.6-.5-.2-.1-.3-.3-.3-.3h0ZM22.6,26.2h0s0,0,0,0c-.3,0-.6,0-.8,0s-.4-.2-.6-.3c-.3-.2-.4-.5-.5-.7,0-.2-.1-.5-.2-.8s0-.6-.1-.9-.2-.6-.4-.8c0,0-.2-.2-.4-.3-.2-.1-.4-.3-.7-.5s-.5-.4-.8-.6c-.3-.2-.6-.4-.8-.6-.2-.2-.4-.3-.6-.4s-.2-.2-.2-.2c0,0,0,0,.1,0h.2c.4,0,.7,0,1.1,0,.4,0,.7.1,1,.2.9.2,1.6.4,2.4.7s1.3.6,1.8,1,.9.8,1.2,1.3.4,1,.4,1.5,0,.4,0,.6c0,.2-.1.4-.3.6s-.4.3-.6.4-.6.2-1.1.2h0Z" />
              <path class="title_cls-1"
                d="M14.7,35.3h0c-1,0-1.9.1-2.9.4-1,.2-1.9.5-2.9.8s-1.8.6-2.6.8c-.8.2-1.6.4-2.3.4s-.8,0-1.2-.2c-.4-.1-.7-.3-1-.5s-.5-.4-.7-.7c-.2-.2-.3-.5-.3-.7v-.3c0-.1,0-.2.2-.3h.1c.2,0,.4,0,.6,0s.4.1.6.2c.2,0,.4.1.6.2.2,0,.4,0,.7,0,1.4,0,2.9-.1,4.2-.3,1.4-.2,2.8-.4,4.1-.7,1.4-.2,2.8-.5,4.1-.7,1.4-.2,2.8-.3,4.2-.3s.8,0,1.2,0,.8.1,1.2.2c.4,0,.7.2,1,.4s.4.4.4.6-.1.4-.3.5c-.2.1-.5.2-.9.2h-2c-.3,0-1.4,0-3,0s-2.7,0-2.9,0h0ZM15.8,36.1h0c-.8.3-1.4.6-1.9,1s-.8.9-1,1.4c-.2.5-.3,1.1-.3,1.7s.2,1.3.7,1.7c.4.4,1,.7,1.7.9.7.2,1.4.3,2.1.4.8,0,1.5.2,2.1.2s1.2.2,1.6.3.7.4.7.8,0,.3-.2.5-.3.2-.5.3c-.2,0-.5.1-.7.2-.2,0-.5,0-.8,0-1.3,0-2.5,0-3.7-.3s-2.2-.4-3-.8c-.9-.4-1.5-.8-2-1.4s-.8-1.3-.8-2.1.5-2.1,1.4-3.1,1.9-1.6,2.9-1.9c1-.3,1.6-.4,1.7-.3.1.1.1.2,0,.3h0Z" />
              <path class="title_cls-1"
                d="M0,51.7h.2c0,0,4.4,0,4.4,0,.2,0,.3,0,.3-.3v-2.6c0-.1,0-.2.2-.2s.3,0,.7,0,.8,0,1.2.1.8,0,1.1.1c.3,0,.5.1.6.2,0,0,0,.1-.1.2,0,0-.2.2-.2.2v.2c0,0,0,1.7,0,1.7,0,0,0,.1.1.2s.2,0,.2,0c.3,0,.5,0,.7-.2s.4-.3.6-.4c.2-.2.3-.4.4-.6s.3-.4.4-.6h.2c.1,0,.3,0,.6.3.3.2.6.4.9.7.3.2.6.4.8.7.2.2.4.4.4.4s0,0-.1.1-.2,0-.2,0h-6c0,0-.2,0-.2.1,0,0-.1.1-.2.1s-.2,0-.3,0-.2,0-.3,0H.4s0,0-.2,0c0,0-.2,0-.2,0h0c0,0,0-.1,0-.1ZM4.2,67.3h0s0,0,0,0h0c0,0,0-.2-.1-.3s-.2-.3-.2-.5c0-.2-.2-.3-.3-.4,0-.1-.2-.2-.2-.2-.2,0-.3,0-.3.3v5c0,.1,0,.3-.2.3-.2,0-.3.2-.6.2-.2,0-.4,0-.6.1-.2,0-.4,0-.5,0s-.2,0-.3,0c-.1,0-.2-.1-.2-.2,0-1.9,0-3.6-.1-5.5s0-3.6,0-5.5,0-.2.3-.2.5,0,.7.2c.3.1.5.3.8.4.3.2.6.3.9.4.3.1.6.2,1,.2s.3,0,.5,0c.2,0,.3-.1.3-.3v-2c0,0,0-.1-.2-.2s-.2,0-.3,0c-.3,0-.7,0-.9.2-.3.1-.6.3-.8.4-.2.1-.5.3-.7.4s-.5.2-.7.2-.1,0-.1,0c0,0,0-.1,0-.2,0-1.2,0-2.3-.1-3.5,0-1.1-.1-2.3-.1-3.5s0-.2.4-.2.5,0,.8,0c.3,0,.6,0,.8.2.2,0,.4.2.4.3,0,0,0,.2,0,.3,0,.1,0,.2,0,.3,0,.7,0,1.5,0,2.2s0,1.5,0,2.2,0,.2.3.3c.2,0,.4,0,.8,0s.6,0,.8,0c.6,0,1.3,0,1.9,0,.7,0,1.3,0,2,0h.4c.2,0,.3,0,.3-.2v-4.3c0-.1,0-.2,0-.3s-.1,0-.3,0c-.2,0-.5,0-.8.3-.3.2-.4.4-.4.7s0,.3.1.4.1.2.2.4c0,.1.2.3.2.4,0,.1.1.3.1.4,0,.3,0,.5-.3.7s-.4.3-.7.3-.4,0-.5-.2-.2-.2-.3-.3c0-.1-.1-.3-.2-.4,0-.1-.1-.2-.2-.2-.2,0-.4,0-.6.2-.2,0-.4.2-.6.3s-.4.2-.6.4-.4.2-.5.3h0c.1-.4.3-.8.5-1.1s.5-.7.7-1v-.4c-.1,0-.2-.1-.2-.2,0,0-.2-.1-.2-.2,0,0-.2-.2-.2-.2s0-.1,0-.2c0-.1,0-.2.2-.2h1c.2,0,.3,0,.3-.2,0,0,.1-.2.2-.3s0-.3.1-.4c0-.1,0-.3.1-.4,0-.1,0-.2.2-.3.3,0,.5,0,.7.1s.4.2.6.3c.2.1.4.2.6.3.2.1.4.2.7.2s.5,0,.5-.1.1-.2.1-.2v-.2c0,0,0-.1.2-.1h.4c.2,0,.4,0,.7,0s.4,0,.6.1c.2,0,.3.1.3.2v5.2c0,.2,0,.4-.1.6,0,.2-.2.4-.4.5s-.3.3-.5.4-.4.2-.6.2-.4,0-.4-.2-.2-.2-.2-.3c0-.1-.1-.2-.2-.3s-.2-.2-.3-.2c-.2,0-.4,0-.7,0-.3,0-.5,0-.6.1,0,0-.1.2-.2.4-.1.3-.3.6-.5,1s-.4.8-.6,1.2c-.2.5-.4.9-.6,1.2-.2.4-.3.7-.4,1-.1.3-.2.4-.2.5,0,0,0,.1,0,.2s0,.1.2.1h.4c.2,0,.5,0,.7,0,.2,0,.4,0,.6-.1s.3-.1.3-.2c0-.3,0-.5-.2-.7s-.2-.3-.2-.5,0-.1.2-.1c.2,0,.3,0,.5.2s.3.2.5.3c.2.1.3.2.5.3s.3.2.5.2.2,0,.3,0c0,0,.1,0,.1-.2v-1.8c0-.2,0-.2-.3-.2h-1.9c-.2,0-.3,0-.3,0,0,0,0-.1.2-.2s.3-.1.5-.1.4,0,.5,0,.3,0,.4,0c.2,0,.4,0,.5-.2s.2-.2.3-.3c0,0,.2-.2.4-.4s.4-.3.5-.3.2,0,.4.3.5.3.8.5c.2.2.5.4.7.6.2.2.3.3.3.3,0,.1,0,.2-.3.3-.2,0-.3.2-.3.3v6.8c0,.3,0,.6-.3.8-.2.2-.4.5-.7.7s-.6.3-.9.4c-.4,0-.7.1-1,.1s-.2,0-.3-.3c0-.2,0-.3-.1-.4,0-.3-.2-.6-.3-.8-.1-.3-.3-.5-.5-.8,0,0,0,0-.1-.1s0-.1,0-.2c0-.1,0-.2.2-.2h.4c.1,0,.3,0,.5,0,.2,0,.3-.1.4-.3,0-.1,0-.3,0-.5v-.6c0,0,0-.2-.2-.2s-.3,0-.5-.1c-.2,0-.3,0-.5,0s-.3,0-.4,0c-.1,0-.2-.2-.2-.5,0-.2,0-.4,0-.6s0-.2-.3-.2h-.4c-.2,0-.5,0-.7.3s-.5.4-.8.6-.5.4-.8.6c-.3.2-.6.3-.9.3h-.1c0,0,0,0,0,0ZM3.2,64.6l.2.2h.2c0,0,1.1,0,1.1,0h.2c0,0,0-.2,0-.2,0-.4,0-.8.1-1.2,0-.4,0-.8,0-1.2s0-.2-.3-.2h-1.5c-.2,0-.3,0-.3.2v2.3c0,0,0,0,0,0ZM13,58h0c0-.3.1-.6.2-.8s.2-.5.3-.7c.2-.5.4-1.1.5-1.6s.3-1.1.5-1.6c.1-.5.3-1,.4-1.5s.2-1,.3-1.6c0-.2,0-.5,0-.7s0-.5.1-.7c0-.1,0-.2.2-.2s.4,0,.7.1.8.2,1.2.3.8.2,1.1.3.6.2.6.3c0,0-.2.2-.4.3-.2.1-.3.2-.4.4,0,0-.1.2-.3.6-.1.3-.3.7-.5,1.1-.2.4-.3.8-.5,1.1s-.2.5-.2.5c0,0,0,.2.2.3s.2.2.3.2h4.2c.2-.2.4-.4.6-.7s.3-.5.6-.7h.2c0,0,.2,0,.4.2s.4.3.6.4c.2.2.4.3.6.5.2.2.3.3.4.3v.2c0,0,0,.1-.2.2-.2,0-.4,0-.6,0s-.5,0-.8,0c-.3,0-.6,0-.8,0-.2,0-.4,0-.6,0s-.2.1-.2.3v3.4c0,0,0,.1.1.2s.1.2.2.2c0,0,0,0,.2-.1,0,0,.2-.2.2-.3,0,0,.1-.2.2-.3s.1-.2.1-.2h.1c0,0,.1,0,.1,0,0,0,.2.2.4.3.2.2.4.3.5.5.2.2.4.3.5.5.2.2.2.2.2.3,0,.1-.2.2-.5.2s-.6,0-1,0-.7,0-1,0-.5,0-.5.3v4c0,0,.2,0,.2,0,.2,0,.4-.2.6-.4s.3-.4.4-.6h.1c0,0,.1,0,.1,0,.3.2.5.5.8.8s.5.6.7.8v.2c0,.1,0,.2-.4.2-.3,0-.7,0-1.1,0s-.7,0-1.1,0-.5,0-.5.3v4.6c0,.1,0,.2.2.2.2,0,.3,0,.5-.2.1-.1.2-.3.3-.5,0-.1.2-.3.2-.4s.2-.2.4-.2.1,0,.3.2c.2.1.4.3.6.6s.4.4.6.6c.2.2.3.3.3.3,0,0,0,.1,0,.2s0,.1-.1.1h-7.5c-.1,0-.3,0-.4.3s-.2.3-.3.5-.4.4-.7.5c-.3.2-.7.3-1.3.3h-.4c-.2,0-.2,0-.2-.2v-13.8c0-.2,0-.2-.3-.2s-.4,0-.5.3c-.1.2-.3.3-.5.4h0c0,0,0,0,0,0ZM17.3,58.7c0,.2,0,.2.3.2h1.3c.2,0,.3,0,.3-.2v-4c0-.2,0-.3-.3-.3h-1.3c-.2,0-.3,0-.3.3v4ZM17.5,59.3h0c-.2,0-.3,0-.3.2v4.3c0,.1.1.2.3.3s.4,0,.6,0,.4,0,.6,0,.3-.2.3-.3v-4.2c0,0-.2-.2-.2-.2h-.2c0,0-1.1,0-1.1,0h0ZM17.5,64.4h0,0c-.2,0-.3,0-.3.2v5c0,0,0,.1.1.2s.2,0,.3,0,.2,0,.3,0h.2c.1,0,.3,0,.5,0s.3-.1.3-.3v-4.9c0-.2,0-.2-.3-.2h-1.3ZM20.5,49h0s0,0,0,0h0c.2,0,.4,0,.7.1s.5.1.8.2.6.2.8.3c.3,0,.5.1.7.2h0c0,.2-.1.3-.2.3s-.2.1-.3.2l-3.2,3c-.1.1-.3.2-.5.2h-.1c0-.3,0-.6.1-1,0-.4.1-.8.3-1.2.1-.4.2-.8.3-1.2.1-.4.2-.7.3-.9h.1c0,0,0,0,0,0Z" />
              <path class="title_cls-1"
                d="M4.7,91.1h0c.2,0,.3.2.5.2s.3.1.4.1.2,0,.3-.2c0-.1.1-.3.1-.4v-2.9c0-.2,0-.2-.2-.2s-.3.1-.6.4c-.2.2-.4.5-.6.8s-.5.9-1.1,1.8c-.5.8-.9,1.4-1,1.6s-.3.4-.5.6c-.2.2-.4.3-.8.3s-.4,0-.5-.2c-.1,0-.3-.2-.3-.4,0-.2-.1-.3-.2-.5s0-.3,0-.5c0-.6.1-1.1.4-1.6.3-.5.7-1,1.1-1.5s.9-.9,1.5-1.4c.5-.5,1-.9,1.5-1.4.5-.4.8-.9,1.1-1.4s.4-1,.4-1.5-.1-.2-.3-.2-.3,0-.5.1c-.2,0-.4.2-.5.3-.2.1-.3.3-.5.4s-.3.2-.4.3c0,0-.1.1-.2.2,0,0-.1.1-.2.2-.1,0-.3,0-.4,0-.4,0-.8,0-1.2-.3s-.7-.5-1-.8c-.3-.3-.5-.7-.7-1-.2-.4-.3-.8-.3-1.1s0-.1,0-.2c0-.1,0-.2.2-.2s.1,0,.2,0,.2.1.4.2.3.2.5.2.4,0,.7,0c1.8,0,3-.4,3.7-1.1.7-.7,1.1-1.9,1.1-3.5s0-.5-.2-.7-.3-.4-.5-.5c-.2-.1-.4-.3-.6-.3s-.5-.2-.7-.3h0c0-.2.1-.3.3-.4.2,0,.4-.1.6-.2.2,0,.4,0,.7,0s.4,0,.5,0c.4,0,.8,0,1.2.2s.8.3,1.1.6.6.5.8.8.3.7.3,1,0,.4-.1.6c0,.2-.2.4-.3.6,0,.2-.2.3-.3.5s-.1.4-.1.6c0,.3,0,.6.2.8.2.2.4.3.8.3s.1,0,.2,0,.2,0,.2.1,0,.2-.1.3-.4.4-.9.7c-.5.4-.9.8-1.2,1.2-.3.4-.6.8-.7,1.1s-.1.8-.1,1.3c0,.8,0,1.6,0,2.4s0,1.6.2,2.4c0,.5.1,1,.2,1.4,0,.5,0,1,0,1.4s0,.7,0,1.1c0,.4-.1.7-.2,1s-.4.6-.6.8-.6.3-1.1.3-.8-.2-1.1-.5c-.3-.4-.5-.8-.7-1.3s-.3-1-.5-1.5c-.1-.5-.2-.9-.3-1.1s0-.3,0-.4.3-.1.6,0h0ZM11.9,79.7h0s0,0,0,0c.2-.2.4-.3.7-.4s.4-.2.6-.3.4-.2.6-.3c.5-.2,1-.3,1.4-.4s1-.2,1.5-.2c.7,0,1.3,0,1.8.3s.8.5,1.1.8.4.8.6,1.3c.1.5.2,1,.2,1.6s0,1.1-.1,1.7-.2,1.1-.3,1.7-.2,1.1-.3,1.7-.1,1.1-.1,1.7,0,.6,0,.9.1.5.2.7c.1.2.3.3.5.4s.6.2,1,.2c.8,0,1.4-.1,2-.3s1.2-.5,1.9-.8h.1v.2c0,.5-.2,1-.6,1.5-.4.4-.9.9-1.5,1.2s-1.2.6-1.9.8-1.2.3-1.8.3-1.3-.1-1.7-.3c-.5-.2-.8-.5-1-.9-.2-.4-.4-.8-.5-1.3s-.2-1-.2-1.5,0-1.3.2-2c.1-.7.2-1.3.3-2s.2-1.3.3-2,.1-1.3.1-2,0-.7,0-1-.1-.6-.3-.8c-.2-.2-.3-.4-.6-.6s-.6-.2-1.1-.2-1.1.1-1.7.3-1,.4-1.3.5c-.2.1-.4.2-.5,0s0-.2.1-.3h0Z" />
              <path class="title_cls-1"
                d="M14.3,103.9h0c-.9,0-1.9.2-2.9.6-1,.4-1.9.8-2.8,1.3-.9.5-1.7.9-2.6,1.3-.8.4-1.6.6-2.2.6s-.8,0-1.2-.3c-.4-.2-.7-.4-1-.7s-.5-.6-.7-1c-.2-.4-.3-.8-.3-1.1v-.6c0-.2,0-.4.2-.5h.1c.2-.1.4,0,.6,0s.4.2.6.3.4.2.5.3c.2,0,.4.1.6.1,1.4,0,2.8-.2,4.1-.5,1.3-.3,2.7-.7,4-1s2.7-.7,4-1c1.3-.3,2.7-.5,4.1-.5s.7,0,1.1.1c.4,0,.8.2,1.2.3.4.1.7.3.9.6s.4.6.4,1-.1.6-.3.8-.5.3-.9.3h-1.9c-.3,0-1.4,0-3-.1-1.6-.1-2.6-.1-2.9-.1h0ZM15.4,105.1h0,0c-.8.4-1.4.9-1.8,1.6-.5.6-.8,1.3-1,2.2-.2.8-.3,1.7-.3,2.7s.2,2,.6,2.7c.4.6,1,1.1,1.6,1.4s1.3.5,2.1.6,1.4.2,2.1.3,1.2.3,1.6.5.6.7.6,1.2,0,.5-.2.7-.3.4-.5.5-.4.2-.7.3c-.3,0-.5.1-.8.1-1.3,0-2.4-.1-3.6-.4s-2.1-.7-2.9-1.3c-.8-.6-1.5-1.3-2-2.2-.5-.9-.7-2-.7-3.3s.4-3.3,1.3-4.8,1.8-2.4,2.8-2.9c1-.5,1.5-.7,1.7-.4.1.2.1.4,0,.5h0Z" />
            </g>
          </g>
        </g>
      </g>
    </g>
  </g>
</svg>