<?xml version="1.0" encoding="UTF-8" standalone="no"?>
<svg
   id="Layer_2"
   viewBox="0 0 75 22.69"
   version="1.1"
   sodipodi:docname="TitleEnglish 2.svg"
   inkscape:version="1.3.2 (091e20e, 2023-11-25)"
   xmlns:inkscape="http://www.inkscape.org/namespaces/inkscape"
   xmlns:sodipodi="http://sodipodi.sourceforge.net/DTD/sodipodi-0.dtd"
   xmlns="http://www.w3.org/2000/svg"
   xmlns:svg="http://www.w3.org/2000/svg">
  <sodipodi:namedview
     id="namedview1"
     pagecolor="#ffffff"
     bordercolor="#000000"
     borderopacity="0.25"
     inkscape:showpageshadow="2"
     inkscape:pageopacity="0.0"
     inkscape:pagecheckerboard="0"
     inkscape:deskcolor="#d1d1d1"
     inkscape:zoom="10.401057"
     inkscape:cx="37.544259"
     inkscape:cy="11.345"
     inkscape:window-width="1312"
     inkscape:window-height="449"
     inkscape:window-x="1920"
     inkscape:window-y="1952"
     inkscape:window-maximized="0"
     inkscape:current-layer="Layer_2" />
  <defs
     id="defs1">
    <style
       id="style1">
      .title_english_cls-1 {
        fill: #f9f6f7;
      }
    </style>
  </defs>
  <g
     id="g1"
     data-name="Layer_2"
     transform="matrix(1,0,0,-1,0,22.72)">
    <g
       id="Layer_2-2">
      <g
         id="Layer_2-2-2"
         data-name="Layer_2-2">
        <g
           id="Layer_1-2">
          <path
             class="title_english_cls-1"
             d="m 7.06,19.99 c 0,0.85 -0.23,1.5 -0.68,1.94 -0.45,0.44 -1.13,0.67 -2.04,0.67 -0.15,0 -0.44,0 -0.88,-0.03 H 2.64 c -0.39,0 -0.71,0 -0.94,0.03 L 1.67,22.36 c 0.24,0 0.41,-0.05 0.5,-0.11 0.09,-0.06 0.15,-0.17 0.15,-0.33 0,-0.09 -0.03,-0.27 -0.09,-0.57 L 0.97,15.53 C 0.91,15.24 0.83,15.02 0.77,14.88 0.69,14.74 0.62,14.65 0.5,14.61 0.39,14.56 0.23,14.53 0.02,14.52 l -0.03,-0.24 c 0.24,0.03 0.64,0.05 1.15,0.05 0.17,0 0.44,0 0.79,-0.03 h 0.56 c 0.86,0 1.63,0.26 2.33,0.79 0.71,0.54 1.26,1.26 1.65,2.13 0.39,0.89 0.59,1.81 0.59,2.8 v 0 z M 2.37,14.47 c -0.23,0 -0.38,0.05 -0.47,0.11 -0.08,0.08 -0.12,0.18 -0.12,0.33 0,0.11 0.03,0.3 0.09,0.57 l 1.26,5.87 c 0.06,0.27 0.12,0.5 0.2,0.64 0.08,0.14 0.17,0.24 0.27,0.29 0.12,0.06 0.27,0.08 0.47,0.08 0.73,0 1.24,-0.17 1.57,-0.51 0.32,-0.33 0.48,-0.86 0.48,-1.57 0,-1.04 -0.14,-2.01 -0.44,-2.89 C 5.39,16.51 4.97,15.8 4.39,15.26 3.83,14.73 3.15,14.47 2.35,14.47 v 0 c 0,0 0.02,0.02 0.02,0.02 z m 10.42,3.21 0.51,2.36 c 0.09,0.42 0.23,0.71 0.36,0.86 0.15,0.15 0.36,0.24 0.65,0.26 l 0.05,0.24 c -0.21,-0.03 -0.51,-0.05 -0.91,-0.05 -0.4,0 -0.74,0 -0.97,0.05 l -0.05,-0.24 c 0.24,0 0.44,-0.06 0.54,-0.15 0.12,-0.08 0.17,-0.24 0.17,-0.44 0,-0.15 -0.03,-0.33 -0.08,-0.53 L 12.5,17.56 c -0.2,-0.97 -0.5,-1.71 -0.89,-2.25 -0.39,-0.53 -0.92,-0.8 -1.59,-0.8 -0.41,0 -0.71,0.12 -0.88,0.35 -0.17,0.24 -0.26,0.56 -0.26,1 0,0.39 0.08,0.92 0.21,1.59 l 0.59,2.72 c 0.06,0.3 0.12,0.51 0.2,0.65 0.08,0.14 0.17,0.23 0.27,0.27 0.12,0.05 0.3,0.08 0.53,0.09 l 0.06,0.24 c -0.32,-0.03 -0.71,-0.05 -1.21,-0.05 -0.57,0 -0.98,0 -1.24,0.05 L 8.23,21.18 c 0.24,-0.02 0.41,-0.05 0.5,-0.11 0.09,-0.06 0.15,-0.17 0.15,-0.35 0,-0.11 -0.03,-0.3 -0.08,-0.56 L 8.24,17.65 C 8.07,16.89 8,16.33 8,15.94 8,15.7 8.03,15.49 8.09,15.29 c 0.06,-0.2 0.15,-0.38 0.26,-0.56 0.27,-0.42 0.77,-0.64 1.48,-0.64 0.39,0 0.76,0.09 1.1,0.29 0.35,0.2 0.64,0.47 0.88,0.8 0.39,0.57 0.71,1.41 0.95,2.48 v 0 c 0,0 0,0.02 0,0.02 z m 6.52,-1.98 -0.05,-0.17 c -0.09,-0.33 -0.2,-0.59 -0.27,-0.76 -0.09,-0.15 -0.2,-0.24 -0.32,-0.24 -0.11,0 -0.18,0.06 -0.23,0.18 -0.05,0.12 -0.08,0.29 -0.08,0.51 v 0.27 l 0.03,0.62 c 0.03,0.48 -0.05,0.85 -0.23,1.06 -0.17,0.23 -0.45,0.39 -0.86,0.48 l -0.2,0.05 c 0.76,0.14 1.36,0.39 1.8,0.79 0.44,0.39 0.65,0.89 0.65,1.48 0,0.44 -0.15,0.79 -0.48,1.03 -0.32,0.26 -0.8,0.39 -1.42,0.39 h -0.71 c -0.15,-0.03 -0.38,-0.03 -0.7,-0.03 -0.53,0 -0.92,0 -1.18,0.05 l -0.05,-0.24 c 0.24,0 0.39,-0.06 0.48,-0.14 0.09,-0.08 0.15,-0.2 0.15,-0.35 0,-0.09 -0.03,-0.27 -0.08,-0.51 L 14.53,15.51 C 14.47,15.21 14.39,15 14.33,14.86 14.27,14.72 14.18,14.63 14.06,14.59 13.94,14.54 13.77,14.51 13.55,14.5 L 13.5,14.26 c 0.27,0.03 0.68,0.05 1.26,0.05 0.5,0 0.89,0 1.19,-0.05 L 16,14.5 c -0.24,0.02 -0.42,0.06 -0.51,0.12 -0.09,0.08 -0.14,0.18 -0.14,0.33 0,0.12 0.03,0.32 0.08,0.56 l 0.47,2.12 h 0.18 c 0.39,-0.02 0.68,-0.08 0.89,-0.18 0.21,-0.09 0.35,-0.24 0.42,-0.42 0.07,-0.18 0.12,-0.44 0.12,-0.74 v -0.32 l -0.05,-0.74 c 0,-0.32 0.05,-0.59 0.17,-0.82 0.14,-0.21 0.35,-0.32 0.65,-0.32 0.3,0 0.54,0.12 0.73,0.35 0.2,0.24 0.35,0.59 0.47,1.07 l 0.05,0.15 H 19.3 c 0,0 -0.02,0.03 -0.02,0.03 z m -3.34,2.15 0.5,2.3 c 0.06,0.27 0.12,0.48 0.18,0.62 0.08,0.14 0.17,0.24 0.27,0.29 0.11,0.06 0.26,0.09 0.45,0.09 0.42,0 0.74,-0.09 0.94,-0.27 0.2,-0.18 0.29,-0.47 0.29,-0.85 0,-0.53 -0.08,-0.95 -0.24,-1.27 -0.15,-0.32 -0.41,-0.54 -0.77,-0.7 -0.35,-0.15 -0.83,-0.23 -1.45,-0.23 h -0.17 z m 8.38,3.64 H 24.2 l -3.87,-5.9 c -0.42,-0.64 -0.77,-1 -1.06,-1.09 v -0.24 c 0.17,0.03 0.44,0.05 0.83,0.05 0.39,0 0.68,0 0.88,-0.05 v 0.24 c -0.39,0.05 -0.57,0.21 -0.57,0.51 0,0.24 0.12,0.56 0.38,0.94 l 0.65,1 h 2.45 l 0.15,-1.47 v -0.24 c 0,-0.29 -0.06,-0.47 -0.2,-0.57 -0.14,-0.1 -0.35,-0.17 -0.65,-0.18 l -0.05,-0.24 c 0.24,0.03 0.64,0.05 1.15,0.05 0.44,0 0.79,0 1.06,-0.05 l 0.05,0.24 c -0.11,0 -0.21,0.08 -0.3,0.2 -0.09,0.12 -0.15,0.3 -0.17,0.56 l -0.59,6.23 c 0,0 0.02,0.02 0.02,0.02 z M 23.88,17.18 H 21.6 l 1.97,2.98 0.3,-2.98 h 0.02 z m 8.03,5.51 c -0.15,0 -0.27,-0.06 -0.35,-0.2 -0.08,-0.12 -0.12,-0.27 -0.12,-0.44 0,-0.24 0.08,-0.47 0.24,-0.67 -0.15,-0.09 -0.32,-0.15 -0.47,-0.2 -0.15,-0.05 -0.36,-0.06 -0.59,-0.06 -0.21,0 -0.45,0 -0.71,0.05 -0.24,0.05 -0.5,0.08 -0.73,0.12 -0.67,0.11 -1.16,0.17 -1.54,0.17 -0.45,0 -0.82,-0.09 -1.09,-0.27 -0.33,-0.21 -0.5,-0.51 -0.5,-0.91 0,-0.18 0.05,-0.32 0.11,-0.44 0.08,-0.11 0.18,-0.15 0.32,-0.15 0.15,0 0.27,0.06 0.35,0.2 0.08,0.14 0.12,0.3 0.12,0.48 0,0.12 -0.02,0.24 -0.05,0.36 -0.03,0.12 -0.08,0.23 -0.12,0.32 0.2,0.14 0.5,0.2 0.91,0.2 0.24,0 0.65,-0.05 1.21,-0.14 l -1.3,-5.47 c -0.08,-0.32 -0.15,-0.54 -0.24,-0.7 -0.08,-0.15 -0.2,-0.26 -0.35,-0.32 -0.15,-0.06 -0.35,-0.11 -0.64,-0.12 l -0.05,-0.24 c 0.32,0.03 0.79,0.05 1.41,0.05 0.62,0 1.1,0 1.44,-0.05 l 0.05,0.24 c -0.3,0 -0.51,0.05 -0.64,0.12 -0.13,0.07 -0.18,0.21 -0.18,0.41 0,0.15 0.03,0.35 0.09,0.59 l 1.26,5.32 c 0.3,-0.05 0.57,-0.06 0.82,-0.06 0.29,0 0.54,0.03 0.74,0.08 0.21,0.06 0.41,0.15 0.59,0.29 0.3,0.27 0.44,0.56 0.44,0.86 0,0.15 -0.05,0.29 -0.12,0.39 -0.08,0.11 -0.18,0.17 -0.32,0.17 v 0 c 0,0 0.02,0.02 0.02,0.02 z m 0.89,-7.19 1.01,4.66 c 0.06,0.3 0.12,0.51 0.2,0.65 0.08,0.14 0.17,0.23 0.27,0.27 0.12,0.05 0.3,0.08 0.53,0.09 l 0.05,0.24 c -0.3,-0.03 -0.71,-0.05 -1.23,-0.05 -0.56,0 -0.95,0 -1.23,0.05 l -0.05,-0.24 c 0.24,-0.02 0.41,-0.05 0.5,-0.11 C 32.94,21 33,20.89 33,20.71 33,20.6 32.97,20.41 32.92,20.15 l -1.01,-4.66 c -0.06,-0.29 -0.14,-0.51 -0.2,-0.65 -0.08,-0.14 -0.15,-0.23 -0.27,-0.27 -0.11,-0.05 -0.27,-0.08 -0.5,-0.09 l -0.05,-0.24 c 0.29,0.03 0.71,0.05 1.23,0.05 0.52,0 0.92,0 1.23,-0.05 l 0.05,0.24 c -0.24,0.02 -0.42,0.05 -0.51,0.11 -0.09,0.06 -0.14,0.17 -0.14,0.33 0,0.09 0.03,0.27 0.09,0.57 0,0 -0.05,0 -0.05,0 z m 6.43,-0.69 c 0.59,0.47 1.04,1.06 1.38,1.78 0.32,0.73 0.48,1.44 0.48,2.15 0,0.94 -0.21,1.63 -0.65,2.12 -0.44,0.49 -1,0.71 -1.72,0.71 -0.72,0 -1.39,-0.24 -1.97,-0.71 -0.58,-0.47 -1.04,-1.06 -1.38,-1.78 -0.32,-0.73 -0.48,-1.44 -0.48,-2.15 0,-0.94 0.21,-1.63 0.65,-2.12 0.44,-0.49 1.01,-0.71 1.72,-0.71 0.71,0 1.39,0.24 1.97,0.71 z m -0.6,6.55 c 0.44,0 0.79,-0.2 1.04,-0.59 0.25,-0.39 0.39,-1.01 0.39,-1.86 0,-0.76 -0.12,-1.48 -0.35,-2.19 -0.23,-0.71 -0.56,-1.29 -0.97,-1.72 -0.42,-0.45 -0.88,-0.67 -1.39,-0.67 -0.44,0 -0.79,0.2 -1.06,0.59 -0.24,0.39 -0.38,1.03 -0.38,1.86 0,0.76 0.12,1.48 0.35,2.18 0.24,0.71 0.56,1.3 0.98,1.74 0.42,0.45 0.88,0.67 1.39,0.67 h -0.02 z m 10.21,0.57 c -0.39,0 -0.73,-0.24 -1.04,-0.76 -0.45,-0.73 -1,-2.5 -1.62,-5.32 l -1.83,5.54 c -0.23,-0.03 -0.48,-0.05 -0.79,-0.05 -0.36,0 -0.65,0 -0.86,0.05 l -0.05,-0.24 c 0.32,0 0.51,-0.06 0.6,-0.12 0.11,-0.08 0.15,-0.21 0.14,-0.44 -0.64,-3.39 -1.18,-5.52 -1.63,-6.35 -0.24,-0.39 -0.5,-0.6 -0.82,-0.6 h -0.02 c 0.09,0.11 0.17,0.23 0.23,0.35 0.06,0.12 0.09,0.26 0.09,0.39 0,0.13 -0.03,0.23 -0.09,0.32 -0.06,0.09 -0.15,0.14 -0.27,0.14 -0.17,0 -0.32,-0.09 -0.41,-0.26 -0.11,-0.17 -0.15,-0.36 -0.15,-0.57 0,-0.41 0.2,-0.6 0.57,-0.6 0.24,0 0.42,0.06 0.57,0.2 0.15,0.12 0.32,0.3 0.47,0.54 0.44,0.67 1.01,2.84 1.69,6.5 l 2.19,-6.43 h 0.21 c 0.38,1.86 0.71,3.36 1.03,4.48 0.32,1.12 0.62,1.92 0.91,2.42 0.12,0.18 0.23,0.33 0.35,0.44 0.12,0.11 0.27,0.15 0.44,0.17 h 0.03 c -0.09,-0.09 -0.17,-0.21 -0.23,-0.35 -0.06,-0.14 -0.09,-0.26 -0.09,-0.39 0,-0.13 0.03,-0.24 0.09,-0.33 0.06,-0.08 0.15,-0.12 0.27,-0.12 0.17,0 0.32,0.09 0.41,0.26 0.11,0.18 0.15,0.38 0.15,0.59 0,0.18 -0.05,0.32 -0.14,0.44 C 49.15,21.95 49,22 48.8,22 v 0 l 0.02,-0.03 v 0 z M 18.38,7.82 17.59,4.14 C 17.39,3.17 17.09,2.43 16.7,1.89 16.31,1.36 15.78,1.09 15.11,1.09 c -0.41,0 -0.7,0.12 -0.88,0.35 -0.17,0.24 -0.26,0.56 -0.26,1 0,0.39 0.08,0.92 0.21,1.59 l 0.85,3.89 c 0.06,0.3 0.12,0.51 0.2,0.65 0.08,0.14 0.17,0.23 0.27,0.27 0.12,0.05 0.3,0.08 0.53,0.09 l 0.06,0.24 C 15.77,9.14 15.38,9.12 14.88,9.12 c -0.57,0 -0.98,0 -1.24,0.05 L 13.58,8.93 c 0.24,-0.02 0.41,-0.05 0.5,-0.11 0.09,-0.06 0.15,-0.17 0.15,-0.35 0,-0.11 -0.03,-0.3 -0.08,-0.56 L 13.35,4.22 C 13.2,3.51 13.11,2.93 13.11,2.51 c 0,-0.26 0.03,-0.47 0.08,-0.67 0.06,-0.18 0.15,-0.36 0.26,-0.53 0.3,-0.42 0.8,-0.64 1.48,-0.64 0.39,0 0.76,0.09 1.1,0.29 0.34,0.2 0.64,0.47 0.88,0.8 0.39,0.57 0.71,1.41 0.95,2.48 l 0.76,3.54 c 0.06,0.3 0.12,0.53 0.2,0.67 0.08,0.15 0.18,0.27 0.3,0.33 0.14,0.08 0.32,0.12 0.53,0.12 L 19.7,9.14 C 19.47,9.11 19.17,9.09 18.79,9.09 c -0.42,0 -0.76,0 -0.97,0.05 L 17.77,8.9 c 0.26,0 0.44,-0.06 0.56,-0.15 C 18.44,8.67 18.5,8.51 18.5,8.3 18.5,8.15 18.47,7.98 18.42,7.79 v 0 c 0,0 -0.05,0.03 -0.05,0.03 z M 25.5,7.79 C 25.05,7.06 24.5,5.28 23.88,2.47 L 22.05,8.01 C 21.82,7.98 21.57,7.96 21.26,7.96 c -0.36,0 -0.65,0 -0.86,0.05 L 20.35,7.77 c 0.32,0 0.51,-0.06 0.6,-0.12 C 21.06,7.57 21.1,7.44 21.09,7.21 20.45,3.82 19.91,1.69 19.46,0.86 19.22,0.47 18.96,0.26 18.64,0.26 h -0.02 c 0.09,0.11 0.17,0.23 0.23,0.35 0.06,0.12 0.09,0.26 0.09,0.39 0,0.13 -0.03,0.23 -0.09,0.32 -0.06,0.09 -0.15,0.14 -0.27,0.14 -0.17,0 -0.32,-0.09 -0.41,-0.26 -0.09,-0.17 -0.15,-0.36 -0.15,-0.57 0,-0.41 0.2,-0.6 0.57,-0.6 0.24,0 0.42,0.06 0.57,0.2 0.15,0.12 0.32,0.3 0.47,0.54 0.44,0.67 1.01,2.84 1.69,6.5 l 2.19,-6.43 h 0.21 c 0.38,1.86 0.71,3.36 1.03,4.48 0.32,1.12 0.62,1.92 0.91,2.42 0.12,0.18 0.23,0.33 0.35,0.44 0.12,0.11 0.27,0.15 0.44,0.17 h 0.03 C 26.39,8.26 26.31,8.14 26.25,8 26.19,7.86 26.16,7.74 26.16,7.61 c 0,-0.13 0.03,-0.24 0.09,-0.33 0.06,-0.08 0.15,-0.12 0.27,-0.12 0.17,0 0.32,0.09 0.41,0.26 0.11,0.18 0.15,0.38 0.15,0.59 0,0.18 -0.05,0.32 -0.14,0.44 -0.09,0.12 -0.24,0.17 -0.44,0.17 -0.39,0 -0.73,-0.24 -1.04,-0.76 0,0 0.02,-0.03 0.02,-0.03 z m 7.47,-2.38 c 0,0.85 -0.23,1.5 -0.68,1.94 -0.45,0.44 -1.13,0.67 -2.04,0.67 -0.15,0 -0.44,0 -0.88,-0.03 h -0.82 c -0.39,0 -0.71,0 -0.94,0.03 L 27.58,7.78 c 0.24,0 0.41,-0.05 0.5,-0.11 C 28.17,7.61 28.23,7.5 28.23,7.34 28.23,7.2 28.2,7.01 28.14,6.77 L 27.13,2.11 C 27.07,1.82 26.99,1.6 26.93,1.46 26.85,1.32 26.78,1.23 26.66,1.19 26.55,1.14 26.39,1.11 26.18,1.1 L 26.15,0.86 c 0.24,0.03 0.64,0.05 1.15,0.05 0.17,0 0.44,0 0.79,-0.03 h 0.56 c 0.86,0 1.63,0.18 2.28,0.57 0.65,0.39 1.15,0.94 1.51,1.63 0.35,0.68 0.53,1.47 0.53,2.33 v 0 0.02 z M 28.52,1.06 c -0.23,0 -0.38,0.03 -0.47,0.09 -0.08,0.08 -0.12,0.18 -0.12,0.33 0,0.09 0.03,0.29 0.09,0.59 l 1.01,4.69 c 0.06,0.27 0.12,0.5 0.2,0.64 0.08,0.14 0.17,0.24 0.27,0.29 0.12,0.06 0.27,0.08 0.47,0.08 0.73,0 1.24,-0.17 1.57,-0.51 C 31.86,6.93 32.02,6.4 32.02,5.69 32.02,4.27 31.73,3.13 31.16,2.3 30.59,1.47 29.71,1.06 28.51,1.06 v 0 0.02 z m 10.39,3.2 0.51,2.36 c 0.09,0.42 0.23,0.71 0.36,0.86 0.13,0.15 0.36,0.24 0.65,0.26 l 0.05,0.24 C 40.27,7.95 39.97,7.93 39.57,7.93 c -0.4,0 -0.74,0 -0.97,0.05 L 38.55,7.74 c 0.24,0 0.44,-0.06 0.54,-0.15 C 39.21,7.51 39.26,7.35 39.26,7.15 39.26,7 39.23,6.82 39.18,6.62 L 38.62,4.14 C 38.42,3.17 38.12,2.43 37.73,1.89 37.34,1.36 36.81,1.09 36.14,1.09 35.73,1.09 35.43,1.21 35.26,1.44 35.09,1.68 35,2 35,2.44 c 0,0.39 0.08,0.92 0.21,1.59 l 0.59,2.72 c 0.06,0.3 0.12,0.51 0.2,0.65 0.08,0.14 0.17,0.23 0.27,0.27 0.12,0.05 0.3,0.08 0.53,0.09 L 36.86,8 C 36.54,7.97 36.15,7.95 35.65,7.95 c -0.57,0 -0.98,0 -1.24,0.05 L 34.35,7.76 C 34.59,7.74 34.76,7.71 34.85,7.65 34.94,7.59 35,7.48 35,7.3 35,7.19 34.97,7 34.92,6.74 L 34.36,4.23 C 34.19,3.47 34.12,2.91 34.12,2.52 c 0,-0.24 0.03,-0.45 0.09,-0.65 0.06,-0.2 0.15,-0.38 0.26,-0.56 0.27,-0.42 0.77,-0.64 1.48,-0.64 0.39,0 0.76,0.09 1.1,0.29 0.34,0.2 0.64,0.47 0.88,0.8 0.39,0.57 0.71,1.41 0.95,2.48 v 0 c 0,0 0,0.02 0,0.02 z M 45.15,3.34 H 44.92 C 44.68,2.55 44.39,1.99 44.03,1.65 43.67,1.32 43.24,1.14 42.76,1.14 h -0.6 c -0.24,0 -0.42,0.03 -0.51,0.08 -0.09,0.06 -0.14,0.17 -0.14,0.35 0,0.08 0.03,0.27 0.09,0.56 l 1.03,4.66 c 0.06,0.3 0.12,0.51 0.2,0.65 0.08,0.14 0.17,0.23 0.27,0.27 0.12,0.05 0.3,0.08 0.53,0.09 l 0.05,0.24 c -0.3,-0.03 -0.71,-0.05 -1.23,-0.05 -0.56,0 -0.95,0 -1.23,0.05 L 41.17,7.8 c 0.24,-0.02 0.41,-0.05 0.5,-0.11 0.09,-0.06 0.15,-0.17 0.15,-0.33 0,-0.09 -0.03,-0.27 -0.09,-0.57 L 40.7,2.13 C 40.64,1.83 40.56,1.62 40.5,1.48 40.44,1.34 40.35,1.25 40.23,1.21 40.11,1.17 39.94,1.13 39.72,1.12 L 39.67,0.88 c 0.6,0.03 1.51,0.05 2.69,0.05 1.09,0 1.85,0 2.3,-0.05 0.09,0.64 0.17,1.09 0.24,1.38 0.05,0.23 0.09,0.44 0.15,0.67 0.06,0.23 0.11,0.35 0.12,0.41 v 0 c 0,0 -0.03,0.03 -0.03,0.03 z M 50.54,1.85 49.95,8.08 H 49.8 L 45.93,2.18 C 45.51,1.54 45.16,1.18 44.87,1.09 V 0.85 c 0.17,0.03 0.44,0.05 0.83,0.05 0.39,0 0.68,0 0.88,-0.05 v 0.24 c -0.39,0.05 -0.57,0.21 -0.57,0.51 0,0.24 0.12,0.56 0.38,0.94 l 0.65,1 h 2.45 L 49.64,2.07 V 1.83 C 49.64,1.54 49.58,1.36 49.44,1.26 49.3,1.16 49.09,1.09 48.79,1.08 L 48.74,0.84 c 0.24,0.03 0.64,0.05 1.15,0.05 0.44,0 0.79,0 1.06,-0.05 L 51,1.08 c -0.11,0 -0.21,0.08 -0.3,0.2 -0.09,0.12 -0.15,0.3 -0.17,0.56 v 0 c 0,0 0.02,0.02 0.02,0.02 z m -1.05,1.93 h -2.28 l 1.97,2.98 0.3,-2.98 c 0,0 0.02,0 0.02,0 z m 8.03,5.49 C 57.37,9.27 57.25,9.21 57.17,9.07 57.09,8.95 57.05,8.8 57.05,8.63 57.05,8.39 57.13,8.16 57.29,7.96 57.14,7.87 56.97,7.81 56.82,7.76 56.67,7.71 56.46,7.7 56.23,7.7 c -0.21,0 -0.45,0 -0.71,0.05 -0.24,0.05 -0.5,0.08 -0.73,0.12 -0.67,0.11 -1.16,0.17 -1.54,0.17 -0.45,0 -0.82,-0.09 -1.09,-0.27 -0.33,-0.21 -0.5,-0.51 -0.5,-0.91 0,-0.18 0.05,-0.32 0.11,-0.44 0.08,-0.11 0.18,-0.15 0.32,-0.15 0.15,0 0.27,0.06 0.35,0.2 0.08,0.14 0.12,0.3 0.12,0.48 0,0.12 -0.02,0.24 -0.05,0.36 -0.03,0.12 -0.08,0.23 -0.12,0.32 0.2,0.14 0.5,0.2 0.91,0.2 0.24,0 0.65,-0.05 1.21,-0.14 L 53.21,2.22 C 53.13,1.9 53.06,1.68 52.97,1.52 52.89,1.37 52.77,1.26 52.62,1.2 52.47,1.14 52.27,1.09 51.98,1.08 L 51.93,0.84 c 0.32,0.03 0.79,0.05 1.41,0.05 0.62,0 1.1,0 1.44,-0.05 l 0.05,0.24 c -0.3,0 -0.51,0.05 -0.64,0.12 -0.12,0.08 -0.18,0.21 -0.18,0.41 0,0.15 0.03,0.35 0.09,0.59 l 1.26,5.32 c 0.3,-0.05 0.57,-0.06 0.82,-0.06 0.29,0 0.54,0.03 0.74,0.08 0.21,0.06 0.41,0.15 0.59,0.29 0.3,0.27 0.44,0.56 0.44,0.86 0,0.15 -0.05,0.29 -0.12,0.39 -0.08,0.11 -0.18,0.17 -0.32,0.17 v 0 c 0,0 0.02,0.02 0.02,0.02 z m 0.89,-7.17 1.01,4.66 c 0.06,0.3 0.12,0.51 0.2,0.65 0.08,0.14 0.17,0.23 0.27,0.27 0.12,0.05 0.3,0.08 0.53,0.09 l 0.05,0.24 c -0.3,-0.03 -0.71,-0.05 -1.23,-0.05 -0.56,0 -0.95,0 -1.23,0.05 L 57.96,7.77 C 58.2,7.75 58.37,7.72 58.46,7.66 58.55,7.6 58.61,7.49 58.61,7.31 58.61,7.2 58.58,7.01 58.53,6.75 L 57.52,2.09 C 57.46,1.8 57.38,1.58 57.32,1.44 57.24,1.3 57.17,1.21 57.05,1.17 56.94,1.12 56.78,1.09 56.55,1.08 L 56.5,0.84 c 0.29,0.03 0.71,0.05 1.23,0.05 0.52,0 0.92,0 1.23,-0.05 l 0.05,0.24 c -0.24,0.02 -0.42,0.05 -0.51,0.11 -0.09,0.06 -0.14,0.17 -0.14,0.33 0,0.09 0.03,0.27 0.09,0.57 0,0 -0.05,0 -0.05,0 z m 6.41,-0.69 c 0.59,0.47 1.04,1.06 1.38,1.78 0.32,0.73 0.48,1.44 0.48,2.15 0,0.94 -0.21,1.63 -0.65,2.12 -0.44,0.49 -1,0.71 -1.72,0.71 -0.72,0 -1.39,-0.24 -1.97,-0.71 C 61.75,6.99 61.3,6.4 60.96,5.68 60.64,4.95 60.48,4.24 60.48,3.53 c 0,-0.94 0.21,-1.63 0.65,-2.12 0.44,-0.49 1.01,-0.71 1.72,-0.71 0.71,0 1.39,0.24 1.97,0.71 z m -0.59,6.55 c 0.44,0 0.79,-0.2 1.04,-0.59 0.25,-0.39 0.39,-1.01 0.39,-1.86 0,-0.76 -0.12,-1.48 -0.35,-2.19 C 65.08,2.61 64.75,2.03 64.34,1.6 63.92,1.15 63.46,0.93 62.95,0.93 c -0.44,0 -0.79,0.2 -1.06,0.59 -0.24,0.39 -0.38,1.03 -0.38,1.86 0,0.76 0.12,1.48 0.35,2.18 0.24,0.71 0.56,1.3 0.98,1.74 0.42,0.45 0.88,0.67 1.39,0.67 H 64.21 Z M 73.4,7.79 C 72.95,7.06 72.4,5.28 71.78,2.47 L 69.95,8.01 C 69.72,7.98 69.47,7.96 69.16,7.96 c -0.36,0 -0.65,0 -0.86,0.05 L 68.25,7.77 c 0.32,0 0.51,-0.06 0.6,-0.12 C 68.96,7.57 69,7.44 68.99,7.21 68.35,3.82 67.81,1.69 67.36,0.86 67.12,0.47 66.86,0.26 66.54,0.26 h -0.02 c 0.09,0.11 0.17,0.23 0.23,0.35 0.06,0.12 0.09,0.26 0.09,0.39 0,0.13 -0.03,0.23 -0.09,0.32 -0.06,0.09 -0.15,0.14 -0.27,0.14 -0.17,0 -0.32,-0.09 -0.41,-0.26 -0.11,-0.17 -0.15,-0.36 -0.15,-0.57 0,-0.41 0.2,-0.6 0.57,-0.6 0.24,0 0.42,0.06 0.57,0.2 0.15,0.12 0.32,0.3 0.47,0.54 0.44,0.67 1.01,2.84 1.69,6.5 l 2.19,-6.43 h 0.21 c 0.38,1.86 0.71,3.36 1.03,4.48 0.32,1.12 0.62,1.92 0.91,2.42 0.12,0.18 0.23,0.33 0.35,0.44 0.12,0.11 0.27,0.15 0.44,0.17 h 0.03 C 74.29,8.26 74.21,8.14 74.15,8 74.09,7.86 74.06,7.74 74.06,7.61 c 0,-0.13 0.03,-0.24 0.09,-0.33 0.06,-0.08 0.15,-0.12 0.27,-0.12 0.17,0 0.32,0.09 0.41,0.26 0.11,0.18 0.15,0.38 0.15,0.59 0,0.18 -0.05,0.32 -0.14,0.44 -0.09,0.12 -0.24,0.17 -0.44,0.17 -0.39,0 -0.73,-0.24 -1.04,-0.76 0,0 0.02,-0.03 0.02,-0.03 z"
             id="path1" />
        </g>
      </g>
    </g>
  </g>
</svg>
